{"glyphs":{"0":{"ha":764,"x_min":72,"x_max":692,"o":"m 382 -15 q 151 91 231 -15 q 72 397 72 197 q 151 696 72 589 q 382 803 231 803 q 612 697 532 803 q 692 397 692 590 q 613 92 692 199 q 382 -15 533 -15 m 382 88 q 508 166 465 88 q 550 397 550 244 q 508 624 550 547 q 382 701 465 701 q 256 624 299 701 q 214 397 214 547 q 256 166 214 244 q 382 88 299 88 z "},"1":{"ha":481,"x_min":56,"x_max":446,"o":"m 60 93 l 183 93 l 183 681 l 60 661 l 56 751 l 326 789 l 326 93 l 446 93 l 446 0 l 60 0 l 60 93 z "},"2":{"ha":671,"x_min":57,"x_max":603,"o":"m 603 0 l 57 0 l 58 89 l 290 318 q 422 466 386 414 q 457 579 457 518 q 426 669 457 633 q 332 704 394 704 q 229 665 267 704 q 192 558 192 626 q 203 476 192 525 l 79 476 q 65 565 65 525 q 140 738 65 672 q 346 803 214 803 q 529 746 463 803 q 596 594 596 689 q 572 488 596 539 q 501 386 547 438 q 372 256 456 335 l 211 97 l 496 97 l 496 238 l 601 238 l 603 0 z "},"3":{"ha":697,"x_min":42,"x_max":639,"o":"m 474 414 q 594 344 549 396 q 639 214 639 292 q 560 47 639 108 q 347 -14 481 -14 q 159 33 236 -14 q 42 167 82 79 l 153 219 q 346 92 214 92 q 457 126 417 92 q 497 219 497 160 q 444 328 497 293 q 281 363 392 363 l 281 454 q 434 488 381 454 q 488 588 488 522 q 451 669 488 639 q 350 699 415 699 q 239 664 285 699 q 175 568 193 629 l 60 614 q 169 753 90 704 q 357 803 247 803 q 550 747 479 803 q 621 599 621 692 q 581 483 621 532 q 474 414 540 435 z "},"4":{"ha":683,"x_min":14,"x_max":638,"o":"m 258 93 l 386 93 l 386 218 l 26 218 l 14 296 l 388 789 l 518 789 l 518 306 l 638 306 l 638 218 l 518 218 l 518 93 l 614 93 l 614 0 l 258 0 l 258 93 m 386 306 l 386 646 l 131 306 l 386 306 z "},"5":{"ha":717,"x_min":61,"x_max":656,"o":"m 394 508 q 588 438 519 508 q 656 251 656 368 q 573 56 656 128 q 357 -15 490 -15 q 61 110 189 -15 l 131 199 q 232 122 179 149 q 349 96 285 96 q 474 138 429 96 q 519 249 519 179 q 478 359 519 318 q 363 400 436 400 q 200 332 271 400 l 97 371 l 107 789 l 613 789 l 613 586 l 503 586 l 503 690 l 215 690 l 208 453 q 394 508 286 508 z "},"6":{"ha":678,"x_min":56,"x_max":629,"o":"m 376 513 q 505 481 447 513 q 596 390 563 449 q 629 257 629 332 q 592 116 629 178 q 490 20 556 54 q 343 -14 425 -14 q 193 19 258 -14 q 92 114 128 53 q 56 254 56 175 q 83 404 56 336 q 193 594 111 472 l 369 858 l 474 789 l 271 490 q 376 513 318 513 m 346 89 q 456 135 415 89 q 497 256 497 181 q 458 373 497 329 q 350 417 418 417 q 238 372 283 417 q 193 253 193 328 q 233 135 193 181 q 346 89 272 89 z "},"7":{"ha":639,"x_min":24,"x_max":583,"o":"m 439 693 l 140 693 l 140 564 l 24 564 l 24 789 l 583 789 l 583 700 l 318 0 l 178 0 l 439 693 z "},"8":{"ha":685,"x_min":47,"x_max":638,"o":"m 343 -15 q 126 47 204 -15 q 47 210 47 110 q 87 331 47 281 q 197 408 126 382 q 74 590 74 467 q 147 744 74 686 q 343 803 221 803 q 540 747 465 803 q 614 596 614 690 q 581 483 614 531 q 483 410 549 436 q 599 336 560 386 q 638 215 638 286 q 602 96 638 149 q 500 14 567 43 q 343 -15 433 -15 m 396 443 q 453 497 426 458 q 479 589 479 535 q 445 679 479 646 q 347 713 411 713 q 251 678 286 713 q 217 586 217 644 q 262 491 217 525 q 396 443 307 457 m 342 72 q 451 111 411 72 q 490 214 490 150 q 442 317 490 282 q 285 371 393 351 q 218 317 249 360 q 188 215 188 274 q 229 111 188 150 q 342 72 271 72 z "},"9":{"ha":678,"x_min":50,"x_max":622,"o":"m 335 804 q 485 771 419 804 q 586 676 550 738 q 622 535 622 615 q 594 384 622 451 q 485 196 567 317 l 308 -68 l 206 1 l 408 300 q 303 278 361 278 q 173 310 231 278 q 83 400 115 342 q 50 533 50 458 q 86 674 50 613 q 188 770 122 736 q 335 804 253 804 m 328 374 q 440 418 394 374 q 485 538 485 463 q 445 656 485 610 q 333 701 406 701 q 222 656 263 701 q 182 535 182 610 q 221 417 182 461 q 328 374 260 374 z "},"\u0000":{"ha":0,"x_min":0,"x_max":0,"o":""},"\r":{"ha":429,"x_min":0,"x_max":0,"o":""}," ":{"ha":429,"x_min":0,"x_max":0,"o":""},"A":{"ha":964,"x_min":36,"x_max":926,"o":"m 36 97 l 129 97 l 346 692 l 261 692 l 261 789 l 701 789 l 701 692 l 615 692 l 838 97 l 926 97 l 926 0 l 578 0 l 578 97 l 676 97 l 608 296 l 338 296 l 271 97 l 365 97 l 365 0 l 36 0 l 36 97 m 581 389 l 479 690 l 471 690 l 367 389 l 581 389 z "},"Á":{"ha":964,"x_min":36,"x_max":926,"o":"m 36 97 l 129 97 l 346 692 l 261 692 l 261 789 l 701 789 l 701 692 l 615 692 l 838 97 l 926 97 l 926 0 l 578 0 l 578 97 l 676 97 l 608 296 l 338 296 l 271 97 l 365 97 l 365 0 l 36 0 l 36 97 m 581 389 l 479 690 l 471 690 l 367 389 l 581 389 m 510 1110 l 653 1110 l 524 894 l 440 894 l 510 1110 z "},"Ă":{"ha":964,"x_min":36,"x_max":926,"o":"m 36 97 l 129 97 l 346 692 l 261 692 l 261 789 l 701 789 l 701 692 l 615 692 l 838 97 l 926 97 l 926 0 l 578 0 l 578 97 l 676 97 l 608 296 l 338 296 l 271 97 l 365 97 l 365 0 l 36 0 l 36 97 m 581 389 l 479 690 l 471 690 l 367 389 l 581 389 m 478 874 q 357 915 403 874 q 306 1032 311 957 l 396 1032 q 482 951 411 951 q 539 972 517 951 q 567 1032 561 993 l 658 1032 q 604 915 651 956 q 478 874 557 874 z "},"Ắ":{"ha":964,"x_min":36,"x_max":926,"o":"m 36 97 l 129 97 l 346 692 l 261 692 l 261 789 l 701 789 l 701 692 l 615 692 l 838 97 l 926 97 l 926 0 l 578 0 l 578 97 l 676 97 l 608 296 l 338 296 l 271 97 l 365 97 l 365 0 l 36 0 l 36 97 m 581 389 l 479 690 l 471 690 l 367 389 l 581 389 m 492 1206 l 625 1206 l 513 1047 l 435 1047 l 492 1206 m 482 871 q 358 911 404 871 q 306 1024 311 951 l 393 1024 q 482 944 406 944 q 542 965 518 944 q 571 1024 565 985 l 658 1024 q 605 912 651 951 q 482 871 558 872 z "},"Ặ":{"ha":964,"x_min":36,"x_max":926,"o":"m 36 97 l 129 97 l 346 692 l 261 692 l 261 789 l 701 789 l 701 692 l 615 692 l 838 97 l 926 97 l 926 0 l 578 0 l 578 97 l 676 97 l 608 296 l 338 296 l 271 97 l 365 97 l 365 0 l 36 0 l 36 97 m 581 389 l 479 690 l 471 690 l 367 389 l 581 389 m 478 874 q 357 915 403 874 q 306 1032 311 957 l 396 1032 q 482 951 411 951 q 539 972 517 951 q 567 1032 561 993 l 658 1032 q 604 915 651 956 q 478 874 557 874 m 472 -219 q 415 -199 438 -219 q 393 -146 393 -178 q 415 -93 393 -114 q 472 -72 438 -72 q 530 -93 508 -72 q 551 -149 551 -114 q 529 -199 551 -178 q 472 -219 507 -219 z "},"Ằ":{"ha":964,"x_min":36,"x_max":926,"o":"m 36 97 l 129 97 l 346 692 l 261 692 l 261 789 l 701 789 l 701 692 l 615 692 l 838 97 l 926 97 l 926 0 l 578 0 l 578 97 l 676 97 l 608 296 l 338 296 l 271 97 l 365 97 l 365 0 l 36 0 l 36 97 m 581 389 l 479 690 l 471 690 l 367 389 l 581 389 m 339 1206 l 471 1206 l 528 1047 l 451 1047 l 339 1206 m 482 871 q 358 911 404 871 q 306 1024 311 951 l 393 1024 q 482 944 406 944 q 542 965 518 944 q 571 1024 565 985 l 658 1024 q 605 912 651 951 q 482 871 558 872 z "},"Ẳ":{"ha":964,"x_min":36,"x_max":926,"o":"m 36 97 l 129 97 l 346 692 l 261 692 l 261 789 l 701 789 l 701 692 l 615 692 l 838 97 l 926 97 l 926 0 l 578 0 l 578 97 l 676 97 l 608 296 l 338 296 l 271 97 l 365 97 l 365 0 l 36 0 l 36 97 m 581 389 l 479 690 l 471 690 l 367 389 l 581 389 m 453 1083 q 499 1135 499 1101 q 485 1163 499 1153 q 449 1174 471 1174 q 382 1153 417 1174 l 361 1215 q 464 1246 407 1246 q 550 1217 517 1246 q 583 1144 583 1189 q 472 1022 583 1053 l 453 1083 m 482 871 q 358 911 404 871 q 306 1024 311 951 l 393 1024 q 482 944 406 944 q 542 965 518 944 q 571 1024 565 985 l 658 1024 q 605 912 651 951 q 482 871 558 872 z "},"Ẵ":{"ha":964,"x_min":36,"x_max":926,"o":"m 36 97 l 129 97 l 346 692 l 261 692 l 261 789 l 701 789 l 701 692 l 615 692 l 838 97 l 926 97 l 926 0 l 578 0 l 578 97 l 676 97 l 608 296 l 338 296 l 271 97 l 365 97 l 365 0 l 36 0 l 36 97 m 581 389 l 479 690 l 471 690 l 367 389 l 581 389 m 575 1076 q 524 1085 550 1076 q 461 1108 497 1093 q 382 1132 406 1132 q 333 1083 342 1132 l 272 1083 q 310 1190 278 1156 q 393 1225 343 1225 q 496 1194 429 1225 q 530 1181 500 1193 q 579 1169 560 1169 q 615 1181 601 1169 q 633 1221 628 1193 l 692 1221 q 657 1115 686 1153 q 575 1076 628 1076 m 482 871 q 358 911 404 871 q 306 1024 311 951 l 393 1024 q 482 944 406 944 q 542 965 518 944 q 571 1024 565 985 l 658 1024 q 605 912 651 951 q 482 871 558 872 z "},"Ǎ":{"ha":964,"x_min":36,"x_max":926,"o":"m 36 97 l 129 97 l 346 692 l 261 692 l 261 789 l 701 789 l 701 692 l 615 692 l 838 97 l 926 97 l 926 0 l 578 0 l 578 97 l 676 97 l 608 296 l 338 296 l 271 97 l 365 97 l 365 0 l 36 0 l 36 97 m 581 389 l 479 690 l 471 690 l 367 389 l 581 389 m 303 1088 l 399 1088 l 485 935 l 569 1088 l 660 1088 l 554 867 l 414 867 l 303 1088 z "},"Â":{"ha":964,"x_min":36,"x_max":926,"o":"m 36 97 l 129 97 l 346 692 l 261 692 l 261 789 l 701 789 l 701 692 l 615 692 l 838 97 l 926 97 l 926 0 l 578 0 l 578 97 l 676 97 l 608 296 l 338 296 l 271 97 l 365 97 l 365 0 l 36 0 l 36 97 m 581 389 l 479 690 l 471 690 l 367 389 l 581 389 m 411 1094 l 554 1094 l 669 868 l 575 868 l 482 1038 l 389 868 l 294 868 l 411 1094 z "},"Ấ":{"ha":964,"x_min":36,"x_max":926,"o":"m 36 97 l 129 97 l 346 692 l 261 692 l 261 789 l 701 789 l 701 692 l 615 692 l 838 97 l 926 97 l 926 0 l 578 0 l 578 97 l 676 97 l 608 296 l 338 296 l 271 97 l 365 97 l 365 0 l 36 0 l 36 97 m 581 389 l 479 690 l 471 690 l 367 389 l 581 389 m 689 1165 l 807 1165 l 706 996 l 629 996 l 689 1165 m 414 1050 l 550 1050 l 667 868 l 571 868 l 482 992 l 393 868 l 297 868 l 414 1050 z "},"Ậ":{"ha":964,"x_min":36,"x_max":926,"o":"m 36 97 l 129 97 l 346 692 l 261 692 l 261 789 l 701 789 l 701 692 l 615 692 l 838 97 l 926 97 l 926 0 l 578 0 l 578 97 l 676 97 l 608 296 l 338 296 l 271 97 l 365 97 l 365 0 l 36 0 l 36 97 m 581 389 l 479 690 l 471 690 l 367 389 l 581 389 m 411 1094 l 554 1094 l 669 868 l 575 868 l 482 1038 l 389 868 l 294 868 l 411 1094 m 472 -219 q 415 -199 438 -219 q 393 -146 393 -178 q 415 -93 393 -114 q 472 -72 438 -72 q 530 -93 508 -72 q 551 -149 551 -114 q 529 -199 551 -178 q 472 -219 507 -219 z "},"Ầ":{"ha":964,"x_min":36,"x_max":926,"o":"m 36 97 l 129 97 l 346 692 l 261 692 l 261 789 l 701 789 l 701 692 l 615 692 l 838 97 l 926 97 l 926 0 l 578 0 l 578 97 l 676 97 l 608 296 l 338 296 l 271 97 l 365 97 l 365 0 l 36 0 l 36 97 m 581 389 l 479 690 l 471 690 l 367 389 l 581 389 m 663 996 l 560 1165 l 678 1165 l 738 996 l 663 996 m 414 1050 l 550 1050 l 667 868 l 571 868 l 482 992 l 393 868 l 297 868 l 414 1050 z "},"Ẩ":{"ha":964,"x_min":36,"x_max":926,"o":"m 36 97 l 129 97 l 346 692 l 261 692 l 261 789 l 701 789 l 701 692 l 615 692 l 838 97 l 926 97 l 926 0 l 578 0 l 578 97 l 676 97 l 608 296 l 338 296 l 271 97 l 365 97 l 365 0 l 36 0 l 36 97 m 581 389 l 479 690 l 471 690 l 367 389 l 581 389 m 621 1040 q 667 1092 667 1056 q 653 1120 667 1110 q 617 1131 640 1131 q 550 1111 585 1131 l 529 1172 q 632 1204 574 1204 q 719 1175 686 1204 q 751 1100 751 1146 q 640 979 751 1007 l 621 1040 m 414 1050 l 550 1050 l 667 868 l 571 868 l 482 992 l 393 868 l 297 868 l 414 1050 z "},"Ẫ":{"ha":964,"x_min":36,"x_max":926,"o":"m 36 97 l 129 97 l 346 692 l 261 692 l 261 789 l 701 789 l 701 692 l 615 692 l 838 97 l 926 97 l 926 0 l 578 0 l 578 97 l 676 97 l 608 296 l 338 296 l 271 97 l 365 97 l 365 0 l 36 0 l 36 97 m 581 389 l 479 690 l 471 690 l 367 389 l 581 389 m 575 1092 q 530 1099 553 1092 q 469 1121 507 1106 q 389 1146 417 1146 q 340 1096 349 1146 l 279 1096 q 315 1202 285 1168 q 393 1236 346 1236 q 434 1229 413 1236 q 492 1207 456 1222 q 524 1194 496 1206 q 572 1182 553 1182 q 626 1232 617 1182 l 685 1232 q 575 1092 674 1092 m 414 1050 l 550 1050 l 667 868 l 571 868 l 482 992 l 393 868 l 297 868 l 414 1050 z "},"Ȁ":{"ha":964,"x_min":36,"x_max":926,"o":"m 36 97 l 129 97 l 346 692 l 261 692 l 261 789 l 701 789 l 701 692 l 615 692 l 838 97 l 926 97 l 926 0 l 578 0 l 578 97 l 676 97 l 608 296 l 338 296 l 271 97 l 365 97 l 365 0 l 36 0 l 36 97 m 581 389 l 479 690 l 471 690 l 367 389 l 581 389 m 188 1117 l 329 1117 l 403 894 l 319 894 l 188 1117 m 404 1117 l 546 1117 l 618 894 l 535 894 l 404 1117 z "},"Ä":{"ha":964,"x_min":36,"x_max":926,"o":"m 36 97 l 129 97 l 346 692 l 261 692 l 261 789 l 701 789 l 701 692 l 615 692 l 838 97 l 926 97 l 926 0 l 578 0 l 578 97 l 676 97 l 608 296 l 338 296 l 271 97 l 365 97 l 365 0 l 36 0 l 36 97 m 581 389 l 479 690 l 471 690 l 367 389 l 581 389 m 336 883 q 279 903 301 883 q 257 958 257 924 q 279 1013 257 993 q 336 1033 301 1033 q 392 1013 371 1033 q 414 958 414 993 q 392 903 414 924 q 336 883 371 883 m 628 883 q 572 903 593 883 q 550 958 550 924 q 572 1013 550 993 q 628 1033 593 1033 q 685 1013 663 1033 q 707 958 707 993 q 685 903 707 924 q 628 883 663 883 z "},"Ȧ":{"ha":964,"x_min":36,"x_max":926,"o":"m 36 97 l 129 97 l 346 692 l 261 692 l 261 789 l 701 789 l 701 692 l 615 692 l 838 97 l 926 97 l 926 0 l 578 0 l 578 97 l 676 97 l 608 296 l 338 296 l 271 97 l 365 97 l 365 0 l 36 0 l 36 97 m 581 389 l 479 690 l 471 690 l 367 389 l 581 389 m 482 886 q 422 909 446 886 q 399 965 399 932 q 422 1022 399 1000 q 482 1044 444 1044 q 541 1023 518 1044 q 564 965 564 1001 q 542 909 565 932 q 482 886 519 886 z "},"Ạ":{"ha":964,"x_min":36,"x_max":926,"o":"m 36 97 l 129 97 l 346 692 l 261 692 l 261 789 l 701 789 l 701 692 l 615 692 l 838 97 l 926 97 l 926 0 l 578 0 l 578 97 l 676 97 l 608 296 l 338 296 l 271 97 l 365 97 l 365 0 l 36 0 l 36 97 m 581 389 l 479 690 l 471 690 l 367 389 l 581 389 m 472 -219 q 415 -199 438 -219 q 393 -146 393 -178 q 415 -93 393 -114 q 472 -72 438 -72 q 530 -93 508 -72 q 551 -149 551 -114 q 529 -199 551 -178 q 472 -219 507 -219 z "},"À":{"ha":964,"x_min":36,"x_max":926,"o":"m 36 97 l 129 97 l 346 692 l 261 692 l 261 789 l 701 789 l 701 692 l 615 692 l 838 97 l 926 97 l 926 0 l 578 0 l 578 97 l 676 97 l 608 296 l 338 296 l 271 97 l 365 97 l 365 0 l 36 0 l 36 97 m 581 389 l 479 690 l 471 690 l 367 389 l 581 389 m 311 1110 l 453 1110 l 522 894 l 439 894 l 311 1110 z "},"Ả":{"ha":964,"x_min":36,"x_max":926,"o":"m 36 97 l 129 97 l 346 692 l 261 692 l 261 789 l 701 789 l 701 692 l 615 692 l 838 97 l 926 97 l 926 0 l 578 0 l 578 97 l 676 97 l 608 296 l 338 296 l 271 97 l 365 97 l 365 0 l 36 0 l 36 97 m 581 389 l 479 690 l 471 690 l 367 389 l 581 389 m 460 910 q 506 961 506 925 q 492 990 506 979 q 456 1000 479 1000 q 389 981 424 1000 l 368 1042 q 471 1074 413 1074 q 558 1044 525 1074 q 590 969 590 1015 q 479 849 590 876 l 460 910 z "},"Ȃ":{"ha":964,"x_min":36,"x_max":926,"o":"m 36 97 l 129 97 l 346 692 l 261 692 l 261 789 l 701 789 l 701 692 l 615 692 l 838 97 l 926 97 l 926 0 l 578 0 l 578 97 l 676 97 l 608 296 l 338 296 l 271 97 l 365 97 l 365 0 l 36 0 l 36 97 m 581 389 l 479 690 l 471 690 l 367 389 l 581 389 m 301 863 q 356 988 307 943 q 482 1033 404 1033 q 608 988 560 1033 q 661 863 656 943 l 565 863 q 482 939 553 939 q 397 863 410 939 l 301 863 z "},"Ā":{"ha":964,"x_min":36,"x_max":926,"o":"m 36 97 l 129 97 l 346 692 l 261 692 l 261 789 l 701 789 l 701 692 l 615 692 l 838 97 l 926 97 l 926 0 l 578 0 l 578 97 l 676 97 l 608 296 l 338 296 l 271 97 l 365 97 l 365 0 l 36 0 l 36 97 m 581 389 l 479 690 l 471 690 l 367 389 l 581 389 m 324 972 l 640 972 l 640 893 l 324 893 l 324 972 z "},"Ą":{"ha":964,"x_min":36,"x_max":926,"o":"m 36 97 l 129 97 l 346 692 l 261 692 l 261 789 l 701 789 l 701 692 l 615 692 l 838 97 l 926 97 l 926 0 l 578 0 l 578 97 l 676 97 l 608 296 l 338 296 l 271 97 l 365 97 l 365 0 l 36 0 l 36 97 m 581 389 l 479 690 l 471 690 l 367 389 l 581 389 m 779 -246 q 695 -216 728 -246 q 663 -140 663 -186 q 743 0 663 -72 l 807 0 q 761 -60 776 -33 q 746 -111 746 -86 q 764 -154 746 -139 q 813 -169 782 -169 q 874 -154 844 -169 l 874 -221 q 779 -246 825 -246 z "},"Å":{"ha":964,"x_min":36,"x_max":926,"o":"m 36 97 l 129 97 l 346 692 l 261 692 l 261 789 l 701 789 l 701 692 l 615 692 l 838 97 l 926 97 l 926 0 l 578 0 l 578 97 l 676 97 l 608 296 l 338 296 l 271 97 l 365 97 l 365 0 l 36 0 l 36 97 m 581 389 l 479 690 l 471 690 l 367 389 l 581 389 m 482 846 q 397 877 429 846 q 365 957 365 908 q 397 1036 365 1006 q 482 1067 428 1067 q 567 1036 536 1067 q 599 957 599 1006 q 567 877 599 908 q 482 846 535 846 m 482 896 q 526 913 510 896 q 543 957 543 931 q 527 1001 543 985 q 482 1018 511 1018 q 436 1001 453 1018 q 419 957 419 985 q 436 913 419 931 q 482 896 453 896 z "},"Ǻ":{"ha":964,"x_min":36,"x_max":926,"o":"m 36 97 l 129 97 l 346 692 l 261 692 l 261 789 l 701 789 l 701 692 l 615 692 l 838 97 l 926 97 l 926 0 l 578 0 l 578 97 l 676 97 l 608 296 l 338 296 l 271 97 l 365 97 l 365 0 l 36 0 l 36 97 m 581 389 l 479 690 l 471 690 l 367 389 l 581 389 m 482 846 q 397 877 429 846 q 365 957 365 908 q 397 1036 365 1006 q 482 1067 428 1067 q 567 1036 536 1067 q 599 957 599 1006 q 567 877 599 908 q 482 846 535 846 m 482 896 q 526 913 510 896 q 543 957 543 931 q 527 1001 543 985 q 482 1018 511 1018 q 436 1001 453 1018 q 419 957 419 985 q 436 913 419 931 q 482 896 453 896 m 510 1333 l 653 1333 l 524 1118 l 440 1118 l 510 1333 z "},"Ã":{"ha":964,"x_min":36,"x_max":926,"o":"m 36 97 l 129 97 l 346 692 l 261 692 l 261 789 l 701 789 l 701 692 l 615 692 l 838 97 l 926 97 l 926 0 l 578 0 l 578 97 l 676 97 l 608 296 l 338 296 l 271 97 l 365 97 l 365 0 l 36 0 l 36 97 m 581 389 l 479 690 l 471 690 l 367 389 l 581 389 m 574 892 q 524 900 549 892 q 461 924 499 908 q 382 947 403 947 q 333 899 342 947 l 272 899 q 310 1011 278 975 q 394 1047 343 1047 q 435 1041 414 1047 q 475 1027 456 1035 q 501 1017 494 1019 q 579 992 554 992 q 615 1003 601 992 q 633 1043 628 1015 l 692 1043 q 656 931 686 971 q 574 892 626 892 z "},"Æ":{"ha":1356,"x_min":26,"x_max":1283,"o":"m 26 97 l 124 97 l 479 692 l 397 692 l 397 789 l 1231 789 l 1244 531 l 1138 531 l 1125 692 l 775 692 l 789 450 l 997 450 l 990 539 l 1068 539 l 1086 264 l 1008 264 l 1001 354 l 793 354 l 808 97 l 1171 97 l 1160 264 l 1267 264 l 1283 0 l 557 0 l 557 97 l 654 97 l 643 283 l 379 283 l 276 97 l 364 97 l 364 0 l 26 0 l 26 97 m 639 374 l 621 692 l 610 692 l 425 374 l 639 374 z "},"Ǽ":{"ha":1356,"x_min":26,"x_max":1283,"o":"m 26 97 l 124 97 l 479 692 l 397 692 l 397 789 l 1231 789 l 1244 531 l 1138 531 l 1125 692 l 775 692 l 789 450 l 997 450 l 990 539 l 1068 539 l 1086 264 l 1008 264 l 1001 354 l 793 354 l 808 97 l 1171 97 l 1160 264 l 1267 264 l 1283 0 l 557 0 l 557 97 l 654 97 l 643 283 l 379 283 l 276 97 l 364 97 l 364 0 l 26 0 l 26 97 m 639 374 l 621 692 l 610 692 l 425 374 l 639 374 m 817 1110 l 960 1110 l 831 894 l 747 894 l 817 1110 z "},"Ǣ":{"ha":1356,"x_min":26,"x_max":1283,"o":"m 26 97 l 124 97 l 479 692 l 397 692 l 397 789 l 1231 789 l 1244 531 l 1138 531 l 1125 692 l 775 692 l 789 450 l 997 450 l 990 539 l 1068 539 l 1086 264 l 1008 264 l 1001 354 l 793 354 l 808 97 l 1171 97 l 1160 264 l 1267 264 l 1283 0 l 557 0 l 557 97 l 654 97 l 643 283 l 379 283 l 276 97 l 364 97 l 364 0 l 26 0 l 26 97 m 639 374 l 621 692 l 610 692 l 425 374 l 639 374 m 631 972 l 947 972 l 947 893 l 631 893 l 631 972 z "},"B":{"ha":842,"x_min":58,"x_max":790,"o":"m 58 97 l 157 97 l 157 692 l 58 692 l 58 789 l 472 789 q 678 738 608 789 q 749 594 749 688 q 715 485 749 528 q 618 424 681 442 q 747 353 704 406 q 790 224 790 300 q 717 62 790 124 q 493 0 644 0 l 58 0 l 58 97 m 450 463 q 593 581 593 463 q 556 666 593 640 q 432 692 518 692 l 311 692 l 311 463 l 450 463 m 465 97 q 632 235 632 97 q 590 332 632 297 q 461 367 547 367 l 311 367 l 311 97 l 465 97 z "},"Ḃ":{"ha":842,"x_min":58,"x_max":790,"o":"m 58 97 l 157 97 l 157 692 l 58 692 l 58 789 l 472 789 q 678 738 608 789 q 749 594 749 688 q 715 485 749 528 q 618 424 681 442 q 747 353 704 406 q 790 224 790 300 q 717 62 790 124 q 493 0 644 0 l 58 0 l 58 97 m 450 463 q 593 581 593 463 q 556 666 593 640 q 432 692 518 692 l 311 692 l 311 463 l 450 463 m 465 97 q 632 235 632 97 q 590 332 632 297 q 461 367 547 367 l 311 367 l 311 97 l 465 97 m 386 886 q 326 909 350 886 q 303 965 303 932 q 326 1022 303 1000 q 386 1044 349 1044 q 445 1023 422 1044 q 468 965 468 1001 q 447 909 469 932 q 386 886 424 886 z "},"C":{"ha":947,"x_min":63,"x_max":871,"o":"m 871 231 q 728 47 828 107 q 488 -15 629 -14 q 267 36 364 -15 q 117 181 171 88 q 63 394 63 274 q 115 607 63 514 q 262 751 167 700 q 479 803 357 803 q 635 772 567 803 q 744 689 704 742 l 744 789 l 853 789 l 853 536 l 758 533 q 655 655 717 617 q 503 693 593 693 q 353 655 417 693 q 254 549 289 617 q 219 397 219 482 q 255 238 219 307 q 353 132 290 169 q 497 94 417 94 q 656 140 589 94 q 753 279 722 185 l 871 231 z "},"Ć":{"ha":947,"x_min":63,"x_max":871,"o":"m 871 231 q 728 47 828 107 q 488 -15 629 -14 q 267 36 364 -15 q 117 181 171 88 q 63 394 63 274 q 115 607 63 514 q 262 751 167 700 q 479 803 357 803 q 635 772 567 803 q 744 689 704 742 l 744 789 l 853 789 l 853 536 l 758 533 q 655 655 717 617 q 503 693 593 693 q 353 655 417 693 q 254 549 289 617 q 219 397 219 482 q 255 238 219 307 q 353 132 290 169 q 497 94 417 94 q 656 140 589 94 q 753 279 722 185 l 871 231 m 521 1110 l 664 1110 l 535 894 l 451 894 l 521 1110 z "},"Č":{"ha":947,"x_min":63,"x_max":871,"o":"m 871 231 q 728 47 828 107 q 488 -15 629 -14 q 267 36 364 -15 q 117 181 171 88 q 63 394 63 274 q 115 607 63 514 q 262 751 167 700 q 479 803 357 803 q 635 772 567 803 q 744 689 704 742 l 744 789 l 853 789 l 853 536 l 758 533 q 655 655 717 617 q 503 693 593 693 q 353 655 417 693 q 254 549 289 617 q 219 397 219 482 q 255 238 219 307 q 353 132 290 169 q 497 94 417 94 q 656 140 589 94 q 753 279 722 185 l 871 231 m 314 1088 l 410 1088 l 496 935 l 581 1088 l 671 1088 l 565 867 l 425 867 l 314 1088 z "},"Ç":{"ha":947,"x_min":63,"x_max":871,"o":"m 871 231 q 734 50 829 111 q 504 -15 639 -11 l 486 -79 q 563 -110 538 -86 q 588 -169 588 -135 q 557 -235 588 -214 q 478 -257 526 -257 q 357 -228 418 -257 l 357 -182 q 435 -197 400 -197 q 488 -160 488 -197 q 407 -115 488 -119 l 447 -14 q 247 48 333 -6 q 111 191 160 101 q 63 394 63 281 q 115 607 63 514 q 262 751 167 700 q 479 803 357 803 q 635 772 567 803 q 744 689 704 742 l 744 789 l 853 789 l 853 536 l 758 533 q 655 655 717 617 q 503 693 593 693 q 353 655 417 693 q 254 549 289 617 q 219 397 219 482 q 255 238 219 307 q 353 132 290 169 q 497 94 417 94 q 656 140 589 94 q 753 279 722 185 l 871 231 z "},"Ḉ":{"ha":947,"x_min":63,"x_max":871,"o":"m 535 894 l 451 894 l 521 1110 l 664 1110 l 535 894 m 871 231 q 734 50 829 111 q 504 -15 639 -11 l 486 -79 q 563 -110 538 -86 q 588 -169 588 -135 q 557 -235 588 -214 q 478 -257 526 -257 q 357 -228 418 -257 l 357 -182 q 435 -197 400 -197 q 488 -160 488 -197 q 407 -115 488 -119 l 447 -14 q 247 48 333 -6 q 111 191 160 101 q 63 394 63 281 q 115 607 63 514 q 262 751 167 700 q 479 803 357 803 q 635 772 567 803 q 744 689 704 742 l 744 789 l 853 789 l 853 536 l 758 533 q 655 655 717 617 q 503 693 593 693 q 353 655 417 693 q 254 549 289 617 q 219 397 219 482 q 255 238 219 307 q 353 132 290 169 q 497 94 417 94 q 656 140 589 94 q 753 279 722 185 l 871 231 z "},"Ĉ":{"ha":947,"x_min":63,"x_max":871,"o":"m 871 231 q 728 47 828 107 q 488 -15 629 -14 q 267 36 364 -15 q 117 181 171 88 q 63 394 63 274 q 115 607 63 514 q 262 751 167 700 q 479 803 357 803 q 635 772 567 803 q 744 689 704 742 l 744 789 l 853 789 l 853 536 l 758 533 q 655 655 717 617 q 503 693 593 693 q 353 655 417 693 q 254 549 289 617 q 219 397 219 482 q 255 238 219 307 q 353 132 290 169 q 497 94 417 94 q 656 140 589 94 q 753 279 722 185 l 871 231 m 422 1094 l 565 1094 l 681 868 l 586 868 l 493 1038 l 400 868 l 306 868 l 422 1094 z "},"Ċ":{"ha":947,"x_min":63,"x_max":871,"o":"m 871 231 q 728 47 828 107 q 488 -15 629 -14 q 267 36 364 -15 q 117 181 171 88 q 63 394 63 274 q 115 607 63 514 q 262 751 167 700 q 479 803 357 803 q 635 772 567 803 q 744 689 704 742 l 744 789 l 853 789 l 853 536 l 758 533 q 655 655 717 617 q 503 693 593 693 q 353 655 417 693 q 254 549 289 617 q 219 397 219 482 q 255 238 219 307 q 353 132 290 169 q 497 94 417 94 q 656 140 589 94 q 753 279 722 185 l 871 231 m 493 886 q 433 909 457 886 q 410 965 410 932 q 433 1022 410 1000 q 493 1044 456 1044 q 552 1023 529 1044 q 575 965 575 1001 q 553 909 576 932 q 493 886 531 886 z "},"D":{"ha":972,"x_min":60,"x_max":911,"o":"m 60 97 l 157 97 l 157 692 l 60 692 l 60 789 l 501 789 q 726 735 633 789 q 865 594 819 682 q 911 401 911 506 q 865 192 911 282 q 728 51 819 101 q 503 0 636 0 l 60 0 l 60 97 m 481 97 q 684 179 618 97 q 750 399 750 261 q 683 608 750 525 q 485 692 617 692 l 313 692 l 313 97 l 481 97 z "},"Ǳ":{"ha":1781,"x_min":60,"x_max":1714,"o":"m 60 97 l 157 97 l 157 692 l 60 692 l 60 789 l 501 789 q 726 735 633 789 q 865 594 819 682 q 911 401 911 506 q 865 192 911 282 q 728 51 819 101 q 503 0 636 0 l 60 0 l 60 97 m 481 97 q 684 179 618 97 q 750 399 750 261 q 683 608 750 525 q 485 692 617 692 l 313 692 l 313 97 l 481 97 m 1047 90 l 1504 693 l 1172 693 l 1172 518 l 1065 518 l 1065 789 l 1703 789 l 1703 704 l 1243 96 l 1606 96 l 1606 285 l 1714 285 l 1714 0 l 1047 0 l 1047 90 z "},"Ǆ":{"ha":1781,"x_min":60,"x_max":1714,"o":"m 60 97 l 157 97 l 157 692 l 60 692 l 60 789 l 501 789 q 726 735 633 789 q 865 594 819 682 q 911 401 911 506 q 865 192 911 282 q 728 51 819 101 q 503 0 636 0 l 60 0 l 60 97 m 481 97 q 684 179 618 97 q 750 399 750 261 q 683 608 750 525 q 485 692 617 692 l 313 692 l 313 97 l 481 97 m 1047 90 l 1504 693 l 1172 693 l 1172 518 l 1065 518 l 1065 789 l 1703 789 l 1703 704 l 1243 96 l 1606 96 l 1606 285 l 1714 285 l 1714 0 l 1047 0 l 1047 90 m 1210 1088 l 1306 1088 l 1392 935 l 1476 1088 l 1567 1088 l 1461 867 l 1321 867 l 1210 1088 z "},"Ð":{"ha":981,"x_min":60,"x_max":911,"o":"m 501 789 q 726 735 633 789 q 865 594 819 682 q 911 401 911 506 q 865 192 911 282 q 728 51 819 101 q 503 0 636 0 l 60 0 l 60 97 l 157 97 l 157 356 l 60 356 l 60 450 l 157 450 l 157 692 l 60 692 l 60 789 l 501 789 m 481 97 q 684 179 618 97 q 750 399 750 261 q 683 608 750 525 q 485 692 617 692 l 313 692 l 313 450 l 411 450 l 411 356 l 313 356 l 313 97 l 481 97 z "},"Ď":{"ha":972,"x_min":60,"x_max":911,"o":"m 60 97 l 157 97 l 157 692 l 60 692 l 60 789 l 501 789 q 726 735 633 789 q 865 594 819 682 q 911 401 911 506 q 865 192 911 282 q 728 51 819 101 q 503 0 636 0 l 60 0 l 60 97 m 481 97 q 684 179 618 97 q 750 399 750 261 q 683 608 750 525 q 485 692 617 692 l 313 692 l 313 97 l 481 97 m 342 1088 l 438 1088 l 524 935 l 608 1088 l 699 1088 l 593 867 l 453 867 l 342 1088 z "},"Đ":{"ha":981,"x_min":60,"x_max":911,"o":"m 501 789 q 726 735 633 789 q 865 594 819 682 q 911 401 911 506 q 865 192 911 282 q 728 51 819 101 q 503 0 636 0 l 60 0 l 60 97 l 157 97 l 157 356 l 60 356 l 60 450 l 157 450 l 157 692 l 60 692 l 60 789 l 501 789 m 481 97 q 684 179 618 97 q 750 399 750 261 q 683 608 750 525 q 485 692 617 692 l 313 692 l 313 450 l 411 450 l 411 356 l 313 356 l 313 97 l 481 97 z "},"Ḋ":{"ha":972,"x_min":60,"x_max":911,"o":"m 60 97 l 157 97 l 157 692 l 60 692 l 60 789 l 501 789 q 726 735 633 789 q 865 594 819 682 q 911 401 911 506 q 865 192 911 282 q 728 51 819 101 q 503 0 636 0 l 60 0 l 60 97 m 481 97 q 684 179 618 97 q 750 399 750 261 q 683 608 750 525 q 485 692 617 692 l 313 692 l 313 97 l 481 97 m 521 886 q 461 909 485 886 q 438 965 438 932 q 460 1022 438 1000 q 521 1044 483 1044 q 580 1023 557 1044 q 603 965 603 1001 q 581 909 604 932 q 521 886 558 886 z "},"Ḍ":{"ha":972,"x_min":60,"x_max":911,"o":"m 60 97 l 157 97 l 157 692 l 60 692 l 60 789 l 501 789 q 726 735 633 789 q 865 594 819 682 q 911 401 911 506 q 865 192 911 282 q 728 51 819 101 q 503 0 636 0 l 60 0 l 60 97 m 481 97 q 684 179 618 97 q 750 399 750 261 q 683 608 750 525 q 485 692 617 692 l 313 692 l 313 97 l 481 97 m 521 -219 q 464 -199 486 -219 q 442 -146 442 -178 q 464 -93 442 -114 q 521 -72 486 -72 q 578 -93 557 -72 q 600 -149 600 -114 q 578 -199 600 -178 q 521 -219 556 -219 z "},"Ḏ":{"ha":972,"x_min":60,"x_max":911,"o":"m 60 97 l 157 97 l 157 692 l 60 692 l 60 789 l 501 789 q 726 735 633 789 q 865 594 819 682 q 911 401 911 506 q 865 192 911 282 q 728 51 819 101 q 503 0 636 0 l 60 0 l 60 97 m 481 97 q 684 179 618 97 q 750 399 750 261 q 683 608 750 525 q 485 692 617 692 l 313 692 l 313 97 l 481 97 m 363 -69 l 679 -69 l 679 -149 l 363 -149 l 363 -69 z "},"ǲ":{"ha":1547,"x_min":60,"x_max":1494,"o":"m 60 97 l 157 97 l 157 692 l 60 692 l 60 789 l 501 789 q 726 735 633 789 q 865 594 819 682 q 911 401 911 506 q 865 192 911 282 q 728 51 819 101 q 503 0 636 0 l 60 0 l 60 97 m 481 97 q 684 179 618 97 q 750 399 750 261 q 683 608 750 525 q 485 692 617 692 l 313 692 l 313 97 l 481 97 m 992 82 l 1325 463 l 1090 463 l 1090 354 l 997 354 l 997 550 l 1486 550 l 1486 464 l 1150 85 l 1400 85 l 1400 207 l 1494 207 l 1494 0 l 992 0 l 992 82 z "},"ǅ":{"ha":1589,"x_min":60,"x_max":1536,"o":"m 60 97 l 157 97 l 157 692 l 60 692 l 60 789 l 501 789 q 726 735 633 789 q 865 594 819 682 q 911 401 911 506 q 865 192 911 282 q 728 51 819 101 q 503 0 636 0 l 60 0 l 60 97 m 481 97 q 684 179 618 97 q 750 399 750 261 q 683 608 750 525 q 485 692 617 692 l 313 692 l 313 97 l 481 97 m 1033 82 l 1367 463 l 1132 463 l 1132 354 l 1039 354 l 1039 550 l 1528 550 l 1528 464 l 1192 85 l 1442 85 l 1442 207 l 1536 207 l 1536 0 l 1033 0 l 1033 82 m 1113 849 l 1208 849 l 1294 696 l 1379 849 l 1469 849 l 1364 628 l 1224 628 l 1113 849 z "},"E":{"ha":840,"x_min":58,"x_max":772,"o":"m 58 97 l 157 97 l 157 692 l 58 692 l 58 789 l 765 789 l 765 542 l 658 542 l 658 692 l 313 692 l 313 454 l 514 454 l 514 543 l 592 543 l 592 269 l 515 269 l 515 358 l 313 358 l 313 97 l 665 97 l 665 256 l 772 256 l 772 0 l 58 0 l 58 97 z "},"É":{"ha":840,"x_min":58,"x_max":772,"o":"m 58 97 l 157 97 l 157 692 l 58 692 l 58 789 l 765 789 l 765 542 l 658 542 l 658 692 l 313 692 l 313 454 l 514 454 l 514 543 l 592 543 l 592 269 l 515 269 l 515 358 l 313 358 l 313 97 l 665 97 l 665 256 l 772 256 l 772 0 l 58 0 l 58 97 m 475 1110 l 618 1110 l 489 894 l 406 894 l 475 1110 z "},"Ĕ":{"ha":840,"x_min":58,"x_max":772,"o":"m 58 97 l 157 97 l 157 692 l 58 692 l 58 789 l 765 789 l 765 542 l 658 542 l 658 692 l 313 692 l 313 454 l 514 454 l 514 543 l 592 543 l 592 269 l 515 269 l 515 358 l 313 358 l 313 97 l 665 97 l 665 256 l 772 256 l 772 0 l 58 0 l 58 97 m 443 874 q 322 915 368 874 q 271 1032 276 957 l 361 1032 q 447 951 376 951 q 504 972 482 951 q 532 1032 526 993 l 624 1032 q 569 915 617 956 q 443 874 522 874 z "},"Ě":{"ha":840,"x_min":58,"x_max":772,"o":"m 58 97 l 157 97 l 157 692 l 58 692 l 58 789 l 765 789 l 765 542 l 658 542 l 658 692 l 313 692 l 313 454 l 514 454 l 514 543 l 592 543 l 592 269 l 515 269 l 515 358 l 313 358 l 313 97 l 665 97 l 665 256 l 772 256 l 772 0 l 58 0 l 58 97 m 268 1088 l 364 1088 l 450 935 l 535 1088 l 625 1088 l 519 867 l 379 867 l 268 1088 z "},"Ȩ":{"ha":840,"x_min":58,"x_max":772,"o":"m 58 97 l 157 97 l 157 692 l 58 692 l 58 789 l 765 789 l 765 542 l 658 542 l 658 692 l 313 692 l 313 454 l 514 454 l 514 543 l 592 543 l 592 269 l 515 269 l 515 358 l 313 358 l 313 97 l 665 97 l 665 256 l 772 256 l 772 0 l 58 0 l 58 97 m 456 -257 q 335 -228 396 -257 l 335 -182 q 413 -197 378 -197 q 465 -160 465 -197 q 385 -115 465 -119 l 431 0 l 486 0 l 464 -79 q 540 -110 515 -86 q 565 -169 565 -135 q 535 -235 565 -214 q 456 -257 504 -257 z "},"Ḝ":{"ha":840,"x_min":58,"x_max":772,"o":"m 58 97 l 157 97 l 157 692 l 58 692 l 58 789 l 765 789 l 765 542 l 658 542 l 658 692 l 313 692 l 313 454 l 514 454 l 514 543 l 592 543 l 592 269 l 515 269 l 515 358 l 313 358 l 313 97 l 665 97 l 665 256 l 772 256 l 772 0 l 58 0 l 58 97 m 456 -257 q 335 -228 396 -257 l 335 -182 q 413 -197 378 -197 q 465 -160 465 -197 q 385 -115 465 -119 l 431 0 l 486 0 l 464 -79 q 540 -110 515 -86 q 565 -169 565 -135 q 535 -235 565 -214 q 456 -257 504 -257 m 443 874 q 322 915 368 874 q 271 1032 276 957 l 361 1032 q 447 951 376 951 q 504 972 482 951 q 532 1032 526 993 l 624 1032 q 569 915 617 956 q 443 874 522 874 z "},"Ê":{"ha":840,"x_min":58,"x_max":772,"o":"m 58 97 l 157 97 l 157 692 l 58 692 l 58 789 l 765 789 l 765 542 l 658 542 l 658 692 l 313 692 l 313 454 l 514 454 l 514 543 l 592 543 l 592 269 l 515 269 l 515 358 l 313 358 l 313 97 l 665 97 l 665 256 l 772 256 l 772 0 l 58 0 l 58 97 m 376 1094 l 519 1094 l 635 868 l 540 868 l 447 1038 l 354 868 l 260 868 l 376 1094 z "},"Ế":{"ha":840,"x_min":58,"x_max":772,"o":"m 58 97 l 157 97 l 157 692 l 58 692 l 58 789 l 765 789 l 765 542 l 658 542 l 658 692 l 313 692 l 313 454 l 514 454 l 514 543 l 592 543 l 592 269 l 515 269 l 515 358 l 313 358 l 313 97 l 665 97 l 665 256 l 772 256 l 772 0 l 58 0 l 58 97 m 654 1165 l 772 1165 l 671 996 l 594 996 l 654 1165 m 379 1050 l 515 1050 l 632 868 l 536 868 l 447 992 l 358 868 l 263 868 l 379 1050 z "},"Ệ":{"ha":840,"x_min":58,"x_max":772,"o":"m 58 97 l 157 97 l 157 692 l 58 692 l 58 789 l 765 789 l 765 542 l 658 542 l 658 692 l 313 692 l 313 454 l 514 454 l 514 543 l 592 543 l 592 269 l 515 269 l 515 358 l 313 358 l 313 97 l 665 97 l 665 256 l 772 256 l 772 0 l 58 0 l 58 97 m 376 1094 l 519 1094 l 635 868 l 540 868 l 447 1038 l 354 868 l 260 868 l 376 1094 m 457 -219 q 400 -199 422 -219 q 378 -146 378 -178 q 400 -93 378 -114 q 457 -72 422 -72 q 515 -93 493 -72 q 536 -149 536 -114 q 514 -199 536 -178 q 457 -219 492 -219 z "},"Ề":{"ha":840,"x_min":58,"x_max":772,"o":"m 58 97 l 157 97 l 157 692 l 58 692 l 58 789 l 765 789 l 765 542 l 658 542 l 658 692 l 313 692 l 313 454 l 514 454 l 514 543 l 592 543 l 592 269 l 515 269 l 515 358 l 313 358 l 313 97 l 665 97 l 665 256 l 772 256 l 772 0 l 58 0 l 58 97 m 628 996 l 525 1165 l 643 1165 l 703 996 l 628 996 m 379 1050 l 515 1050 l 632 868 l 536 868 l 447 992 l 358 868 l 263 868 l 379 1050 z "},"Ể":{"ha":840,"x_min":58,"x_max":772,"o":"m 58 97 l 157 97 l 157 692 l 58 692 l 58 789 l 765 789 l 765 542 l 658 542 l 658 692 l 313 692 l 313 454 l 514 454 l 514 543 l 592 543 l 592 269 l 515 269 l 515 358 l 313 358 l 313 97 l 665 97 l 665 256 l 772 256 l 772 0 l 58 0 l 58 97 m 586 1040 q 632 1092 632 1056 q 619 1120 632 1110 q 582 1131 606 1131 q 515 1111 550 1131 l 494 1172 q 597 1204 539 1204 q 684 1175 651 1204 q 717 1100 717 1146 q 606 979 717 1007 l 586 1040 m 379 1050 l 515 1050 l 632 868 l 536 868 l 447 992 l 358 868 l 263 868 l 379 1050 z "},"Ễ":{"ha":840,"x_min":58,"x_max":772,"o":"m 58 97 l 157 97 l 157 692 l 58 692 l 58 789 l 765 789 l 765 542 l 658 542 l 658 692 l 313 692 l 313 454 l 514 454 l 514 543 l 592 543 l 592 269 l 515 269 l 515 358 l 313 358 l 313 97 l 665 97 l 665 256 l 772 256 l 772 0 l 58 0 l 58 97 m 540 1092 q 495 1099 518 1092 q 435 1121 472 1106 q 354 1146 382 1146 q 306 1096 314 1146 l 244 1096 q 281 1202 250 1168 q 358 1236 311 1236 q 399 1229 378 1236 q 457 1207 421 1222 q 490 1194 461 1206 q 538 1182 518 1182 q 592 1232 582 1182 l 650 1232 q 540 1092 639 1092 m 379 1050 l 515 1050 l 632 868 l 536 868 l 447 992 l 358 868 l 263 868 l 379 1050 z "},"Ȅ":{"ha":840,"x_min":58,"x_max":772,"o":"m 58 97 l 157 97 l 157 692 l 58 692 l 58 789 l 765 789 l 765 542 l 658 542 l 658 692 l 313 692 l 313 454 l 514 454 l 514 543 l 592 543 l 592 269 l 515 269 l 515 358 l 313 358 l 313 97 l 665 97 l 665 256 l 772 256 l 772 0 l 58 0 l 58 97 m 153 1117 l 294 1117 l 368 894 l 285 894 l 153 1117 m 369 1117 l 511 1117 l 583 894 l 500 894 l 369 1117 z "},"Ë":{"ha":840,"x_min":58,"x_max":772,"o":"m 58 97 l 157 97 l 157 692 l 58 692 l 58 789 l 765 789 l 765 542 l 658 542 l 658 692 l 313 692 l 313 454 l 514 454 l 514 543 l 592 543 l 592 269 l 515 269 l 515 358 l 313 358 l 313 97 l 665 97 l 665 256 l 772 256 l 772 0 l 58 0 l 58 97 m 301 883 q 244 903 267 883 q 222 958 222 924 q 244 1013 222 993 q 301 1033 267 1033 q 358 1013 336 1033 q 379 958 379 993 q 358 903 379 924 q 301 883 336 883 m 593 883 q 537 903 558 883 q 515 958 515 924 q 537 1013 515 993 q 593 1033 558 1033 q 650 1013 628 1033 q 672 958 672 993 q 650 903 672 924 q 593 883 628 883 z "},"Ė":{"ha":840,"x_min":58,"x_max":772,"o":"m 58 97 l 157 97 l 157 692 l 58 692 l 58 789 l 765 789 l 765 542 l 658 542 l 658 692 l 313 692 l 313 454 l 514 454 l 514 543 l 592 543 l 592 269 l 515 269 l 515 358 l 313 358 l 313 97 l 665 97 l 665 256 l 772 256 l 772 0 l 58 0 l 58 97 m 447 886 q 388 909 411 886 q 364 965 364 932 q 387 1022 364 1000 q 447 1044 410 1044 q 506 1023 483 1044 q 529 965 529 1001 q 508 909 531 932 q 447 886 485 886 z "},"Ẹ":{"ha":840,"x_min":58,"x_max":772,"o":"m 58 97 l 157 97 l 157 692 l 58 692 l 58 789 l 765 789 l 765 542 l 658 542 l 658 692 l 313 692 l 313 454 l 514 454 l 514 543 l 592 543 l 592 269 l 515 269 l 515 358 l 313 358 l 313 97 l 665 97 l 665 256 l 772 256 l 772 0 l 58 0 l 58 97 m 457 -219 q 400 -199 422 -219 q 378 -146 378 -178 q 400 -93 378 -114 q 457 -72 422 -72 q 515 -93 493 -72 q 536 -149 536 -114 q 514 -199 536 -178 q 457 -219 492 -219 z "},"È":{"ha":840,"x_min":58,"x_max":772,"o":"m 58 97 l 157 97 l 157 692 l 58 692 l 58 789 l 765 789 l 765 542 l 658 542 l 658 692 l 313 692 l 313 454 l 514 454 l 514 543 l 592 543 l 592 269 l 515 269 l 515 358 l 313 358 l 313 97 l 665 97 l 665 256 l 772 256 l 772 0 l 58 0 l 58 97 m 276 1110 l 418 1110 l 488 894 l 404 894 l 276 1110 z "},"Ẻ":{"ha":840,"x_min":58,"x_max":772,"o":"m 58 97 l 157 97 l 157 692 l 58 692 l 58 789 l 765 789 l 765 542 l 658 542 l 658 692 l 313 692 l 313 454 l 514 454 l 514 543 l 592 543 l 592 269 l 515 269 l 515 358 l 313 358 l 313 97 l 665 97 l 665 256 l 772 256 l 772 0 l 58 0 l 58 97 m 425 910 q 471 961 471 925 q 458 990 471 979 q 421 1000 444 1000 q 354 981 389 1000 l 333 1042 q 436 1074 378 1074 q 523 1044 490 1074 q 556 969 556 1015 q 444 849 556 876 l 425 910 z "},"Ȇ":{"ha":840,"x_min":58,"x_max":772,"o":"m 58 97 l 157 97 l 157 692 l 58 692 l 58 789 l 765 789 l 765 542 l 658 542 l 658 692 l 313 692 l 313 454 l 514 454 l 514 543 l 592 543 l 592 269 l 515 269 l 515 358 l 313 358 l 313 97 l 665 97 l 665 256 l 772 256 l 772 0 l 58 0 l 58 97 m 267 863 q 321 988 272 943 q 447 1033 369 1033 q 573 988 525 1033 q 626 863 621 943 l 531 863 q 447 939 518 939 q 363 863 375 939 l 267 863 z "},"Ē":{"ha":840,"x_min":58,"x_max":772,"o":"m 58 97 l 157 97 l 157 692 l 58 692 l 58 789 l 765 789 l 765 542 l 658 542 l 658 692 l 313 692 l 313 454 l 514 454 l 514 543 l 592 543 l 592 269 l 515 269 l 515 358 l 313 358 l 313 97 l 665 97 l 665 256 l 772 256 l 772 0 l 58 0 l 58 97 m 289 972 l 606 972 l 606 893 l 289 893 l 289 972 z "},"Ḗ":{"ha":840,"x_min":58,"x_max":772,"o":"m 58 97 l 157 97 l 157 692 l 58 692 l 58 789 l 765 789 l 765 542 l 658 542 l 658 692 l 313 692 l 313 454 l 514 454 l 514 543 l 592 543 l 592 269 l 515 269 l 515 358 l 313 358 l 313 97 l 665 97 l 665 256 l 772 256 l 772 0 l 58 0 l 58 97 m 289 972 l 606 972 l 606 893 l 289 893 l 289 972 m 475 1283 l 618 1283 l 489 1068 l 406 1068 l 475 1283 z "},"Ḕ":{"ha":840,"x_min":58,"x_max":772,"o":"m 58 97 l 157 97 l 157 692 l 58 692 l 58 789 l 765 789 l 765 542 l 658 542 l 658 692 l 313 692 l 313 454 l 514 454 l 514 543 l 592 543 l 592 269 l 515 269 l 515 358 l 313 358 l 313 97 l 665 97 l 665 256 l 772 256 l 772 0 l 58 0 l 58 97 m 289 972 l 606 972 l 606 893 l 289 893 l 289 972 m 276 1283 l 418 1283 l 488 1068 l 404 1068 l 276 1283 z "},"Ę":{"ha":840,"x_min":58,"x_max":772,"o":"m 58 97 l 157 97 l 157 692 l 58 692 l 58 789 l 765 789 l 765 542 l 658 542 l 658 692 l 313 692 l 313 454 l 514 454 l 514 543 l 592 543 l 592 269 l 515 269 l 515 358 l 313 358 l 313 97 l 665 97 l 665 256 l 772 256 l 772 0 l 58 0 l 58 97 m 664 -246 q 580 -216 613 -246 q 547 -140 547 -186 q 628 0 547 -72 l 692 0 q 646 -60 661 -33 q 631 -111 631 -86 q 649 -154 631 -139 q 697 -169 667 -169 q 758 -154 729 -169 l 758 -221 q 664 -246 710 -246 z "},"Ẽ":{"ha":840,"x_min":58,"x_max":772,"o":"m 58 97 l 157 97 l 157 692 l 58 692 l 58 789 l 765 789 l 765 542 l 658 542 l 658 692 l 313 692 l 313 454 l 514 454 l 514 543 l 592 543 l 592 269 l 515 269 l 515 358 l 313 358 l 313 97 l 665 97 l 665 256 l 772 256 l 772 0 l 58 0 l 58 97 m 539 892 q 489 900 514 892 q 426 924 464 908 q 347 947 368 947 q 299 899 307 947 l 238 899 q 276 1011 243 975 q 360 1047 308 1047 q 400 1041 379 1047 q 440 1027 421 1035 q 467 1017 460 1019 q 544 992 519 992 q 580 1003 567 992 q 599 1043 593 1015 l 657 1043 q 622 931 651 971 q 539 892 592 892 z "},"F":{"ha":785,"x_min":58,"x_max":756,"o":"m 58 97 l 157 97 l 157 692 l 58 692 l 58 789 l 756 789 l 756 536 l 649 536 l 649 692 l 311 692 l 311 457 l 508 457 l 508 539 l 588 539 l 588 272 l 510 272 l 510 358 l 311 358 l 311 97 l 414 97 l 414 0 l 58 0 l 58 97 z "},"Ḟ":{"ha":785,"x_min":58,"x_max":756,"o":"m 58 97 l 157 97 l 157 692 l 58 692 l 58 789 l 756 789 l 756 536 l 649 536 l 649 692 l 311 692 l 311 457 l 508 457 l 508 539 l 588 539 l 588 272 l 510 272 l 510 358 l 311 358 l 311 97 l 414 97 l 414 0 l 58 0 l 58 97 m 428 886 q 368 909 392 886 q 344 965 344 932 q 367 1022 344 1000 q 428 1044 390 1044 q 487 1023 464 1044 q 510 965 510 1001 q 488 909 511 932 q 428 886 465 886 z "},"G":{"ha":974,"x_min":61,"x_max":906,"o":"m 906 410 l 906 363 q 797 85 906 185 q 500 -14 689 -14 q 267 38 367 -14 q 115 182 168 89 q 61 396 61 275 q 115 608 61 515 q 267 752 169 701 q 489 803 364 803 q 644 774 576 803 q 756 694 711 746 l 756 789 l 869 789 l 869 532 l 771 532 q 668 653 735 611 q 511 694 601 694 q 302 615 379 694 q 225 401 225 536 q 301 178 225 260 q 506 96 376 96 q 683 151 614 99 q 757 308 751 203 l 600 308 l 600 410 l 906 410 z "},"Ǵ":{"ha":974,"x_min":61,"x_max":906,"o":"m 906 410 l 906 363 q 797 85 906 185 q 500 -14 689 -14 q 267 38 367 -14 q 115 182 168 89 q 61 396 61 275 q 115 608 61 515 q 267 752 169 701 q 489 803 364 803 q 644 774 576 803 q 756 694 711 746 l 756 789 l 869 789 l 869 532 l 771 532 q 668 653 735 611 q 511 694 601 694 q 302 615 379 694 q 225 401 225 536 q 301 178 225 260 q 506 96 376 96 q 683 151 614 99 q 757 308 751 203 l 600 308 l 600 410 l 906 410 m 533 1110 l 676 1110 l 547 894 l 464 894 l 533 1110 z "},"Ğ":{"ha":974,"x_min":61,"x_max":906,"o":"m 906 410 l 906 363 q 797 85 906 185 q 500 -14 689 -14 q 267 38 367 -14 q 115 182 168 89 q 61 396 61 275 q 115 608 61 515 q 267 752 169 701 q 489 803 364 803 q 644 774 576 803 q 756 694 711 746 l 756 789 l 869 789 l 869 532 l 771 532 q 668 653 735 611 q 511 694 601 694 q 302 615 379 694 q 225 401 225 536 q 301 178 225 260 q 506 96 376 96 q 683 151 614 99 q 757 308 751 203 l 600 308 l 600 410 l 906 410 m 501 874 q 381 915 426 874 q 329 1032 335 957 l 419 1032 q 506 951 435 951 q 563 972 540 951 q 590 1032 585 993 l 682 1032 q 628 915 675 956 q 501 874 581 874 z "},"Ǧ":{"ha":974,"x_min":61,"x_max":906,"o":"m 906 410 l 906 363 q 797 85 906 185 q 500 -14 689 -14 q 267 38 367 -14 q 115 182 168 89 q 61 396 61 275 q 115 608 61 515 q 267 752 169 701 q 489 803 364 803 q 644 774 576 803 q 756 694 711 746 l 756 789 l 869 789 l 869 532 l 771 532 q 668 653 735 611 q 511 694 601 694 q 302 615 379 694 q 225 401 225 536 q 301 178 225 260 q 506 96 376 96 q 683 151 614 99 q 757 308 751 203 l 600 308 l 600 410 l 906 410 m 326 1088 l 422 1088 l 508 935 l 593 1088 l 683 1088 l 578 867 l 438 867 l 326 1088 z "},"Ĝ":{"ha":974,"x_min":61,"x_max":906,"o":"m 906 410 l 906 363 q 797 85 906 185 q 500 -14 689 -14 q 267 38 367 -14 q 115 182 168 89 q 61 396 61 275 q 115 608 61 515 q 267 752 169 701 q 489 803 364 803 q 644 774 576 803 q 756 694 711 746 l 756 789 l 869 789 l 869 532 l 771 532 q 668 653 735 611 q 511 694 601 694 q 302 615 379 694 q 225 401 225 536 q 301 178 225 260 q 506 96 376 96 q 683 151 614 99 q 757 308 751 203 l 600 308 l 600 410 l 906 410 m 435 1094 l 578 1094 l 693 868 l 599 868 l 506 1038 l 413 868 l 318 868 l 435 1094 z "},"Ģ":{"ha":974,"x_min":61,"x_max":906,"o":"m 906 410 l 906 363 q 797 85 906 185 q 500 -14 689 -14 q 267 38 367 -14 q 115 182 168 89 q 61 396 61 275 q 115 608 61 515 q 267 752 169 701 q 489 803 364 803 q 644 774 576 803 q 756 694 711 746 l 756 789 l 869 789 l 869 532 l 771 532 q 668 653 735 611 q 511 694 601 694 q 302 615 379 694 q 225 401 225 536 q 301 178 225 260 q 506 96 376 96 q 683 151 614 99 q 757 308 751 203 l 600 308 l 600 410 l 906 410 m 425 -306 q 486 -276 467 -299 q 506 -207 506 -253 l 424 -207 l 424 -72 l 578 -72 l 578 -200 q 541 -318 578 -278 q 425 -358 504 -358 l 425 -306 z "},"Ġ":{"ha":974,"x_min":61,"x_max":906,"o":"m 906 410 l 906 363 q 797 85 906 185 q 500 -14 689 -14 q 267 38 367 -14 q 115 182 168 89 q 61 396 61 275 q 115 608 61 515 q 267 752 169 701 q 489 803 364 803 q 644 774 576 803 q 756 694 711 746 l 756 789 l 869 789 l 869 532 l 771 532 q 668 653 735 611 q 511 694 601 694 q 302 615 379 694 q 225 401 225 536 q 301 178 225 260 q 506 96 376 96 q 683 151 614 99 q 757 308 751 203 l 600 308 l 600 410 l 906 410 m 506 886 q 446 909 469 886 q 422 965 422 932 q 445 1022 422 1000 q 506 1044 468 1044 q 565 1023 542 1044 q 588 965 588 1001 q 566 909 589 932 q 506 886 543 886 z "},"Ḡ":{"ha":974,"x_min":61,"x_max":906,"o":"m 906 410 l 906 363 q 797 85 906 185 q 500 -14 689 -14 q 267 38 367 -14 q 115 182 168 89 q 61 396 61 275 q 115 608 61 515 q 267 752 169 701 q 489 803 364 803 q 644 774 576 803 q 756 694 711 746 l 756 789 l 869 789 l 869 532 l 771 532 q 668 653 735 611 q 511 694 601 694 q 302 615 379 694 q 225 401 225 536 q 301 178 225 260 q 506 96 376 96 q 683 151 614 99 q 757 308 751 203 l 600 308 l 600 410 l 906 410 m 347 972 l 664 972 l 664 893 l 347 893 l 347 972 z "},"H":{"ha":992,"x_min":58,"x_max":935,"o":"m 58 97 l 157 97 l 157 692 l 58 692 l 58 789 l 410 789 l 410 692 l 311 692 l 311 453 l 682 453 l 682 692 l 582 692 l 582 789 l 935 789 l 935 692 l 836 692 l 836 97 l 935 97 l 935 0 l 582 0 l 582 97 l 682 97 l 682 356 l 311 356 l 311 97 l 410 97 l 410 0 l 58 0 l 58 97 z "},"Ħ":{"ha":992,"x_min":58,"x_max":935,"o":"m 836 692 l 836 611 l 922 611 l 922 539 l 836 539 l 836 97 l 935 97 l 935 0 l 582 0 l 582 97 l 682 97 l 682 356 l 311 356 l 311 97 l 410 97 l 410 0 l 58 0 l 58 97 l 157 97 l 157 539 l 75 539 l 75 611 l 157 611 l 157 692 l 58 692 l 58 789 l 410 789 l 410 692 l 311 692 l 311 611 l 682 611 l 682 692 l 582 692 l 582 789 l 935 789 l 935 692 l 836 692 m 682 539 l 311 539 l 311 453 l 682 453 l 682 539 z "},"Ḫ":{"ha":992,"x_min":58,"x_max":935,"o":"m 58 97 l 157 97 l 157 692 l 58 692 l 58 789 l 410 789 l 410 692 l 311 692 l 311 453 l 682 453 l 682 692 l 582 692 l 582 789 l 935 789 l 935 692 l 836 692 l 836 97 l 935 97 l 935 0 l 582 0 l 582 97 l 682 97 l 682 356 l 311 356 l 311 97 l 410 97 l 410 0 l 58 0 l 58 97 m 499 -231 q 378 -189 424 -231 q 326 -72 332 -147 l 417 -72 q 503 -153 432 -153 q 560 -132 538 -153 q 588 -72 582 -111 l 679 -72 q 625 -190 672 -149 q 499 -231 578 -231 z "},"Ȟ":{"ha":992,"x_min":58,"x_max":935,"o":"m 58 97 l 157 97 l 157 692 l 58 692 l 58 789 l 410 789 l 410 692 l 311 692 l 311 453 l 682 453 l 682 692 l 582 692 l 582 789 l 935 789 l 935 692 l 836 692 l 836 97 l 935 97 l 935 0 l 582 0 l 582 97 l 682 97 l 682 356 l 311 356 l 311 97 l 410 97 l 410 0 l 58 0 l 58 97 m 321 1088 l 417 1088 l 503 935 l 588 1088 l 678 1088 l 572 867 l 432 867 l 321 1088 z "},"Ĥ":{"ha":992,"x_min":58,"x_max":935,"o":"m 58 97 l 157 97 l 157 692 l 58 692 l 58 789 l 410 789 l 410 692 l 311 692 l 311 453 l 682 453 l 682 692 l 582 692 l 582 789 l 935 789 l 935 692 l 836 692 l 836 97 l 935 97 l 935 0 l 582 0 l 582 97 l 682 97 l 682 356 l 311 356 l 311 97 l 410 97 l 410 0 l 58 0 l 58 97 m 429 1094 l 572 1094 l 688 868 l 593 868 l 500 1038 l 407 868 l 313 868 l 429 1094 z "},"Ḥ":{"ha":992,"x_min":58,"x_max":935,"o":"m 58 97 l 157 97 l 157 692 l 58 692 l 58 789 l 410 789 l 410 692 l 311 692 l 311 453 l 682 453 l 682 692 l 582 692 l 582 789 l 935 789 l 935 692 l 836 692 l 836 97 l 935 97 l 935 0 l 582 0 l 582 97 l 682 97 l 682 356 l 311 356 l 311 97 l 410 97 l 410 0 l 58 0 l 58 97 m 503 -219 q 446 -199 468 -219 q 424 -146 424 -178 q 446 -93 424 -114 q 503 -72 468 -72 q 560 -93 539 -72 q 582 -149 582 -114 q 560 -199 582 -178 q 503 -219 538 -219 z "},"I":{"ha":492,"x_min":69,"x_max":422,"o":"m 69 97 l 168 97 l 168 692 l 69 692 l 69 789 l 422 789 l 422 692 l 324 692 l 324 97 l 422 97 l 422 0 l 69 0 l 69 97 z "},"Ĳ":{"ha":974,"x_min":69,"x_max":936,"o":"m 69 97 l 168 97 l 168 692 l 69 692 l 69 789 l 422 789 l 422 692 l 324 692 l 324 97 l 422 97 l 422 0 l 69 0 l 69 97 m 529 -49 l 601 -49 q 670 -19 651 -49 q 689 69 689 10 l 689 696 l 588 696 l 588 789 l 936 789 l 936 696 l 843 696 l 843 75 q 793 -108 843 -50 q 629 -165 743 -165 l 529 -165 l 529 -49 z "},"Í":{"ha":492,"x_min":69,"x_max":422,"o":"m 69 97 l 168 97 l 168 692 l 69 692 l 69 789 l 422 789 l 422 692 l 324 692 l 324 97 l 422 97 l 422 0 l 69 0 l 69 97 m 275 1110 l 418 1110 l 289 894 l 206 894 l 275 1110 z "},"Ĭ":{"ha":492,"x_min":69,"x_max":424,"o":"m 69 97 l 168 97 l 168 692 l 69 692 l 69 789 l 422 789 l 422 692 l 324 692 l 324 97 l 422 97 l 422 0 l 69 0 l 69 97 m 243 874 q 122 915 168 874 q 71 1032 76 957 l 161 1032 q 247 951 176 951 q 304 972 282 951 q 332 1032 326 993 l 424 1032 q 369 915 417 956 q 243 874 322 874 z "},"Ǐ":{"ha":492,"x_min":68,"x_max":425,"o":"m 69 97 l 168 97 l 168 692 l 69 692 l 69 789 l 422 789 l 422 692 l 324 692 l 324 97 l 422 97 l 422 0 l 69 0 l 69 97 m 68 1088 l 164 1088 l 250 935 l 335 1088 l 425 1088 l 319 867 l 179 867 l 68 1088 z "},"Î":{"ha":492,"x_min":60,"x_max":435,"o":"m 69 97 l 168 97 l 168 692 l 69 692 l 69 789 l 422 789 l 422 692 l 324 692 l 324 97 l 422 97 l 422 0 l 69 0 l 69 97 m 176 1094 l 319 1094 l 435 868 l 340 868 l 247 1038 l 154 868 l 60 868 l 176 1094 z "},"Ȉ":{"ha":492,"x_min":-47,"x_max":422,"o":"m 69 97 l 168 97 l 168 692 l 69 692 l 69 789 l 422 789 l 422 692 l 324 692 l 324 97 l 422 97 l 422 0 l 69 0 l 69 97 m -47 1117 l 94 1117 l 168 894 l 85 894 l -47 1117 m 169 1117 l 311 1117 l 383 894 l 300 894 l 169 1117 z "},"Ï":{"ha":492,"x_min":22,"x_max":472,"o":"m 69 97 l 168 97 l 168 692 l 69 692 l 69 789 l 422 789 l 422 692 l 324 692 l 324 97 l 422 97 l 422 0 l 69 0 l 69 97 m 101 883 q 44 903 67 883 q 22 958 22 924 q 44 1013 22 993 q 101 1033 67 1033 q 158 1013 136 1033 q 179 958 179 993 q 158 903 179 924 q 101 883 136 883 m 393 883 q 337 903 358 883 q 315 958 315 924 q 337 1013 315 993 q 393 1033 358 1033 q 450 1013 428 1033 q 472 958 472 993 q 450 903 472 924 q 393 883 428 883 z "},"Ḯ":{"ha":492,"x_min":22,"x_max":472,"o":"m 69 97 l 168 97 l 168 692 l 69 692 l 69 789 l 422 789 l 422 692 l 324 692 l 324 97 l 422 97 l 422 0 l 69 0 l 69 97 m 101 883 q 44 903 67 883 q 22 958 22 924 q 44 1013 22 993 q 101 1033 67 1033 q 158 1013 136 1033 q 179 958 179 993 q 158 903 179 924 q 101 883 136 883 m 393 883 q 337 903 358 883 q 315 958 315 924 q 337 1013 315 993 q 393 1033 358 1033 q 450 1013 428 1033 q 472 958 472 993 q 450 903 472 924 q 393 883 428 883 m 275 1346 l 418 1346 l 289 1131 l 206 1131 l 275 1346 z "},"İ":{"ha":492,"x_min":69,"x_max":422,"o":"m 69 97 l 168 97 l 168 692 l 69 692 l 69 789 l 422 789 l 422 692 l 324 692 l 324 97 l 422 97 l 422 0 l 69 0 l 69 97 m 247 886 q 188 909 211 886 q 164 965 164 932 q 187 1022 164 1000 q 247 1044 210 1044 q 306 1023 283 1044 q 329 965 329 1001 q 308 909 331 932 q 247 886 285 886 z "},"Ị":{"ha":492,"x_min":69,"x_max":422,"o":"m 69 97 l 168 97 l 168 692 l 69 692 l 69 789 l 422 789 l 422 692 l 324 692 l 324 97 l 422 97 l 422 0 l 69 0 l 69 97 m 246 -219 q 189 -199 211 -219 q 167 -146 167 -178 q 189 -93 167 -114 q 246 -72 211 -72 q 303 -93 282 -72 q 325 -149 325 -114 q 303 -199 325 -178 q 246 -219 281 -219 z "},"Ì":{"ha":492,"x_min":69,"x_max":422,"o":"m 69 97 l 168 97 l 168 692 l 69 692 l 69 789 l 422 789 l 422 692 l 324 692 l 324 97 l 422 97 l 422 0 l 69 0 l 69 97 m 76 1110 l 218 1110 l 288 894 l 204 894 l 76 1110 z "},"Ỉ":{"ha":492,"x_min":69,"x_max":422,"o":"m 69 97 l 168 97 l 168 692 l 69 692 l 69 789 l 422 789 l 422 692 l 324 692 l 324 97 l 422 97 l 422 0 l 69 0 l 69 97 m 225 910 q 271 961 271 925 q 258 990 271 979 q 221 1000 244 1000 q 154 981 189 1000 l 133 1042 q 236 1074 178 1074 q 323 1044 290 1074 q 356 969 356 1015 q 244 849 356 876 l 225 910 z "},"Ȋ":{"ha":492,"x_min":67,"x_max":426,"o":"m 69 97 l 168 97 l 168 692 l 69 692 l 69 789 l 422 789 l 422 692 l 324 692 l 324 97 l 422 97 l 422 0 l 69 0 l 69 97 m 67 863 q 121 988 72 943 q 247 1033 169 1033 q 373 988 325 1033 q 426 863 421 943 l 331 863 q 247 939 318 939 q 163 863 175 939 l 67 863 z "},"Ī":{"ha":492,"x_min":69,"x_max":422,"o":"m 69 97 l 168 97 l 168 692 l 69 692 l 69 789 l 422 789 l 422 692 l 324 692 l 324 97 l 422 97 l 422 0 l 69 0 l 69 97 m 89 972 l 406 972 l 406 893 l 89 893 l 89 972 z "},"Į":{"ha":492,"x_min":69,"x_max":422,"o":"m 69 97 l 168 97 l 168 692 l 69 692 l 69 789 l 422 789 l 422 692 l 324 692 l 324 97 l 422 97 l 422 0 l 69 0 l 69 97 m 251 -246 q 167 -216 200 -246 q 135 -140 135 -186 q 215 0 135 -72 l 279 0 q 233 -60 249 -33 q 218 -111 218 -86 q 236 -154 218 -139 q 285 -169 254 -169 q 346 -154 317 -169 l 346 -221 q 251 -246 297 -246 z "},"Ĩ":{"ha":492,"x_min":38,"x_max":457,"o":"m 69 97 l 168 97 l 168 692 l 69 692 l 69 789 l 422 789 l 422 692 l 324 692 l 324 97 l 422 97 l 422 0 l 69 0 l 69 97 m 339 892 q 289 900 314 892 q 226 924 264 908 q 147 947 168 947 q 99 899 107 947 l 38 899 q 76 1011 43 975 q 160 1047 108 1047 q 200 1041 179 1047 q 240 1027 221 1035 q 267 1017 260 1019 q 344 992 319 992 q 380 1003 367 992 q 399 1043 393 1015 l 457 1043 q 422 931 451 971 q 339 892 392 892 z "},"J":{"ha":482,"x_min":38,"x_max":444,"o":"m 38 -49 l 110 -49 q 178 -19 160 -49 q 197 69 197 10 l 197 696 l 96 696 l 96 789 l 444 789 l 444 696 l 351 696 l 351 75 q 301 -108 351 -50 q 138 -165 251 -165 l 38 -165 l 38 -49 z "},"Ĵ":{"ha":482,"x_min":38,"x_max":460,"o":"m 38 -49 l 110 -49 q 178 -19 160 -49 q 197 69 197 10 l 197 696 l 96 696 l 96 789 l 444 789 l 444 696 l 351 696 l 351 75 q 301 -108 351 -50 q 138 -165 251 -165 l 38 -165 l 38 -49 m 201 1094 l 344 1094 l 460 868 l 365 868 l 272 1038 l 179 868 l 85 868 l 201 1094 z "},"K":{"ha":910,"x_min":58,"x_max":871,"o":"m 58 97 l 157 97 l 157 692 l 58 692 l 58 789 l 411 789 l 411 692 l 313 692 l 313 417 l 606 692 l 522 692 l 522 789 l 861 789 l 861 692 l 771 692 l 463 401 l 781 97 l 871 97 l 871 0 l 519 0 l 519 97 l 600 97 l 313 375 l 313 97 l 411 97 l 411 0 l 58 0 l 58 97 z "},"Ǩ":{"ha":910,"x_min":58,"x_max":871,"o":"m 58 97 l 157 97 l 157 692 l 58 692 l 58 789 l 411 789 l 411 692 l 313 692 l 313 417 l 606 692 l 522 692 l 522 789 l 861 789 l 861 692 l 771 692 l 463 401 l 781 97 l 871 97 l 871 0 l 519 0 l 519 97 l 600 97 l 313 375 l 313 97 l 411 97 l 411 0 l 58 0 l 58 97 m 283 1088 l 379 1088 l 465 935 l 550 1088 l 640 1088 l 535 867 l 394 867 l 283 1088 z "},"Ķ":{"ha":910,"x_min":58,"x_max":871,"o":"m 58 97 l 157 97 l 157 692 l 58 692 l 58 789 l 411 789 l 411 692 l 313 692 l 313 417 l 606 692 l 522 692 l 522 789 l 861 789 l 861 692 l 771 692 l 463 401 l 781 97 l 871 97 l 871 0 l 519 0 l 519 97 l 600 97 l 313 375 l 313 97 l 411 97 l 411 0 l 58 0 l 58 97 m 403 -306 q 464 -276 444 -299 q 483 -207 483 -253 l 401 -207 l 401 -72 l 556 -72 l 556 -200 q 519 -318 556 -278 q 403 -358 482 -358 l 403 -306 z "},"L":{"ha":750,"x_min":58,"x_max":715,"o":"m 58 97 l 157 97 l 157 696 l 58 696 l 58 789 l 410 789 l 410 696 l 311 696 l 311 97 l 600 97 l 600 328 l 715 328 l 715 0 l 58 0 l 58 97 z "},"Ǉ":{"ha":1232,"x_min":58,"x_max":1194,"o":"m 58 97 l 157 97 l 157 696 l 58 696 l 58 789 l 410 789 l 410 696 l 311 696 l 311 97 l 600 97 l 600 328 l 715 328 l 715 0 l 58 0 l 58 97 m 788 -49 l 860 -49 q 928 -19 910 -49 q 947 69 947 10 l 947 696 l 846 696 l 846 789 l 1194 789 l 1194 696 l 1101 696 l 1101 75 q 1051 -108 1101 -50 q 888 -165 1001 -165 l 788 -165 l 788 -49 z "},"Ĺ":{"ha":750,"x_min":58,"x_max":715,"o":"m 58 97 l 157 97 l 157 696 l 58 696 l 58 789 l 410 789 l 410 696 l 311 696 l 311 97 l 600 97 l 600 328 l 715 328 l 715 0 l 58 0 l 58 97 m 263 1110 l 406 1110 l 276 894 l 193 894 l 263 1110 z "},"Ľ":{"ha":750,"x_min":58,"x_max":715,"o":"m 58 97 l 157 97 l 157 696 l 58 696 l 58 789 l 410 789 l 410 696 l 311 696 l 311 97 l 600 97 l 600 328 l 715 328 l 715 0 l 58 0 l 58 97 m 560 554 q 622 582 601 560 q 642 651 642 604 l 560 651 l 560 790 l 714 790 l 713 660 q 560 500 715 500 l 560 554 z "},"Ļ":{"ha":750,"x_min":58,"x_max":715,"o":"m 58 97 l 157 97 l 157 696 l 58 696 l 58 789 l 410 789 l 410 696 l 311 696 l 311 97 l 600 97 l 600 328 l 715 328 l 715 0 l 58 0 l 58 97 m 321 -306 q 382 -276 363 -299 q 401 -207 401 -253 l 319 -207 l 319 -72 l 474 -72 l 474 -200 q 437 -318 474 -278 q 321 -358 400 -358 l 321 -306 z "},"Ŀ":{"ha":750,"x_min":58,"x_max":715,"o":"m 58 97 l 157 97 l 157 696 l 58 696 l 58 789 l 410 789 l 410 696 l 311 696 l 311 97 l 600 97 l 600 328 l 715 328 l 715 0 l 58 0 l 58 97 m 607 460 q 549 482 572 460 q 525 536 525 504 q 549 590 525 568 q 607 613 572 613 q 665 590 642 613 q 688 536 688 568 q 665 482 688 504 q 607 460 642 460 z "},"Ḷ":{"ha":750,"x_min":58,"x_max":715,"o":"m 58 97 l 157 97 l 157 696 l 58 696 l 58 789 l 410 789 l 410 696 l 311 696 l 311 97 l 600 97 l 600 328 l 715 328 l 715 0 l 58 0 l 58 97 m 394 -219 q 338 -199 360 -219 q 315 -146 315 -178 q 338 -93 315 -114 q 394 -72 360 -72 q 452 -93 431 -72 q 474 -149 474 -114 q 451 -199 474 -178 q 394 -219 429 -219 z "},"ǈ":{"ha":1119,"x_min":58,"x_max":1043,"o":"m 58 97 l 157 97 l 157 696 l 58 696 l 58 789 l 410 789 l 410 696 l 311 696 l 311 97 l 600 97 l 600 328 l 715 328 l 715 0 l 58 0 l 58 97 m 951 663 q 887 687 913 663 q 861 750 861 711 q 887 811 861 788 q 951 835 913 835 q 1017 811 992 835 q 1042 750 1042 788 q 1017 687 1043 711 q 951 663 992 663 m 751 -112 l 808 -112 q 883 -87 863 -112 q 904 -1 904 -61 l 904 456 l 796 456 l 796 550 l 1043 550 l 1043 25 q 994 -158 1043 -99 q 815 -217 946 -217 l 751 -217 l 751 -112 z "},"Ḻ":{"ha":750,"x_min":58,"x_max":715,"o":"m 58 97 l 157 97 l 157 696 l 58 696 l 58 789 l 410 789 l 410 696 l 311 696 l 311 97 l 600 97 l 600 328 l 715 328 l 715 0 l 58 0 l 58 97 m 236 -69 l 553 -69 l 553 -149 l 236 -149 l 236 -69 z "},"Ł":{"ha":750,"x_min":58,"x_max":715,"o":"m 715 328 l 715 0 l 58 0 l 58 97 l 157 97 l 157 319 l 58 274 l 58 354 l 157 400 l 157 696 l 58 696 l 58 789 l 410 789 l 410 696 l 311 696 l 311 472 l 506 564 l 506 479 l 311 390 l 311 97 l 600 97 l 600 328 l 715 328 z "},"M":{"ha":1182,"x_min":60,"x_max":1122,"o":"m 60 97 l 156 97 l 156 692 l 60 692 l 60 789 l 368 789 l 597 281 l 817 789 l 1122 789 l 1122 692 l 1026 692 l 1026 97 l 1122 97 l 1122 0 l 786 0 l 786 97 l 879 97 l 879 657 l 608 38 l 550 38 l 275 657 l 275 97 l 368 97 l 368 0 l 60 0 l 60 97 z "},"Ṁ":{"ha":1182,"x_min":60,"x_max":1122,"o":"m 60 97 l 156 97 l 156 692 l 60 692 l 60 789 l 368 789 l 597 281 l 817 789 l 1122 789 l 1122 692 l 1026 692 l 1026 97 l 1122 97 l 1122 0 l 786 0 l 786 97 l 879 97 l 879 657 l 608 38 l 550 38 l 275 657 l 275 97 l 368 97 l 368 0 l 60 0 l 60 97 m 590 886 q 531 909 554 886 q 507 965 507 932 q 530 1022 507 1000 q 590 1044 553 1044 q 649 1023 626 1044 q 672 965 672 1001 q 651 909 674 932 q 590 886 628 886 z "},"Ṃ":{"ha":1182,"x_min":60,"x_max":1122,"o":"m 60 97 l 156 97 l 156 692 l 60 692 l 60 789 l 368 789 l 597 281 l 817 789 l 1122 789 l 1122 692 l 1026 692 l 1026 97 l 1122 97 l 1122 0 l 786 0 l 786 97 l 879 97 l 879 657 l 608 38 l 550 38 l 275 657 l 275 97 l 368 97 l 368 0 l 60 0 l 60 97 m 579 -219 q 522 -199 544 -219 q 500 -146 500 -178 q 522 -93 500 -114 q 579 -72 544 -72 q 637 -93 615 -72 q 658 -149 658 -114 q 636 -199 658 -178 q 579 -219 614 -219 z "},"N":{"ha":1000,"x_min":60,"x_max":958,"o":"m 60 97 l 161 97 l 161 692 l 60 692 l 60 789 l 339 789 l 749 200 l 749 692 l 644 692 l 644 789 l 958 789 l 958 692 l 860 692 l 860 0 l 706 0 l 269 631 l 269 97 l 374 97 l 374 0 l 60 0 l 60 97 z "},"Ǌ":{"ha":1482,"x_min":60,"x_max":1444,"o":"m 60 97 l 161 97 l 161 692 l 60 692 l 60 789 l 339 789 l 749 200 l 749 692 l 644 692 l 644 789 l 958 789 l 958 692 l 860 692 l 860 0 l 706 0 l 269 631 l 269 97 l 374 97 l 374 0 l 60 0 l 60 97 m 1038 -49 l 1110 -49 q 1178 -19 1160 -49 q 1197 69 1197 10 l 1197 696 l 1096 696 l 1096 789 l 1444 789 l 1444 696 l 1351 696 l 1351 75 q 1301 -108 1351 -50 q 1138 -165 1251 -165 l 1038 -165 l 1038 -49 z "},"Ń":{"ha":1000,"x_min":60,"x_max":958,"o":"m 60 97 l 161 97 l 161 692 l 60 692 l 60 789 l 339 789 l 749 200 l 749 692 l 644 692 l 644 789 l 958 789 l 958 692 l 860 692 l 860 0 l 706 0 l 269 631 l 269 97 l 374 97 l 374 0 l 60 0 l 60 97 m 533 1110 l 676 1110 l 547 894 l 464 894 l 533 1110 z "},"Ň":{"ha":1000,"x_min":60,"x_max":958,"o":"m 60 97 l 161 97 l 161 692 l 60 692 l 60 789 l 339 789 l 749 200 l 749 692 l 644 692 l 644 789 l 958 789 l 958 692 l 860 692 l 860 0 l 706 0 l 269 631 l 269 97 l 374 97 l 374 0 l 60 0 l 60 97 m 326 1088 l 422 1088 l 508 935 l 593 1088 l 683 1088 l 578 867 l 438 867 l 326 1088 z "},"Ņ":{"ha":1000,"x_min":60,"x_max":958,"o":"m 60 97 l 161 97 l 161 692 l 60 692 l 60 789 l 339 789 l 749 200 l 749 692 l 644 692 l 644 789 l 958 789 l 958 692 l 860 692 l 860 0 l 706 0 l 269 631 l 269 97 l 374 97 l 374 0 l 60 0 l 60 97 m 447 -306 q 508 -276 489 -299 q 528 -207 528 -253 l 446 -207 l 446 -72 l 600 -72 l 600 -200 q 563 -318 600 -278 q 447 -358 526 -358 l 447 -306 z "},"Ṅ":{"ha":1000,"x_min":60,"x_max":958,"o":"m 60 97 l 161 97 l 161 692 l 60 692 l 60 789 l 339 789 l 749 200 l 749 692 l 644 692 l 644 789 l 958 789 l 958 692 l 860 692 l 860 0 l 706 0 l 269 631 l 269 97 l 374 97 l 374 0 l 60 0 l 60 97 m 506 886 q 446 909 469 886 q 422 965 422 932 q 445 1022 422 1000 q 506 1044 468 1044 q 565 1023 542 1044 q 588 965 588 1001 q 566 909 589 932 q 506 886 543 886 z "},"Ṇ":{"ha":1000,"x_min":60,"x_max":958,"o":"m 60 97 l 161 97 l 161 692 l 60 692 l 60 789 l 339 789 l 749 200 l 749 692 l 644 692 l 644 789 l 958 789 l 958 692 l 860 692 l 860 0 l 706 0 l 269 631 l 269 97 l 374 97 l 374 0 l 60 0 l 60 97 m 521 -219 q 464 -199 486 -219 q 442 -146 442 -178 q 464 -93 442 -114 q 521 -72 486 -72 q 578 -93 557 -72 q 600 -149 600 -114 q 578 -199 600 -178 q 521 -219 556 -219 z "},"Ǹ":{"ha":1000,"x_min":60,"x_max":958,"o":"m 60 97 l 161 97 l 161 692 l 60 692 l 60 789 l 339 789 l 749 200 l 749 692 l 644 692 l 644 789 l 958 789 l 958 692 l 860 692 l 860 0 l 706 0 l 269 631 l 269 97 l 374 97 l 374 0 l 60 0 l 60 97 m 335 1110 l 476 1110 l 546 894 l 463 894 l 335 1110 z "},"Ŋ":{"ha":994,"x_min":58,"x_max":953,"o":"m 542 -164 l 575 -164 q 699 -126 654 -164 q 743 -18 744 -89 l 268 615 l 268 97 l 372 97 l 372 0 l 58 0 l 58 97 l 158 97 l 158 692 l 58 692 l 58 789 l 317 789 l 743 207 l 743 692 l 639 692 l 639 789 l 953 789 l 953 692 l 854 692 l 854 0 q 785 -193 854 -128 q 594 -258 715 -258 l 542 -258 l 542 -164 z "},"ǋ":{"ha":1369,"x_min":60,"x_max":1293,"o":"m 60 97 l 161 97 l 161 692 l 60 692 l 60 789 l 339 789 l 749 200 l 749 692 l 644 692 l 644 789 l 958 789 l 958 692 l 860 692 l 860 0 l 706 0 l 269 631 l 269 97 l 374 97 l 374 0 l 60 0 l 60 97 m 1201 663 q 1137 687 1163 663 q 1111 750 1111 711 q 1137 811 1111 788 q 1201 835 1163 835 q 1267 811 1242 835 q 1292 750 1292 788 q 1267 687 1293 711 q 1201 663 1242 663 m 1001 -112 l 1058 -112 q 1133 -87 1113 -112 q 1154 -1 1154 -61 l 1154 456 l 1046 456 l 1046 550 l 1293 550 l 1293 25 q 1244 -158 1293 -99 q 1065 -217 1196 -217 l 1001 -217 l 1001 -112 z "},"Ṉ":{"ha":1000,"x_min":60,"x_max":958,"o":"m 60 97 l 161 97 l 161 692 l 60 692 l 60 789 l 339 789 l 749 200 l 749 692 l 644 692 l 644 789 l 958 789 l 958 692 l 860 692 l 860 0 l 706 0 l 269 631 l 269 97 l 374 97 l 374 0 l 60 0 l 60 97 m 363 -69 l 679 -69 l 679 -149 l 363 -149 l 363 -69 z "},"Ñ":{"ha":1000,"x_min":60,"x_max":958,"o":"m 60 97 l 161 97 l 161 692 l 60 692 l 60 789 l 339 789 l 749 200 l 749 692 l 644 692 l 644 789 l 958 789 l 958 692 l 860 692 l 860 0 l 706 0 l 269 631 l 269 97 l 374 97 l 374 0 l 60 0 l 60 97 m 597 892 q 547 900 572 892 q 485 924 522 908 q 406 947 426 947 q 357 899 365 947 l 296 899 q 334 1011 301 975 q 418 1047 367 1047 q 458 1041 438 1047 q 499 1027 479 1035 q 525 1017 518 1019 q 603 992 578 992 q 638 1003 625 992 q 657 1043 651 1015 l 715 1043 q 680 931 710 971 q 597 892 650 892 z "},"O":{"ha":994,"x_min":63,"x_max":931,"o":"m 497 -15 q 269 38 368 -15 q 117 185 171 92 q 63 392 63 278 q 117 600 63 506 q 269 749 171 694 q 497 803 368 803 q 724 749 625 803 q 876 601 822 694 q 931 393 931 507 q 877 185 931 279 q 725 38 824 92 q 497 -15 626 -15 m 497 94 q 641 134 579 94 q 735 242 703 174 q 768 394 768 310 q 735 547 768 479 q 641 655 703 615 q 497 694 579 694 q 353 655 414 694 q 259 547 292 615 q 226 393 226 478 q 259 240 226 308 q 353 133 292 172 q 497 94 414 94 z "},"Ó":{"ha":994,"x_min":63,"x_max":931,"o":"m 497 -15 q 269 38 368 -15 q 117 185 171 92 q 63 392 63 278 q 117 600 63 506 q 269 749 171 694 q 497 803 368 803 q 724 749 625 803 q 876 601 822 694 q 931 393 931 507 q 877 185 931 279 q 725 38 824 92 q 497 -15 626 -15 m 497 94 q 641 134 579 94 q 735 242 703 174 q 768 394 768 310 q 735 547 768 479 q 641 655 703 615 q 497 694 579 694 q 353 655 414 694 q 259 547 292 615 q 226 393 226 478 q 259 240 226 308 q 353 133 292 172 q 497 94 414 94 m 524 1110 l 667 1110 l 538 894 l 454 894 l 524 1110 z "},"Ŏ":{"ha":994,"x_min":63,"x_max":931,"o":"m 497 -15 q 269 38 368 -15 q 117 185 171 92 q 63 392 63 278 q 117 600 63 506 q 269 749 171 694 q 497 803 368 803 q 724 749 625 803 q 876 601 822 694 q 931 393 931 507 q 877 185 931 279 q 725 38 824 92 q 497 -15 626 -15 m 497 94 q 641 134 579 94 q 735 242 703 174 q 768 394 768 310 q 735 547 768 479 q 641 655 703 615 q 497 694 579 694 q 353 655 414 694 q 259 547 292 615 q 226 393 226 478 q 259 240 226 308 q 353 133 292 172 q 497 94 414 94 m 492 874 q 371 915 417 874 q 319 1032 325 957 l 410 1032 q 496 951 425 951 q 553 972 531 951 q 581 1032 575 993 l 672 1032 q 618 915 665 956 q 492 874 571 874 z "},"Ǒ":{"ha":994,"x_min":63,"x_max":931,"o":"m 497 -15 q 269 38 368 -15 q 117 185 171 92 q 63 392 63 278 q 117 600 63 506 q 269 749 171 694 q 497 803 368 803 q 724 749 625 803 q 876 601 822 694 q 931 393 931 507 q 877 185 931 279 q 725 38 824 92 q 497 -15 626 -15 m 497 94 q 641 134 579 94 q 735 242 703 174 q 768 394 768 310 q 735 547 768 479 q 641 655 703 615 q 497 694 579 694 q 353 655 414 694 q 259 547 292 615 q 226 393 226 478 q 259 240 226 308 q 353 133 292 172 q 497 94 414 94 m 317 1088 l 413 1088 l 499 935 l 583 1088 l 674 1088 l 568 867 l 428 867 l 317 1088 z "},"Ô":{"ha":994,"x_min":63,"x_max":931,"o":"m 497 -15 q 269 38 368 -15 q 117 185 171 92 q 63 392 63 278 q 117 600 63 506 q 269 749 171 694 q 497 803 368 803 q 724 749 625 803 q 876 601 822 694 q 931 393 931 507 q 877 185 931 279 q 725 38 824 92 q 497 -15 626 -15 m 497 94 q 641 134 579 94 q 735 242 703 174 q 768 394 768 310 q 735 547 768 479 q 641 655 703 615 q 497 694 579 694 q 353 655 414 694 q 259 547 292 615 q 226 393 226 478 q 259 240 226 308 q 353 133 292 172 q 497 94 414 94 m 425 1094 l 568 1094 l 683 868 l 589 868 l 496 1038 l 403 868 l 308 868 l 425 1094 z "},"Ố":{"ha":994,"x_min":63,"x_max":931,"o":"m 497 -15 q 269 38 368 -15 q 117 185 171 92 q 63 392 63 278 q 117 600 63 506 q 269 749 171 694 q 497 803 368 803 q 724 749 625 803 q 876 601 822 694 q 931 393 931 507 q 877 185 931 279 q 725 38 824 92 q 497 -15 626 -15 m 497 94 q 641 134 579 94 q 735 242 703 174 q 768 394 768 310 q 735 547 768 479 q 641 655 703 615 q 497 694 579 694 q 353 655 414 694 q 259 547 292 615 q 226 393 226 478 q 259 240 226 308 q 353 133 292 172 q 497 94 414 94 m 703 1165 l 821 1165 l 719 996 l 643 996 l 703 1165 m 428 1050 l 564 1050 l 681 868 l 585 868 l 496 992 l 407 868 l 311 868 l 428 1050 z "},"Ộ":{"ha":994,"x_min":63,"x_max":931,"o":"m 497 -15 q 269 38 368 -15 q 117 185 171 92 q 63 392 63 278 q 117 600 63 506 q 269 749 171 694 q 497 803 368 803 q 724 749 625 803 q 876 601 822 694 q 931 393 931 507 q 877 185 931 279 q 725 38 824 92 q 497 -15 626 -15 m 497 94 q 641 134 579 94 q 735 242 703 174 q 768 394 768 310 q 735 547 768 479 q 641 655 703 615 q 497 694 579 694 q 353 655 414 694 q 259 547 292 615 q 226 393 226 478 q 259 240 226 308 q 353 133 292 172 q 497 94 414 94 m 497 -219 q 440 -199 463 -219 q 418 -146 418 -178 q 440 -93 418 -114 q 497 -72 463 -72 q 555 -93 533 -72 q 576 -149 576 -114 q 554 -199 576 -178 q 497 -219 532 -219 m 425 1094 l 568 1094 l 683 868 l 589 868 l 496 1038 l 403 868 l 308 868 l 425 1094 z "},"Ồ":{"ha":994,"x_min":63,"x_max":931,"o":"m 497 -15 q 269 38 368 -15 q 117 185 171 92 q 63 392 63 278 q 117 600 63 506 q 269 749 171 694 q 497 803 368 803 q 724 749 625 803 q 876 601 822 694 q 931 393 931 507 q 877 185 931 279 q 725 38 824 92 q 497 -15 626 -15 m 497 94 q 641 134 579 94 q 735 242 703 174 q 768 394 768 310 q 735 547 768 479 q 641 655 703 615 q 497 694 579 694 q 353 655 414 694 q 259 547 292 615 q 226 393 226 478 q 259 240 226 308 q 353 133 292 172 q 497 94 414 94 m 676 996 l 574 1165 l 692 1165 l 751 996 l 676 996 m 428 1050 l 564 1050 l 681 868 l 585 868 l 496 992 l 407 868 l 311 868 l 428 1050 z "},"Ổ":{"ha":994,"x_min":63,"x_max":931,"o":"m 497 -15 q 269 38 368 -15 q 117 185 171 92 q 63 392 63 278 q 117 600 63 506 q 269 749 171 694 q 497 803 368 803 q 724 749 625 803 q 876 601 822 694 q 931 393 931 507 q 877 185 931 279 q 725 38 824 92 q 497 -15 626 -15 m 497 94 q 641 134 579 94 q 735 242 703 174 q 768 394 768 310 q 735 547 768 479 q 641 655 703 615 q 497 694 579 694 q 353 655 414 694 q 259 547 292 615 q 226 393 226 478 q 259 240 226 308 q 353 133 292 172 q 497 94 414 94 m 635 1040 q 681 1092 681 1056 q 667 1120 681 1110 q 631 1131 654 1131 q 564 1111 599 1131 l 543 1172 q 646 1204 588 1204 q 733 1175 700 1204 q 765 1100 765 1146 q 654 979 765 1007 l 635 1040 m 428 1050 l 564 1050 l 681 868 l 585 868 l 496 992 l 407 868 l 311 868 l 428 1050 z "},"Ỗ":{"ha":994,"x_min":63,"x_max":931,"o":"m 497 -15 q 269 38 368 -15 q 117 185 171 92 q 63 392 63 278 q 117 600 63 506 q 269 749 171 694 q 497 803 368 803 q 724 749 625 803 q 876 601 822 694 q 931 393 931 507 q 877 185 931 279 q 725 38 824 92 q 497 -15 626 -15 m 497 94 q 641 134 579 94 q 735 242 703 174 q 768 394 768 310 q 735 547 768 479 q 641 655 703 615 q 497 694 579 694 q 353 655 414 694 q 259 547 292 615 q 226 393 226 478 q 259 240 226 308 q 353 133 292 172 q 497 94 414 94 m 589 1092 q 544 1099 567 1092 q 483 1121 521 1106 q 403 1146 431 1146 q 354 1096 363 1146 l 293 1096 q 329 1202 299 1168 q 407 1236 360 1236 q 448 1229 426 1236 q 506 1207 469 1222 q 538 1194 510 1206 q 586 1182 567 1182 q 640 1232 631 1182 l 699 1232 q 589 1092 688 1092 m 428 1050 l 564 1050 l 681 868 l 585 868 l 496 992 l 407 868 l 311 868 l 428 1050 z "},"Ȍ":{"ha":994,"x_min":63,"x_max":931,"o":"m 497 -15 q 269 38 368 -15 q 117 185 171 92 q 63 392 63 278 q 117 600 63 506 q 269 749 171 694 q 497 803 368 803 q 724 749 625 803 q 876 601 822 694 q 931 393 931 507 q 877 185 931 279 q 725 38 824 92 q 497 -15 626 -15 m 497 94 q 641 134 579 94 q 735 242 703 174 q 768 394 768 310 q 735 547 768 479 q 641 655 703 615 q 497 694 579 694 q 353 655 414 694 q 259 547 292 615 q 226 393 226 478 q 259 240 226 308 q 353 133 292 172 q 497 94 414 94 m 201 1117 l 343 1117 l 417 894 l 333 894 l 201 1117 m 418 1117 l 560 1117 l 632 894 l 549 894 l 418 1117 z "},"Ö":{"ha":994,"x_min":63,"x_max":931,"o":"m 497 -15 q 269 38 368 -15 q 117 185 171 92 q 63 392 63 278 q 117 600 63 506 q 269 749 171 694 q 497 803 368 803 q 724 749 625 803 q 876 601 822 694 q 931 393 931 507 q 877 185 931 279 q 725 38 824 92 q 497 -15 626 -15 m 497 94 q 641 134 579 94 q 735 242 703 174 q 768 394 768 310 q 735 547 768 479 q 641 655 703 615 q 497 694 579 694 q 353 655 414 694 q 259 547 292 615 q 226 393 226 478 q 259 240 226 308 q 353 133 292 172 q 497 94 414 94 m 350 883 q 293 903 315 883 q 271 958 271 924 q 293 1013 271 993 q 350 1033 315 1033 q 406 1013 385 1033 q 428 958 428 993 q 406 903 428 924 q 350 883 385 883 m 642 883 q 585 903 607 883 q 564 958 564 924 q 585 1013 564 993 q 642 1033 607 1033 q 699 1013 676 1033 q 721 958 721 993 q 699 903 721 924 q 642 883 676 883 z "},"Ȫ":{"ha":994,"x_min":63,"x_max":931,"o":"m 497 -15 q 269 38 368 -15 q 117 185 171 92 q 63 392 63 278 q 117 600 63 506 q 269 749 171 694 q 497 803 368 803 q 724 749 625 803 q 876 601 822 694 q 931 393 931 507 q 877 185 931 279 q 725 38 824 92 q 497 -15 626 -15 m 497 94 q 641 134 579 94 q 735 242 703 174 q 768 394 768 310 q 735 547 768 479 q 641 655 703 615 q 497 694 579 694 q 353 655 414 694 q 259 547 292 615 q 226 393 226 478 q 259 240 226 308 q 353 133 292 172 q 497 94 414 94 m 350 883 q 293 903 315 883 q 271 958 271 924 q 293 1013 271 993 q 350 1033 315 1033 q 406 1013 385 1033 q 428 958 428 993 q 406 903 428 924 q 350 883 385 883 m 642 883 q 585 903 607 883 q 564 958 564 924 q 585 1013 564 993 q 642 1033 607 1033 q 699 1013 676 1033 q 721 958 721 993 q 699 903 721 924 q 642 883 676 883 m 338 1208 l 654 1208 l 654 1129 l 338 1129 l 338 1208 z "},"Ȯ":{"ha":994,"x_min":63,"x_max":931,"o":"m 497 -15 q 269 38 368 -15 q 117 185 171 92 q 63 392 63 278 q 117 600 63 506 q 269 749 171 694 q 497 803 368 803 q 724 749 625 803 q 876 601 822 694 q 931 393 931 507 q 877 185 931 279 q 725 38 824 92 q 497 -15 626 -15 m 497 94 q 641 134 579 94 q 735 242 703 174 q 768 394 768 310 q 735 547 768 479 q 641 655 703 615 q 497 694 579 694 q 353 655 414 694 q 259 547 292 615 q 226 393 226 478 q 259 240 226 308 q 353 133 292 172 q 497 94 414 94 m 496 886 q 436 909 460 886 q 413 965 413 932 q 435 1022 413 1000 q 496 1044 458 1044 q 555 1023 532 1044 q 578 965 578 1001 q 556 909 579 932 q 496 886 533 886 z "},"Ȱ":{"ha":994,"x_min":63,"x_max":931,"o":"m 497 -15 q 269 38 368 -15 q 117 185 171 92 q 63 392 63 278 q 117 600 63 506 q 269 749 171 694 q 497 803 368 803 q 724 749 625 803 q 876 601 822 694 q 931 393 931 507 q 877 185 931 279 q 725 38 824 92 q 497 -15 626 -15 m 497 94 q 641 134 579 94 q 735 242 703 174 q 768 394 768 310 q 735 547 768 479 q 641 655 703 615 q 497 694 579 694 q 353 655 414 694 q 259 547 292 615 q 226 393 226 478 q 259 240 226 308 q 353 133 292 172 q 497 94 414 94 m 496 886 q 436 909 460 886 q 413 965 413 932 q 435 1022 413 1000 q 496 1044 458 1044 q 555 1023 532 1044 q 578 965 578 1001 q 556 909 579 932 q 496 886 533 886 m 338 1208 l 654 1208 l 654 1129 l 338 1129 l 338 1208 z "},"Ọ":{"ha":994,"x_min":63,"x_max":931,"o":"m 497 -15 q 269 38 368 -15 q 117 185 171 92 q 63 392 63 278 q 117 600 63 506 q 269 749 171 694 q 497 803 368 803 q 724 749 625 803 q 876 601 822 694 q 931 393 931 507 q 877 185 931 279 q 725 38 824 92 q 497 -15 626 -15 m 497 94 q 641 134 579 94 q 735 242 703 174 q 768 394 768 310 q 735 547 768 479 q 641 655 703 615 q 497 694 579 694 q 353 655 414 694 q 259 547 292 615 q 226 393 226 478 q 259 240 226 308 q 353 133 292 172 q 497 94 414 94 m 497 -219 q 440 -199 463 -219 q 418 -146 418 -178 q 440 -93 418 -114 q 497 -72 463 -72 q 555 -93 533 -72 q 576 -149 576 -114 q 554 -199 576 -178 q 497 -219 532 -219 z "},"Ò":{"ha":994,"x_min":63,"x_max":931,"o":"m 497 -15 q 269 38 368 -15 q 117 185 171 92 q 63 392 63 278 q 117 600 63 506 q 269 749 171 694 q 497 803 368 803 q 724 749 625 803 q 876 601 822 694 q 931 393 931 507 q 877 185 931 279 q 725 38 824 92 q 497 -15 626 -15 m 497 94 q 641 134 579 94 q 735 242 703 174 q 768 394 768 310 q 735 547 768 479 q 641 655 703 615 q 497 694 579 694 q 353 655 414 694 q 259 547 292 615 q 226 393 226 478 q 259 240 226 308 q 353 133 292 172 q 497 94 414 94 m 325 1110 l 467 1110 l 536 894 l 453 894 l 325 1110 z "},"Ỏ":{"ha":994,"x_min":63,"x_max":931,"o":"m 497 -15 q 269 38 368 -15 q 117 185 171 92 q 63 392 63 278 q 117 600 63 506 q 269 749 171 694 q 497 803 368 803 q 724 749 625 803 q 876 601 822 694 q 931 393 931 507 q 877 185 931 279 q 725 38 824 92 q 497 -15 626 -15 m 497 94 q 641 134 579 94 q 735 242 703 174 q 768 394 768 310 q 735 547 768 479 q 641 655 703 615 q 497 694 579 694 q 353 655 414 694 q 259 547 292 615 q 226 393 226 478 q 259 240 226 308 q 353 133 292 172 q 497 94 414 94 m 474 910 q 519 961 519 925 q 506 990 519 979 q 469 1000 493 1000 q 403 981 438 1000 l 382 1042 q 485 1074 426 1074 q 572 1044 539 1074 q 604 969 604 1015 q 493 849 604 876 l 474 910 z "},"Ơ":{"ha":994,"x_min":63,"x_max":931,"o":"m 753 731 q 884 587 838 675 q 931 393 931 499 q 877 185 931 279 q 725 38 824 92 q 497 -15 626 -15 q 269 38 368 -15 q 117 185 171 92 q 63 392 63 278 q 117 601 63 507 q 269 750 171 696 q 496 804 368 804 q 575 799 525 804 q 642 793 619 793 q 710 816 683 793 q 740 886 736 839 l 864 886 q 830 790 858 829 q 753 731 801 750 m 497 94 q 641 134 579 94 q 735 242 703 174 q 768 394 768 310 q 735 547 768 479 q 642 655 703 615 q 500 694 582 694 q 353 656 415 694 q 259 548 292 617 q 226 393 226 479 q 259 240 226 308 q 353 133 292 172 q 497 94 414 94 z "},"Ớ":{"ha":994,"x_min":63,"x_max":931,"o":"m 753 731 q 884 587 838 675 q 931 393 931 499 q 877 185 931 279 q 725 38 824 92 q 497 -15 626 -15 q 269 38 368 -15 q 117 185 171 92 q 63 392 63 278 q 117 601 63 507 q 269 750 171 696 q 496 804 368 804 q 575 799 525 804 q 642 793 619 793 q 710 816 683 793 q 740 886 736 839 l 864 886 q 830 790 858 829 q 753 731 801 750 m 497 94 q 641 134 579 94 q 735 242 703 174 q 768 394 768 310 q 735 547 768 479 q 642 655 703 615 q 500 694 582 694 q 353 656 415 694 q 259 548 292 617 q 226 393 226 479 q 259 240 226 308 q 353 133 292 172 q 497 94 414 94 m 524 1110 l 667 1110 l 538 894 l 454 894 l 524 1110 z "},"Ợ":{"ha":994,"x_min":63,"x_max":931,"o":"m 753 731 q 884 587 838 675 q 931 393 931 499 q 877 185 931 279 q 725 38 824 92 q 497 -15 626 -15 q 269 38 368 -15 q 117 185 171 92 q 63 392 63 278 q 117 601 63 507 q 269 750 171 696 q 496 804 368 804 q 575 799 525 804 q 642 793 619 793 q 710 816 683 793 q 740 886 736 839 l 864 886 q 830 790 858 829 q 753 731 801 750 m 497 94 q 641 134 579 94 q 735 242 703 174 q 768 394 768 310 q 735 547 768 479 q 642 655 703 615 q 500 694 582 694 q 353 656 415 694 q 259 548 292 617 q 226 393 226 479 q 259 240 226 308 q 353 133 292 172 q 497 94 414 94 m 497 -219 q 440 -199 463 -219 q 418 -146 418 -178 q 440 -93 418 -114 q 497 -72 463 -72 q 555 -93 533 -72 q 576 -149 576 -114 q 554 -199 576 -178 q 497 -219 532 -219 z "},"Ờ":{"ha":994,"x_min":63,"x_max":931,"o":"m 753 731 q 884 587 838 675 q 931 393 931 499 q 877 185 931 279 q 725 38 824 92 q 497 -15 626 -15 q 269 38 368 -15 q 117 185 171 92 q 63 392 63 278 q 117 601 63 507 q 269 750 171 696 q 496 804 368 804 q 575 799 525 804 q 642 793 619 793 q 710 816 683 793 q 740 886 736 839 l 864 886 q 830 790 858 829 q 753 731 801 750 m 497 94 q 641 134 579 94 q 735 242 703 174 q 768 394 768 310 q 735 547 768 479 q 642 655 703 615 q 500 694 582 694 q 353 656 415 694 q 259 548 292 617 q 226 393 226 479 q 259 240 226 308 q 353 133 292 172 q 497 94 414 94 m 325 1110 l 467 1110 l 536 894 l 453 894 l 325 1110 z "},"Ở":{"ha":994,"x_min":63,"x_max":931,"o":"m 753 731 q 884 587 838 675 q 931 393 931 499 q 877 185 931 279 q 725 38 824 92 q 497 -15 626 -15 q 269 38 368 -15 q 117 185 171 92 q 63 392 63 278 q 117 601 63 507 q 269 750 171 696 q 496 804 368 804 q 575 799 525 804 q 642 793 619 793 q 710 816 683 793 q 740 886 736 839 l 864 886 q 830 790 858 829 q 753 731 801 750 m 497 94 q 641 134 579 94 q 735 242 703 174 q 768 394 768 310 q 735 547 768 479 q 642 655 703 615 q 500 694 582 694 q 353 656 415 694 q 259 548 292 617 q 226 393 226 479 q 259 240 226 308 q 353 133 292 172 q 497 94 414 94 m 474 910 q 519 961 519 925 q 506 990 519 979 q 469 1000 493 1000 q 403 981 438 1000 l 382 1042 q 485 1074 426 1074 q 572 1044 539 1074 q 604 969 604 1015 q 493 849 604 876 l 474 910 z "},"Ỡ":{"ha":994,"x_min":63,"x_max":931,"o":"m 753 731 q 884 587 838 675 q 931 393 931 499 q 877 185 931 279 q 725 38 824 92 q 497 -15 626 -15 q 269 38 368 -15 q 117 185 171 92 q 63 392 63 278 q 117 601 63 507 q 269 750 171 696 q 496 804 368 804 q 575 799 525 804 q 642 793 619 793 q 710 816 683 793 q 740 886 736 839 l 864 886 q 830 790 858 829 q 753 731 801 750 m 497 94 q 641 134 579 94 q 735 242 703 174 q 768 394 768 310 q 735 547 768 479 q 642 655 703 615 q 500 694 582 694 q 353 656 415 694 q 259 548 292 617 q 226 393 226 479 q 259 240 226 308 q 353 133 292 172 q 497 94 414 94 m 588 892 q 538 900 563 892 q 475 924 513 908 q 396 947 417 947 q 347 899 356 947 l 286 899 q 324 1011 292 975 q 408 1047 357 1047 q 449 1041 428 1047 q 489 1027 469 1035 q 515 1017 508 1019 q 593 992 568 992 q 628 1003 615 992 q 647 1043 642 1015 l 706 1043 q 670 931 700 971 q 588 892 640 892 z "},"Ő":{"ha":994,"x_min":63,"x_max":931,"o":"m 497 -15 q 269 38 368 -15 q 117 185 171 92 q 63 392 63 278 q 117 600 63 506 q 269 749 171 694 q 497 803 368 803 q 724 749 625 803 q 876 601 822 694 q 931 393 931 507 q 877 185 931 279 q 725 38 824 92 q 497 -15 626 -15 m 497 94 q 641 134 579 94 q 735 242 703 174 q 768 394 768 310 q 735 547 768 479 q 641 655 703 615 q 497 694 579 694 q 353 655 414 694 q 259 547 292 615 q 226 393 226 478 q 259 240 226 308 q 353 133 292 172 q 497 94 414 94 m 418 1117 l 560 1117 l 428 894 l 346 894 l 418 1117 m 633 1117 l 775 1117 l 644 894 l 561 894 l 633 1117 z "},"Ȏ":{"ha":994,"x_min":63,"x_max":931,"o":"m 497 -15 q 269 38 368 -15 q 117 185 171 92 q 63 392 63 278 q 117 600 63 506 q 269 749 171 694 q 497 803 368 803 q 724 749 625 803 q 876 601 822 694 q 931 393 931 507 q 877 185 931 279 q 725 38 824 92 q 497 -15 626 -15 m 497 94 q 641 134 579 94 q 735 242 703 174 q 768 394 768 310 q 735 547 768 479 q 641 655 703 615 q 497 694 579 694 q 353 655 414 694 q 259 547 292 615 q 226 393 226 478 q 259 240 226 308 q 353 133 292 172 q 497 94 414 94 m 315 863 q 369 988 321 943 q 496 1033 418 1033 q 622 988 574 1033 q 675 863 669 943 l 579 863 q 496 939 567 939 q 411 863 424 939 l 315 863 z "},"Ō":{"ha":994,"x_min":63,"x_max":931,"o":"m 497 -15 q 269 38 368 -15 q 117 185 171 92 q 63 392 63 278 q 117 600 63 506 q 269 749 171 694 q 497 803 368 803 q 724 749 625 803 q 876 601 822 694 q 931 393 931 507 q 877 185 931 279 q 725 38 824 92 q 497 -15 626 -15 m 497 94 q 641 134 579 94 q 735 242 703 174 q 768 394 768 310 q 735 547 768 479 q 641 655 703 615 q 497 694 579 694 q 353 655 414 694 q 259 547 292 615 q 226 393 226 478 q 259 240 226 308 q 353 133 292 172 q 497 94 414 94 m 338 972 l 654 972 l 654 893 l 338 893 l 338 972 z "},"Ṓ":{"ha":994,"x_min":63,"x_max":931,"o":"m 497 -15 q 269 38 368 -15 q 117 185 171 92 q 63 392 63 278 q 117 600 63 506 q 269 749 171 694 q 497 803 368 803 q 724 749 625 803 q 876 601 822 694 q 931 393 931 507 q 877 185 931 279 q 725 38 824 92 q 497 -15 626 -15 m 497 94 q 641 134 579 94 q 735 242 703 174 q 768 394 768 310 q 735 547 768 479 q 641 655 703 615 q 497 694 579 694 q 353 655 414 694 q 259 547 292 615 q 226 393 226 478 q 259 240 226 308 q 353 133 292 172 q 497 94 414 94 m 338 972 l 654 972 l 654 893 l 338 893 l 338 972 m 524 1283 l 667 1283 l 538 1068 l 454 1068 l 524 1283 z "},"Ṑ":{"ha":994,"x_min":63,"x_max":931,"o":"m 497 -15 q 269 38 368 -15 q 117 185 171 92 q 63 392 63 278 q 117 600 63 506 q 269 749 171 694 q 497 803 368 803 q 724 749 625 803 q 876 601 822 694 q 931 393 931 507 q 877 185 931 279 q 725 38 824 92 q 497 -15 626 -15 m 497 94 q 641 134 579 94 q 735 242 703 174 q 768 394 768 310 q 735 547 768 479 q 641 655 703 615 q 497 694 579 694 q 353 655 414 694 q 259 547 292 615 q 226 393 226 478 q 259 240 226 308 q 353 133 292 172 q 497 94 414 94 m 338 972 l 654 972 l 654 893 l 338 893 l 338 972 m 325 1283 l 467 1283 l 536 1068 l 453 1068 l 325 1283 z "},"Ǫ":{"ha":994,"x_min":63,"x_max":931,"o":"m 931 393 q 883 195 931 285 q 746 50 835 106 q 540 -14 657 -6 q 492 -111 492 -71 q 510 -154 492 -139 q 558 -169 528 -169 q 619 -154 590 -169 l 619 -221 q 525 -246 571 -246 q 441 -216 474 -246 q 408 -140 408 -186 q 474 -15 408 -78 q 258 45 351 -10 q 113 191 164 100 q 63 392 63 282 q 117 600 63 506 q 269 749 171 694 q 497 803 368 803 q 724 749 625 803 q 876 601 822 694 q 931 393 931 507 m 226 393 q 259 240 226 308 q 353 133 292 172 q 497 94 414 94 q 641 134 579 94 q 735 242 703 174 q 768 394 768 310 q 735 547 768 479 q 641 655 703 615 q 497 694 579 694 q 353 655 414 694 q 259 547 292 615 q 226 393 226 478 z "},"Ø":{"ha":932,"x_min":32,"x_max":900,"o":"m 764 699 q 865 563 829 642 q 900 392 900 483 q 847 184 900 278 q 694 37 793 90 q 467 -17 596 -17 q 247 33 344 -17 l 176 -58 l 111 -11 l 179 76 q 70 213 108 132 q 32 390 32 294 q 86 599 32 504 q 239 747 140 693 q 467 801 338 801 q 699 744 596 801 l 768 835 l 833 789 l 764 699 m 196 392 q 263 185 196 267 l 622 646 q 467 693 556 693 q 322 653 383 693 q 228 545 261 614 q 196 392 196 476 m 467 93 q 610 133 549 93 q 705 240 672 172 q 738 393 738 308 q 679 589 738 508 l 324 132 q 467 93 385 93 z "},"Ǿ":{"ha":932,"x_min":32,"x_max":900,"o":"m 764 699 q 865 563 829 642 q 900 392 900 483 q 847 184 900 278 q 694 37 793 90 q 467 -17 596 -17 q 247 33 344 -17 l 176 -58 l 111 -11 l 179 76 q 70 213 108 132 q 32 390 32 294 q 86 599 32 504 q 239 747 140 693 q 467 801 338 801 q 699 744 596 801 l 768 835 l 833 789 l 764 699 m 196 392 q 263 185 196 267 l 622 646 q 467 693 556 693 q 322 653 383 693 q 228 545 261 614 q 196 392 196 476 m 467 93 q 610 133 549 93 q 705 240 672 172 q 738 393 738 308 q 679 589 738 508 l 324 132 q 467 93 385 93 m 494 1110 l 638 1110 l 508 894 l 425 894 l 494 1110 z "},"Õ":{"ha":994,"x_min":63,"x_max":931,"o":"m 497 -15 q 269 38 368 -15 q 117 185 171 92 q 63 392 63 278 q 117 600 63 506 q 269 749 171 694 q 497 803 368 803 q 724 749 625 803 q 876 601 822 694 q 931 393 931 507 q 877 185 931 279 q 725 38 824 92 q 497 -15 626 -15 m 497 94 q 641 134 579 94 q 735 242 703 174 q 768 394 768 310 q 735 547 768 479 q 641 655 703 615 q 497 694 579 694 q 353 655 414 694 q 259 547 292 615 q 226 393 226 478 q 259 240 226 308 q 353 133 292 172 q 497 94 414 94 m 588 892 q 538 900 563 892 q 475 924 513 908 q 396 947 417 947 q 347 899 356 947 l 286 899 q 324 1011 292 975 q 408 1047 357 1047 q 449 1041 428 1047 q 489 1027 469 1035 q 515 1017 508 1019 q 593 992 568 992 q 628 1003 615 992 q 647 1043 642 1015 l 706 1043 q 670 931 700 971 q 588 892 640 892 z "},"Ṍ":{"ha":994,"x_min":63,"x_max":931,"o":"m 497 -15 q 269 38 368 -15 q 117 185 171 92 q 63 392 63 278 q 117 600 63 506 q 269 749 171 694 q 497 803 368 803 q 724 749 625 803 q 876 601 822 694 q 931 393 931 507 q 877 185 931 279 q 725 38 824 92 q 497 -15 626 -15 m 497 94 q 641 134 579 94 q 735 242 703 174 q 768 394 768 310 q 735 547 768 479 q 641 655 703 615 q 497 694 579 694 q 353 655 414 694 q 259 547 292 615 q 226 393 226 478 q 259 240 226 308 q 353 133 292 172 q 497 94 414 94 m 588 892 q 538 900 563 892 q 475 924 513 908 q 396 947 417 947 q 347 899 356 947 l 286 899 q 324 1011 292 975 q 408 1047 357 1047 q 449 1041 428 1047 q 489 1027 469 1035 q 515 1017 508 1019 q 593 992 568 992 q 628 1003 615 992 q 647 1043 642 1015 l 706 1043 q 670 931 700 971 q 588 892 640 892 m 525 1338 l 668 1338 l 539 1122 l 456 1122 l 525 1338 z "},"Ṏ":{"ha":994,"x_min":63,"x_max":931,"o":"m 497 -15 q 269 38 368 -15 q 117 185 171 92 q 63 392 63 278 q 117 600 63 506 q 269 749 171 694 q 497 803 368 803 q 724 749 625 803 q 876 601 822 694 q 931 393 931 507 q 877 185 931 279 q 725 38 824 92 q 497 -15 626 -15 m 497 94 q 641 134 579 94 q 735 242 703 174 q 768 394 768 310 q 735 547 768 479 q 641 655 703 615 q 497 694 579 694 q 353 655 414 694 q 259 547 292 615 q 226 393 226 478 q 259 240 226 308 q 353 133 292 172 q 497 94 414 94 m 588 892 q 538 900 563 892 q 475 924 513 908 q 396 947 417 947 q 347 899 356 947 l 286 899 q 324 1011 292 975 q 408 1047 357 1047 q 449 1041 428 1047 q 489 1027 469 1035 q 515 1017 508 1019 q 593 992 568 992 q 628 1003 615 992 q 647 1043 642 1015 l 706 1043 q 670 931 700 971 q 588 892 640 892 m 351 1111 q 294 1131 317 1111 q 272 1186 272 1151 q 294 1241 272 1221 q 351 1261 317 1261 q 408 1241 386 1261 q 429 1186 429 1221 q 408 1131 429 1151 q 351 1111 386 1111 m 643 1111 q 587 1131 608 1111 q 565 1186 565 1151 q 587 1241 565 1221 q 643 1261 608 1261 q 700 1241 678 1261 q 722 1186 722 1221 q 700 1131 722 1151 q 643 1111 678 1111 z "},"Ȭ":{"ha":994,"x_min":63,"x_max":931,"o":"m 497 -15 q 269 38 368 -15 q 117 185 171 92 q 63 392 63 278 q 117 600 63 506 q 269 749 171 694 q 497 803 368 803 q 724 749 625 803 q 876 601 822 694 q 931 393 931 507 q 877 185 931 279 q 725 38 824 92 q 497 -15 626 -15 m 497 94 q 641 134 579 94 q 735 242 703 174 q 768 394 768 310 q 735 547 768 479 q 641 655 703 615 q 497 694 579 694 q 353 655 414 694 q 259 547 292 615 q 226 393 226 478 q 259 240 226 308 q 353 133 292 172 q 497 94 414 94 m 588 892 q 538 900 563 892 q 475 924 513 908 q 396 947 417 947 q 347 899 356 947 l 286 899 q 324 1011 292 975 q 408 1047 357 1047 q 449 1041 428 1047 q 489 1027 469 1035 q 515 1017 508 1019 q 593 992 568 992 q 628 1003 615 992 q 647 1043 642 1015 l 706 1043 q 670 931 700 971 q 588 892 640 892 m 339 1200 l 656 1200 l 656 1121 l 339 1121 l 339 1200 z "},"Œ":{"ha":1356,"x_min":63,"x_max":1286,"o":"m 513 0 q 274 48 375 0 q 117 185 172 96 q 63 396 63 275 q 117 604 63 515 q 274 741 172 693 q 513 789 375 789 l 1281 789 l 1281 539 l 1172 539 l 1172 692 l 828 692 l 828 449 l 1032 449 l 1032 535 l 1110 535 l 1110 265 l 1032 265 l 1032 354 l 828 354 l 828 96 l 1179 96 l 1179 260 l 1286 260 l 1286 0 l 513 0 m 674 96 l 674 692 l 529 692 q 307 613 389 692 q 225 396 225 533 q 307 177 225 258 q 529 96 389 96 l 674 96 z "},"P":{"ha":814,"x_min":58,"x_max":771,"o":"m 58 97 l 157 97 l 157 692 l 58 692 l 58 789 l 461 789 q 692 732 614 789 q 771 561 771 675 q 692 381 771 442 q 463 319 614 319 l 365 319 l 365 417 l 450 417 q 569 453 528 417 q 611 558 611 490 q 574 657 611 622 q 467 692 536 692 l 311 692 l 311 97 l 414 97 l 414 0 l 58 0 l 58 97 z "},"Ṗ":{"ha":814,"x_min":58,"x_max":771,"o":"m 58 97 l 157 97 l 157 692 l 58 692 l 58 789 l 461 789 q 692 732 614 789 q 771 561 771 675 q 692 381 771 442 q 463 319 614 319 l 365 319 l 365 417 l 450 417 q 569 453 528 417 q 611 558 611 490 q 574 657 611 622 q 467 692 536 692 l 311 692 l 311 97 l 414 97 l 414 0 l 58 0 l 58 97 m 419 886 q 360 909 383 886 q 336 965 336 932 q 359 1022 336 1000 q 419 1044 382 1044 q 478 1023 456 1044 q 501 965 501 1001 q 480 909 503 932 q 419 886 457 886 z "},"Þ":{"ha":804,"x_min":69,"x_max":761,"o":"m 483 610 q 690 561 619 610 q 761 418 761 513 q 485 219 761 219 l 368 219 l 368 294 l 471 294 q 572 326 536 294 q 608 418 608 357 q 571 501 608 471 q 468 531 533 531 l 324 531 l 324 97 l 426 97 l 426 0 l 69 0 l 69 97 l 168 97 l 168 692 l 69 692 l 69 789 l 426 789 l 426 692 l 324 692 l 324 610 l 483 610 z "},"Q":{"ha":992,"x_min":63,"x_max":931,"o":"m 743 -207 q 436 -10 546 -207 q 239 57 324 1 q 108 200 154 113 q 63 392 63 288 q 117 600 63 506 q 269 749 171 694 q 497 803 368 803 q 724 749 625 803 q 876 601 822 694 q 931 393 931 507 q 887 203 931 290 q 762 61 843 117 q 571 -10 681 6 q 747 -108 638 -108 q 842 -93 789 -108 l 843 -190 q 743 -207 796 -207 m 497 94 q 641 134 579 94 q 735 242 703 174 q 768 394 768 310 q 735 547 768 479 q 641 655 703 615 q 497 694 579 694 q 353 655 414 694 q 259 547 292 615 q 226 393 226 478 q 259 240 226 308 q 353 133 292 172 q 497 94 414 94 z "},"R":{"ha":900,"x_min":58,"x_max":861,"o":"m 58 97 l 157 97 l 157 692 l 58 692 l 58 789 l 494 789 q 706 735 629 789 q 783 574 783 682 q 594 364 783 400 l 757 97 l 861 97 l 861 0 l 647 0 l 446 347 l 363 347 l 363 446 l 476 446 q 592 482 557 446 q 626 574 626 518 q 592 659 626 626 q 492 692 558 692 l 311 692 l 311 97 l 408 97 l 408 0 l 58 0 l 58 97 z "},"Ŕ":{"ha":900,"x_min":58,"x_max":861,"o":"m 58 97 l 157 97 l 157 692 l 58 692 l 58 789 l 494 789 q 706 735 629 789 q 783 574 783 682 q 594 364 783 400 l 757 97 l 861 97 l 861 0 l 647 0 l 446 347 l 363 347 l 363 446 l 476 446 q 592 482 557 446 q 626 574 626 518 q 592 659 626 626 q 492 692 558 692 l 311 692 l 311 97 l 408 97 l 408 0 l 58 0 l 58 97 m 461 1110 l 604 1110 l 475 894 l 392 894 l 461 1110 z "},"Ř":{"ha":900,"x_min":58,"x_max":861,"o":"m 58 97 l 157 97 l 157 692 l 58 692 l 58 789 l 494 789 q 706 735 629 789 q 783 574 783 682 q 594 364 783 400 l 757 97 l 861 97 l 861 0 l 647 0 l 446 347 l 363 347 l 363 446 l 476 446 q 592 482 557 446 q 626 574 626 518 q 592 659 626 626 q 492 692 558 692 l 311 692 l 311 97 l 408 97 l 408 0 l 58 0 l 58 97 m 254 1088 l 350 1088 l 436 935 l 521 1088 l 611 1088 l 506 867 l 365 867 l 254 1088 z "},"Ŗ":{"ha":900,"x_min":58,"x_max":861,"o":"m 58 97 l 157 97 l 157 692 l 58 692 l 58 789 l 494 789 q 706 735 629 789 q 783 574 783 682 q 594 364 783 400 l 757 97 l 861 97 l 861 0 l 647 0 l 446 347 l 363 347 l 363 446 l 476 446 q 592 482 557 446 q 626 574 626 518 q 592 659 626 626 q 492 692 558 692 l 311 692 l 311 97 l 408 97 l 408 0 l 58 0 l 58 97 m 394 -306 q 456 -276 436 -299 q 475 -207 475 -253 l 393 -207 l 393 -72 l 547 -72 l 547 -200 q 510 -318 547 -278 q 394 -358 474 -358 l 394 -306 z "},"Ȑ":{"ha":900,"x_min":58,"x_max":861,"o":"m 58 97 l 157 97 l 157 692 l 58 692 l 58 789 l 494 789 q 706 735 629 789 q 783 574 783 682 q 594 364 783 400 l 757 97 l 861 97 l 861 0 l 647 0 l 446 347 l 363 347 l 363 446 l 476 446 q 592 482 557 446 q 626 574 626 518 q 592 659 626 626 q 492 692 558 692 l 311 692 l 311 97 l 408 97 l 408 0 l 58 0 l 58 97 m 139 1117 l 281 1117 l 354 894 l 271 894 l 139 1117 m 356 1117 l 497 1117 l 569 894 l 486 894 l 356 1117 z "},"Ṛ":{"ha":900,"x_min":58,"x_max":861,"o":"m 58 97 l 157 97 l 157 692 l 58 692 l 58 789 l 494 789 q 706 735 629 789 q 783 574 783 682 q 594 364 783 400 l 757 97 l 861 97 l 861 0 l 647 0 l 446 347 l 363 347 l 363 446 l 476 446 q 592 482 557 446 q 626 574 626 518 q 592 659 626 626 q 492 692 558 692 l 311 692 l 311 97 l 408 97 l 408 0 l 58 0 l 58 97 m 468 -219 q 411 -199 433 -219 q 389 -146 389 -178 q 411 -93 389 -114 q 468 -72 433 -72 q 526 -93 504 -72 q 547 -149 547 -114 q 525 -199 547 -178 q 468 -219 503 -219 z "},"Ȓ":{"ha":900,"x_min":58,"x_max":861,"o":"m 58 97 l 157 97 l 157 692 l 58 692 l 58 789 l 494 789 q 706 735 629 789 q 783 574 783 682 q 594 364 783 400 l 757 97 l 861 97 l 861 0 l 647 0 l 446 347 l 363 347 l 363 446 l 476 446 q 592 482 557 446 q 626 574 626 518 q 592 659 626 626 q 492 692 558 692 l 311 692 l 311 97 l 408 97 l 408 0 l 58 0 l 58 97 m 253 863 q 307 988 258 943 q 433 1033 356 1033 q 559 988 511 1033 q 613 863 607 943 l 517 863 q 433 939 504 939 q 349 863 361 939 l 253 863 z "},"Ṟ":{"ha":900,"x_min":58,"x_max":861,"o":"m 58 97 l 157 97 l 157 692 l 58 692 l 58 789 l 494 789 q 706 735 629 789 q 783 574 783 682 q 594 364 783 400 l 757 97 l 861 97 l 861 0 l 647 0 l 446 347 l 363 347 l 363 446 l 476 446 q 592 482 557 446 q 626 574 626 518 q 592 659 626 626 q 492 692 558 692 l 311 692 l 311 97 l 408 97 l 408 0 l 58 0 l 58 97 m 310 -69 l 626 -69 l 626 -149 l 310 -149 l 310 -69 z "},"S":{"ha":758,"x_min":86,"x_max":700,"o":"m 432 468 q 637 388 574 442 q 700 224 700 333 q 669 101 700 156 q 579 17 638 47 q 440 -14 521 -14 q 304 15 368 -14 q 204 93 240 43 l 204 0 l 92 0 l 92 267 l 194 267 q 271 135 210 186 q 424 85 332 85 q 522 115 486 85 q 558 199 558 144 q 542 267 558 242 q 491 308 526 293 q 390 333 456 322 l 338 343 q 86 581 86 390 q 155 744 86 685 q 339 804 224 804 q 464 781 408 804 q 554 717 519 758 l 554 789 l 663 789 l 663 564 l 563 564 q 501 665 547 624 q 364 706 456 706 q 268 677 303 706 q 233 600 233 649 q 272 519 233 549 q 393 475 311 490 l 432 468 z "},"Ś":{"ha":758,"x_min":86,"x_max":700,"o":"m 432 468 q 637 388 574 442 q 700 224 700 333 q 669 101 700 156 q 579 17 638 47 q 440 -14 521 -14 q 304 15 368 -14 q 204 93 240 43 l 204 0 l 92 0 l 92 267 l 194 267 q 271 135 210 186 q 424 85 332 85 q 522 115 486 85 q 558 199 558 144 q 542 267 558 242 q 491 308 526 293 q 390 333 456 322 l 338 343 q 86 581 86 390 q 155 744 86 685 q 339 804 224 804 q 464 781 408 804 q 554 717 519 758 l 554 789 l 663 789 l 663 564 l 563 564 q 501 665 547 624 q 364 706 456 706 q 268 677 303 706 q 233 600 233 649 q 272 519 233 549 q 393 475 311 490 l 432 468 m 428 1110 l 571 1110 l 442 894 l 358 894 l 428 1110 z "},"Ṥ":{"ha":758,"x_min":86,"x_max":700,"o":"m 432 468 q 637 388 574 442 q 700 224 700 333 q 669 101 700 156 q 579 17 638 47 q 440 -14 521 -14 q 304 15 368 -14 q 204 93 240 43 l 204 0 l 92 0 l 92 267 l 194 267 q 271 135 210 186 q 424 85 332 85 q 522 115 486 85 q 558 199 558 144 q 542 267 558 242 q 491 308 526 293 q 390 333 456 322 l 338 343 q 86 581 86 390 q 155 744 86 685 q 339 804 224 804 q 464 781 408 804 q 554 717 519 758 l 554 789 l 663 789 l 663 564 l 563 564 q 501 665 547 624 q 364 706 456 706 q 268 677 303 706 q 233 600 233 649 q 272 519 233 549 q 393 475 311 490 l 432 468 m 428 1110 l 571 1110 l 442 894 l 358 894 l 428 1110 m 400 1221 q 340 1244 364 1221 q 317 1300 317 1267 q 340 1357 317 1335 q 400 1379 363 1379 q 459 1358 436 1379 q 482 1300 482 1336 q 460 1244 483 1267 q 400 1221 438 1221 z "},"Š":{"ha":758,"x_min":86,"x_max":700,"o":"m 432 468 q 637 388 574 442 q 700 224 700 333 q 669 101 700 156 q 579 17 638 47 q 440 -14 521 -14 q 304 15 368 -14 q 204 93 240 43 l 204 0 l 92 0 l 92 267 l 194 267 q 271 135 210 186 q 424 85 332 85 q 522 115 486 85 q 558 199 558 144 q 542 267 558 242 q 491 308 526 293 q 390 333 456 322 l 338 343 q 86 581 86 390 q 155 744 86 685 q 339 804 224 804 q 464 781 408 804 q 554 717 519 758 l 554 789 l 663 789 l 663 564 l 563 564 q 501 665 547 624 q 364 706 456 706 q 268 677 303 706 q 233 600 233 649 q 272 519 233 549 q 393 475 311 490 l 432 468 m 221 1088 l 317 1088 l 403 935 l 488 1088 l 578 1088 l 472 867 l 332 867 l 221 1088 z "},"Ṧ":{"ha":758,"x_min":86,"x_max":700,"o":"m 432 468 q 637 388 574 442 q 700 224 700 333 q 669 101 700 156 q 579 17 638 47 q 440 -14 521 -14 q 304 15 368 -14 q 204 93 240 43 l 204 0 l 92 0 l 92 267 l 194 267 q 271 135 210 186 q 424 85 332 85 q 522 115 486 85 q 558 199 558 144 q 542 267 558 242 q 491 308 526 293 q 390 333 456 322 l 338 343 q 86 581 86 390 q 155 744 86 685 q 339 804 224 804 q 464 781 408 804 q 554 717 519 758 l 554 789 l 663 789 l 663 564 l 563 564 q 501 665 547 624 q 364 706 456 706 q 268 677 303 706 q 233 600 233 649 q 272 519 233 549 q 393 475 311 490 l 432 468 m 221 1088 l 317 1088 l 403 935 l 488 1088 l 578 1088 l 472 867 l 332 867 l 221 1088 m 400 1183 q 340 1206 364 1183 q 317 1263 317 1229 q 340 1319 317 1297 q 400 1342 363 1342 q 459 1320 436 1342 q 482 1263 482 1299 q 460 1206 483 1229 q 400 1183 438 1183 z "},"Ş":{"ha":758,"x_min":86,"x_max":700,"o":"m 700 224 q 631 54 700 121 q 444 -14 563 -12 l 426 -79 q 503 -110 478 -86 q 528 -169 528 -135 q 497 -235 528 -214 q 418 -257 467 -257 q 297 -228 358 -257 l 297 -182 q 375 -197 340 -197 q 428 -160 428 -197 q 347 -115 428 -119 l 389 -10 q 282 25 331 -1 q 204 93 233 51 l 204 0 l 92 0 l 92 267 l 194 267 q 271 135 210 186 q 424 85 332 85 q 522 115 486 85 q 558 199 558 144 q 542 267 558 242 q 491 308 526 293 q 390 333 456 322 l 338 343 q 86 581 86 390 q 155 744 86 685 q 339 804 224 804 q 464 781 408 804 q 554 717 519 758 l 554 789 l 663 789 l 663 564 l 563 564 q 501 665 547 624 q 364 706 456 706 q 268 677 303 706 q 233 600 233 649 q 272 519 233 549 q 393 475 311 490 l 432 468 q 637 388 574 442 q 700 224 700 333 z "},"Ŝ":{"ha":758,"x_min":86,"x_max":700,"o":"m 432 468 q 637 388 574 442 q 700 224 700 333 q 669 101 700 156 q 579 17 638 47 q 440 -14 521 -14 q 304 15 368 -14 q 204 93 240 43 l 204 0 l 92 0 l 92 267 l 194 267 q 271 135 210 186 q 424 85 332 85 q 522 115 486 85 q 558 199 558 144 q 542 267 558 242 q 491 308 526 293 q 390 333 456 322 l 338 343 q 86 581 86 390 q 155 744 86 685 q 339 804 224 804 q 464 781 408 804 q 554 717 519 758 l 554 789 l 663 789 l 663 564 l 563 564 q 501 665 547 624 q 364 706 456 706 q 268 677 303 706 q 233 600 233 649 q 272 519 233 549 q 393 475 311 490 l 432 468 m 329 1094 l 472 1094 l 588 868 l 493 868 l 400 1038 l 307 868 l 213 868 l 329 1094 z "},"Ș":{"ha":758,"x_min":86,"x_max":700,"o":"m 432 468 q 637 388 574 442 q 700 224 700 333 q 669 101 700 156 q 579 17 638 47 q 440 -14 521 -14 q 304 15 368 -14 q 204 93 240 43 l 204 0 l 92 0 l 92 267 l 194 267 q 271 135 210 186 q 424 85 332 85 q 522 115 486 85 q 558 199 558 144 q 542 267 558 242 q 491 308 526 293 q 390 333 456 322 l 338 343 q 86 581 86 390 q 155 744 86 685 q 339 804 224 804 q 464 781 408 804 q 554 717 519 758 l 554 789 l 663 789 l 663 564 l 563 564 q 501 665 547 624 q 364 706 456 706 q 268 677 303 706 q 233 600 233 649 q 272 519 233 549 q 393 475 311 490 l 432 468 m 346 -306 q 407 -276 388 -299 q 426 -207 426 -253 l 344 -207 l 344 -72 l 499 -72 l 499 -200 q 462 -318 499 -278 q 346 -358 425 -358 l 346 -306 z "},"Ṡ":{"ha":758,"x_min":86,"x_max":700,"o":"m 432 468 q 637 388 574 442 q 700 224 700 333 q 669 101 700 156 q 579 17 638 47 q 440 -14 521 -14 q 304 15 368 -14 q 204 93 240 43 l 204 0 l 92 0 l 92 267 l 194 267 q 271 135 210 186 q 424 85 332 85 q 522 115 486 85 q 558 199 558 144 q 542 267 558 242 q 491 308 526 293 q 390 333 456 322 l 338 343 q 86 581 86 390 q 155 744 86 685 q 339 804 224 804 q 464 781 408 804 q 554 717 519 758 l 554 789 l 663 789 l 663 564 l 563 564 q 501 665 547 624 q 364 706 456 706 q 268 677 303 706 q 233 600 233 649 q 272 519 233 549 q 393 475 311 490 l 432 468 m 400 886 q 340 909 364 886 q 317 965 317 932 q 340 1022 317 1000 q 400 1044 363 1044 q 459 1023 436 1044 q 482 965 482 1001 q 460 909 483 932 q 400 886 438 886 z "},"Ṣ":{"ha":758,"x_min":86,"x_max":700,"o":"m 432 468 q 637 388 574 442 q 700 224 700 333 q 669 101 700 156 q 579 17 638 47 q 440 -14 521 -14 q 304 15 368 -14 q 204 93 240 43 l 204 0 l 92 0 l 92 267 l 194 267 q 271 135 210 186 q 424 85 332 85 q 522 115 486 85 q 558 199 558 144 q 542 267 558 242 q 491 308 526 293 q 390 333 456 322 l 338 343 q 86 581 86 390 q 155 744 86 685 q 339 804 224 804 q 464 781 408 804 q 554 717 519 758 l 554 789 l 663 789 l 663 564 l 563 564 q 501 665 547 624 q 364 706 456 706 q 268 677 303 706 q 233 600 233 649 q 272 519 233 549 q 393 475 311 490 l 432 468 m 419 -219 q 363 -199 385 -219 q 340 -146 340 -178 q 363 -93 340 -114 q 419 -72 385 -72 q 477 -93 456 -72 q 499 -149 499 -114 q 476 -199 499 -178 q 419 -219 454 -219 z "},"Ṩ":{"ha":758,"x_min":86,"x_max":700,"o":"m 432 468 q 637 388 574 442 q 700 224 700 333 q 669 101 700 156 q 579 17 638 47 q 440 -14 521 -14 q 304 15 368 -14 q 204 93 240 43 l 204 0 l 92 0 l 92 267 l 194 267 q 271 135 210 186 q 424 85 332 85 q 522 115 486 85 q 558 199 558 144 q 542 267 558 242 q 491 308 526 293 q 390 333 456 322 l 338 343 q 86 581 86 390 q 155 744 86 685 q 339 804 224 804 q 464 781 408 804 q 554 717 519 758 l 554 789 l 663 789 l 663 564 l 563 564 q 501 665 547 624 q 364 706 456 706 q 268 677 303 706 q 233 600 233 649 q 272 519 233 549 q 393 475 311 490 l 432 468 m 419 -219 q 363 -199 385 -219 q 340 -146 340 -178 q 363 -93 340 -114 q 419 -72 385 -72 q 477 -93 456 -72 q 499 -149 499 -114 q 476 -199 499 -178 q 419 -219 454 -219 m 400 886 q 340 909 364 886 q 317 965 317 932 q 340 1022 317 1000 q 400 1044 363 1044 q 459 1023 436 1044 q 482 965 482 1001 q 460 909 483 932 q 400 886 438 886 z "},"ẞ":{"ha":856,"x_min":56,"x_max":804,"o":"m 479 96 q 607 133 565 99 q 649 231 649 167 q 440 371 649 371 l 440 449 l 606 671 q 458 694 543 694 q 324 652 372 694 q 276 524 276 610 l 276 97 l 354 97 l 354 0 l 56 0 l 56 97 l 125 97 l 125 518 q 208 729 125 656 q 453 803 292 803 q 719 740 601 803 l 719 643 l 572 447 q 744 376 685 432 q 804 222 804 319 q 721 45 804 104 q 479 -14 638 -14 l 479 96 z "},"Ə":{"ha":938,"x_min":58,"x_max":875,"o":"m 456 803 q 672 752 576 803 q 822 609 768 701 q 875 396 875 517 q 821 180 875 274 q 672 35 767 86 q 457 -15 576 -15 q 242 35 332 -15 q 106 175 153 85 q 58 385 58 265 l 58 429 l 708 429 q 622 613 694 547 q 436 679 549 679 q 126 558 271 679 l 69 656 q 242 761 144 719 q 456 803 339 803 m 461 97 q 630 160 563 97 q 708 335 697 224 l 221 335 q 287 160 221 224 q 461 97 353 97 z "},"T":{"ha":815,"x_min":35,"x_max":779,"o":"m 231 97 l 332 97 l 332 693 l 143 693 l 143 508 l 35 508 l 35 789 l 779 789 l 779 508 l 672 508 l 672 693 l 486 693 l 486 97 l 588 97 l 588 0 l 231 0 l 231 97 z "},"Ŧ":{"ha":815,"x_min":35,"x_max":779,"o":"m 779 789 l 779 508 l 672 508 l 672 693 l 486 693 l 486 431 l 574 431 l 574 351 l 486 351 l 486 97 l 588 97 l 588 0 l 231 0 l 231 97 l 332 97 l 332 351 l 240 351 l 240 431 l 332 431 l 332 693 l 143 693 l 143 508 l 35 508 l 35 789 l 779 789 z "},"Ť":{"ha":815,"x_min":35,"x_max":779,"o":"m 231 97 l 332 97 l 332 693 l 143 693 l 143 508 l 35 508 l 35 789 l 779 789 l 779 508 l 672 508 l 672 693 l 486 693 l 486 97 l 588 97 l 588 0 l 231 0 l 231 97 m 228 1088 l 324 1088 l 410 935 l 494 1088 l 585 1088 l 479 867 l 339 867 l 228 1088 z "},"Ţ":{"ha":815,"x_min":35,"x_max":779,"o":"m 231 97 l 332 97 l 332 693 l 143 693 l 143 508 l 35 508 l 35 789 l 779 789 l 779 508 l 672 508 l 672 693 l 486 693 l 486 97 l 588 97 l 588 0 l 231 0 l 231 97 m 408 -257 q 288 -228 349 -257 l 288 -182 q 365 -197 331 -197 q 418 -160 418 -197 q 338 -115 418 -119 l 383 0 l 439 0 l 417 -79 q 493 -110 468 -86 q 518 -169 518 -135 q 488 -235 518 -214 q 408 -257 457 -257 z "},"Ț":{"ha":815,"x_min":35,"x_max":779,"o":"m 231 97 l 332 97 l 332 693 l 143 693 l 143 508 l 35 508 l 35 789 l 779 789 l 779 508 l 672 508 l 672 693 l 486 693 l 486 97 l 588 97 l 588 0 l 231 0 l 231 97 m 336 -306 q 397 -276 378 -299 q 417 -207 417 -253 l 335 -207 l 335 -72 l 489 -72 l 489 -200 q 452 -318 489 -278 q 336 -358 415 -358 l 336 -306 z "},"Ṫ":{"ha":815,"x_min":35,"x_max":779,"o":"m 231 97 l 332 97 l 332 693 l 143 693 l 143 508 l 35 508 l 35 789 l 779 789 l 779 508 l 672 508 l 672 693 l 486 693 l 486 97 l 588 97 l 588 0 l 231 0 l 231 97 m 407 886 q 347 909 371 886 q 324 965 324 932 q 347 1022 324 1000 q 407 1044 369 1044 q 466 1023 443 1044 q 489 965 489 1001 q 467 909 490 932 q 407 886 444 886 z "},"Ṭ":{"ha":815,"x_min":35,"x_max":779,"o":"m 231 97 l 332 97 l 332 693 l 143 693 l 143 508 l 35 508 l 35 789 l 779 789 l 779 508 l 672 508 l 672 693 l 486 693 l 486 97 l 588 97 l 588 0 l 231 0 l 231 97 m 410 -219 q 353 -199 375 -219 q 331 -146 331 -178 q 353 -93 331 -114 q 410 -72 375 -72 q 467 -93 446 -72 q 489 -149 489 -114 q 467 -199 489 -178 q 410 -219 444 -219 z "},"Ṯ":{"ha":815,"x_min":35,"x_max":779,"o":"m 231 97 l 332 97 l 332 693 l 143 693 l 143 508 l 35 508 l 35 789 l 779 789 l 779 508 l 672 508 l 672 693 l 486 693 l 486 97 l 588 97 l 588 0 l 231 0 l 231 97 m 251 -69 l 568 -69 l 568 -149 l 251 -149 l 251 -69 z "},"U":{"ha":942,"x_min":40,"x_max":910,"o":"m 475 -14 q 219 66 304 -14 q 135 286 135 146 l 135 692 l 40 692 l 40 789 l 388 789 l 388 692 l 289 692 l 289 276 q 340 140 289 189 q 483 90 392 90 q 635 140 581 90 q 689 278 689 189 l 689 692 l 599 692 l 599 789 l 910 789 l 910 692 l 813 692 l 813 281 q 723 61 813 136 q 475 -14 633 -14 z "},"Ú":{"ha":942,"x_min":40,"x_max":910,"o":"m 475 -14 q 219 66 304 -14 q 135 286 135 146 l 135 692 l 40 692 l 40 789 l 388 789 l 388 692 l 289 692 l 289 276 q 340 140 289 189 q 483 90 392 90 q 635 140 581 90 q 689 278 689 189 l 689 692 l 599 692 l 599 789 l 910 789 l 910 692 l 813 692 l 813 281 q 723 61 813 136 q 475 -14 633 -14 m 514 1110 l 657 1110 l 528 894 l 444 894 l 514 1110 z "},"Ŭ":{"ha":942,"x_min":40,"x_max":910,"o":"m 475 -14 q 219 66 304 -14 q 135 286 135 146 l 135 692 l 40 692 l 40 789 l 388 789 l 388 692 l 289 692 l 289 276 q 340 140 289 189 q 483 90 392 90 q 635 140 581 90 q 689 278 689 189 l 689 692 l 599 692 l 599 789 l 910 789 l 910 692 l 813 692 l 813 281 q 723 61 813 136 q 475 -14 633 -14 m 482 874 q 361 915 407 874 q 310 1032 315 957 l 400 1032 q 486 951 415 951 q 543 972 521 951 q 571 1032 565 993 l 663 1032 q 608 915 656 956 q 482 874 561 874 z "},"Ǔ":{"ha":942,"x_min":40,"x_max":910,"o":"m 475 -14 q 219 66 304 -14 q 135 286 135 146 l 135 692 l 40 692 l 40 789 l 388 789 l 388 692 l 289 692 l 289 276 q 340 140 289 189 q 483 90 392 90 q 635 140 581 90 q 689 278 689 189 l 689 692 l 599 692 l 599 789 l 910 789 l 910 692 l 813 692 l 813 281 q 723 61 813 136 q 475 -14 633 -14 m 307 1088 l 403 1088 l 489 935 l 574 1088 l 664 1088 l 558 867 l 418 867 l 307 1088 z "},"Û":{"ha":942,"x_min":40,"x_max":910,"o":"m 475 -14 q 219 66 304 -14 q 135 286 135 146 l 135 692 l 40 692 l 40 789 l 388 789 l 388 692 l 289 692 l 289 276 q 340 140 289 189 q 483 90 392 90 q 635 140 581 90 q 689 278 689 189 l 689 692 l 599 692 l 599 789 l 910 789 l 910 692 l 813 692 l 813 281 q 723 61 813 136 q 475 -14 633 -14 m 415 1094 l 558 1094 l 674 868 l 579 868 l 486 1038 l 393 868 l 299 868 l 415 1094 z "},"Ȕ":{"ha":942,"x_min":40,"x_max":910,"o":"m 475 -14 q 219 66 304 -14 q 135 286 135 146 l 135 692 l 40 692 l 40 789 l 388 789 l 388 692 l 289 692 l 289 276 q 340 140 289 189 q 483 90 392 90 q 635 140 581 90 q 689 278 689 189 l 689 692 l 599 692 l 599 789 l 910 789 l 910 692 l 813 692 l 813 281 q 723 61 813 136 q 475 -14 633 -14 m 192 1117 l 333 1117 l 407 894 l 324 894 l 192 1117 m 408 1117 l 550 1117 l 622 894 l 539 894 l 408 1117 z "},"Ü":{"ha":942,"x_min":40,"x_max":910,"o":"m 475 -14 q 219 66 304 -14 q 135 286 135 146 l 135 692 l 40 692 l 40 789 l 388 789 l 388 692 l 289 692 l 289 276 q 340 140 289 189 q 483 90 392 90 q 635 140 581 90 q 689 278 689 189 l 689 692 l 599 692 l 599 789 l 910 789 l 910 692 l 813 692 l 813 281 q 723 61 813 136 q 475 -14 633 -14 m 340 883 q 283 903 306 883 q 261 958 261 924 q 283 1013 261 993 q 340 1033 306 1033 q 397 1013 375 1033 q 418 958 418 993 q 397 903 418 924 q 340 883 375 883 m 632 883 q 576 903 597 883 q 554 958 554 924 q 576 1013 554 993 q 632 1033 597 1033 q 689 1013 667 1033 q 711 958 711 993 q 689 903 711 924 q 632 883 667 883 z "},"Ụ":{"ha":942,"x_min":40,"x_max":910,"o":"m 475 -14 q 219 66 304 -14 q 135 286 135 146 l 135 692 l 40 692 l 40 789 l 388 789 l 388 692 l 289 692 l 289 276 q 340 140 289 189 q 483 90 392 90 q 635 140 581 90 q 689 278 689 189 l 689 692 l 599 692 l 599 789 l 910 789 l 910 692 l 813 692 l 813 281 q 723 61 813 136 q 475 -14 633 -14 m 479 -219 q 422 -199 444 -219 q 400 -146 400 -178 q 422 -93 400 -114 q 479 -72 444 -72 q 537 -93 515 -72 q 558 -149 558 -114 q 536 -199 558 -178 q 479 -219 514 -219 z "},"Ù":{"ha":942,"x_min":40,"x_max":910,"o":"m 475 -14 q 219 66 304 -14 q 135 286 135 146 l 135 692 l 40 692 l 40 789 l 388 789 l 388 692 l 289 692 l 289 276 q 340 140 289 189 q 483 90 392 90 q 635 140 581 90 q 689 278 689 189 l 689 692 l 599 692 l 599 789 l 910 789 l 910 692 l 813 692 l 813 281 q 723 61 813 136 q 475 -14 633 -14 m 315 1110 l 457 1110 l 526 894 l 443 894 l 315 1110 z "},"Ủ":{"ha":942,"x_min":40,"x_max":910,"o":"m 475 -14 q 219 66 304 -14 q 135 286 135 146 l 135 692 l 40 692 l 40 789 l 388 789 l 388 692 l 289 692 l 289 276 q 340 140 289 189 q 483 90 392 90 q 635 140 581 90 q 689 278 689 189 l 689 692 l 599 692 l 599 789 l 910 789 l 910 692 l 813 692 l 813 281 q 723 61 813 136 q 475 -14 633 -14 m 464 910 q 510 961 510 925 q 497 990 510 979 q 460 1000 483 1000 q 393 981 428 1000 l 372 1042 q 475 1074 417 1074 q 562 1044 529 1074 q 594 969 594 1015 q 483 849 594 876 l 464 910 z "},"Ư":{"ha":942,"x_min":40,"x_max":944,"o":"m 944 886 q 903 778 938 821 q 813 719 868 735 l 813 281 q 723 61 813 136 q 475 -14 633 -14 q 219 66 304 -14 q 135 286 135 146 l 135 692 l 40 692 l 40 789 l 388 789 l 388 692 l 289 692 l 289 276 q 340 140 289 189 q 483 90 392 90 q 635 140 581 90 q 689 278 689 189 l 689 692 l 599 692 l 599 789 l 721 789 q 790 813 764 789 q 819 886 817 836 l 944 886 z "},"Ứ":{"ha":942,"x_min":40,"x_max":944,"o":"m 944 886 q 903 778 938 821 q 813 719 868 735 l 813 281 q 723 61 813 136 q 475 -14 633 -14 q 219 66 304 -14 q 135 286 135 146 l 135 692 l 40 692 l 40 789 l 388 789 l 388 692 l 289 692 l 289 276 q 340 140 289 189 q 483 90 392 90 q 635 140 581 90 q 689 278 689 189 l 689 692 l 599 692 l 599 789 l 721 789 q 790 813 764 789 q 819 886 817 836 l 944 886 m 514 1110 l 657 1110 l 528 894 l 444 894 l 514 1110 z "},"Ự":{"ha":942,"x_min":40,"x_max":944,"o":"m 944 886 q 903 778 938 821 q 813 719 868 735 l 813 281 q 723 61 813 136 q 475 -14 633 -14 q 219 66 304 -14 q 135 286 135 146 l 135 692 l 40 692 l 40 789 l 388 789 l 388 692 l 289 692 l 289 276 q 340 140 289 189 q 483 90 392 90 q 635 140 581 90 q 689 278 689 189 l 689 692 l 599 692 l 599 789 l 721 789 q 790 813 764 789 q 819 886 817 836 l 944 886 m 479 -219 q 422 -199 444 -219 q 400 -146 400 -178 q 422 -93 400 -114 q 479 -72 444 -72 q 537 -93 515 -72 q 558 -149 558 -114 q 536 -199 558 -178 q 479 -219 514 -219 z "},"Ừ":{"ha":942,"x_min":40,"x_max":944,"o":"m 944 886 q 903 778 938 821 q 813 719 868 735 l 813 281 q 723 61 813 136 q 475 -14 633 -14 q 219 66 304 -14 q 135 286 135 146 l 135 692 l 40 692 l 40 789 l 388 789 l 388 692 l 289 692 l 289 276 q 340 140 289 189 q 483 90 392 90 q 635 140 581 90 q 689 278 689 189 l 689 692 l 599 692 l 599 789 l 721 789 q 790 813 764 789 q 819 886 817 836 l 944 886 m 315 1110 l 457 1110 l 526 894 l 443 894 l 315 1110 z "},"Ử":{"ha":942,"x_min":40,"x_max":944,"o":"m 944 886 q 903 778 938 821 q 813 719 868 735 l 813 281 q 723 61 813 136 q 475 -14 633 -14 q 219 66 304 -14 q 135 286 135 146 l 135 692 l 40 692 l 40 789 l 388 789 l 388 692 l 289 692 l 289 276 q 340 140 289 189 q 483 90 392 90 q 635 140 581 90 q 689 278 689 189 l 689 692 l 599 692 l 599 789 l 721 789 q 790 813 764 789 q 819 886 817 836 l 944 886 m 464 910 q 510 961 510 925 q 497 990 510 979 q 460 1000 483 1000 q 393 981 428 1000 l 372 1042 q 475 1074 417 1074 q 562 1044 529 1074 q 594 969 594 1015 q 483 849 594 876 l 464 910 z "},"Ữ":{"ha":942,"x_min":40,"x_max":944,"o":"m 944 886 q 903 778 938 821 q 813 719 868 735 l 813 281 q 723 61 813 136 q 475 -14 633 -14 q 219 66 304 -14 q 135 286 135 146 l 135 692 l 40 692 l 40 789 l 388 789 l 388 692 l 289 692 l 289 276 q 340 140 289 189 q 483 90 392 90 q 635 140 581 90 q 689 278 689 189 l 689 692 l 599 692 l 599 789 l 721 789 q 790 813 764 789 q 819 886 817 836 l 944 886 m 578 892 q 528 900 553 892 q 465 924 503 908 q 386 947 407 947 q 338 899 346 947 l 276 899 q 315 1011 282 975 q 399 1047 347 1047 q 439 1041 418 1047 q 479 1027 460 1035 q 506 1017 499 1019 q 583 992 558 992 q 619 1003 606 992 q 638 1043 632 1015 l 696 1043 q 660 931 690 971 q 578 892 631 892 z "},"Ű":{"ha":942,"x_min":40,"x_max":910,"o":"m 475 -14 q 219 66 304 -14 q 135 286 135 146 l 135 692 l 40 692 l 40 789 l 388 789 l 388 692 l 289 692 l 289 276 q 340 140 289 189 q 483 90 392 90 q 635 140 581 90 q 689 278 689 189 l 689 692 l 599 692 l 599 789 l 910 789 l 910 692 l 813 692 l 813 281 q 723 61 813 136 q 475 -14 633 -14 m 408 1117 l 550 1117 l 418 894 l 336 894 l 408 1117 m 624 1117 l 765 1117 l 635 894 l 551 894 l 624 1117 z "},"Ȗ":{"ha":942,"x_min":40,"x_max":910,"o":"m 475 -14 q 219 66 304 -14 q 135 286 135 146 l 135 692 l 40 692 l 40 789 l 388 789 l 388 692 l 289 692 l 289 276 q 340 140 289 189 q 483 90 392 90 q 635 140 581 90 q 689 278 689 189 l 689 692 l 599 692 l 599 789 l 910 789 l 910 692 l 813 692 l 813 281 q 723 61 813 136 q 475 -14 633 -14 m 306 863 q 360 988 311 943 q 486 1033 408 1033 q 612 988 564 1033 q 665 863 660 943 l 569 863 q 486 939 557 939 q 401 863 414 939 l 306 863 z "},"Ū":{"ha":942,"x_min":40,"x_max":910,"o":"m 475 -14 q 219 66 304 -14 q 135 286 135 146 l 135 692 l 40 692 l 40 789 l 388 789 l 388 692 l 289 692 l 289 276 q 340 140 289 189 q 483 90 392 90 q 635 140 581 90 q 689 278 689 189 l 689 692 l 599 692 l 599 789 l 910 789 l 910 692 l 813 692 l 813 281 q 723 61 813 136 q 475 -14 633 -14 m 328 972 l 644 972 l 644 893 l 328 893 l 328 972 z "},"Ṻ":{"ha":942,"x_min":40,"x_max":910,"o":"m 475 -14 q 219 66 304 -14 q 135 286 135 146 l 135 692 l 40 692 l 40 789 l 388 789 l 388 692 l 289 692 l 289 276 q 340 140 289 189 q 483 90 392 90 q 635 140 581 90 q 689 278 689 189 l 689 692 l 599 692 l 599 789 l 910 789 l 910 692 l 813 692 l 813 281 q 723 61 813 136 q 475 -14 633 -14 m 328 972 l 644 972 l 644 893 l 328 893 l 328 972 m 340 1057 q 283 1077 306 1057 q 261 1132 261 1097 q 283 1187 261 1167 q 340 1207 306 1207 q 397 1187 375 1207 q 418 1132 418 1167 q 397 1077 418 1097 q 340 1057 375 1057 m 632 1057 q 576 1077 597 1057 q 554 1132 554 1097 q 576 1187 554 1167 q 632 1207 597 1207 q 689 1187 667 1207 q 711 1132 711 1167 q 689 1077 711 1097 q 632 1057 667 1057 z "},"Ų":{"ha":942,"x_min":40,"x_max":910,"o":"m 910 789 l 910 692 l 813 692 l 813 281 q 730 68 813 143 q 501 -14 647 -7 q 453 -111 453 -69 q 471 -154 453 -139 q 519 -169 489 -169 q 581 -154 551 -169 l 581 -221 q 486 -246 532 -246 q 402 -216 435 -246 q 369 -140 369 -186 q 436 -12 369 -79 q 210 76 285 -3 q 135 286 135 154 l 135 692 l 40 692 l 40 789 l 388 789 l 388 692 l 289 692 l 289 276 q 340 140 289 189 q 483 90 392 90 q 635 140 581 90 q 689 278 689 189 l 689 692 l 599 692 l 599 789 l 910 789 z "},"Ů":{"ha":942,"x_min":40,"x_max":910,"o":"m 475 -14 q 219 66 304 -14 q 135 286 135 146 l 135 692 l 40 692 l 40 789 l 388 789 l 388 692 l 289 692 l 289 276 q 340 140 289 189 q 483 90 392 90 q 635 140 581 90 q 689 278 689 189 l 689 692 l 599 692 l 599 789 l 910 789 l 910 692 l 813 692 l 813 281 q 723 61 813 136 q 475 -14 633 -14 m 486 846 q 401 877 433 846 q 369 957 369 908 q 401 1036 369 1006 q 486 1067 432 1067 q 572 1036 540 1067 q 603 957 603 1006 q 571 877 603 908 q 486 846 539 846 m 486 896 q 531 913 514 896 q 547 957 547 931 q 531 1001 547 985 q 486 1018 515 1018 q 440 1001 457 1018 q 424 957 424 985 q 440 913 424 931 q 486 896 457 896 z "},"Ũ":{"ha":942,"x_min":40,"x_max":910,"o":"m 475 -14 q 219 66 304 -14 q 135 286 135 146 l 135 692 l 40 692 l 40 789 l 388 789 l 388 692 l 289 692 l 289 276 q 340 140 289 189 q 483 90 392 90 q 635 140 581 90 q 689 278 689 189 l 689 692 l 599 692 l 599 789 l 910 789 l 910 692 l 813 692 l 813 281 q 723 61 813 136 q 475 -14 633 -14 m 578 892 q 528 900 553 892 q 465 924 503 908 q 386 947 407 947 q 338 899 346 947 l 276 899 q 315 1011 282 975 q 399 1047 347 1047 q 439 1041 418 1047 q 479 1027 460 1035 q 506 1017 499 1019 q 583 992 558 992 q 619 1003 606 992 q 638 1043 632 1015 l 696 1043 q 660 931 690 971 q 578 892 631 892 z "},"Ṹ":{"ha":942,"x_min":40,"x_max":910,"o":"m 475 -14 q 219 66 304 -14 q 135 286 135 146 l 135 692 l 40 692 l 40 789 l 388 789 l 388 692 l 289 692 l 289 276 q 340 140 289 189 q 483 90 392 90 q 635 140 581 90 q 689 278 689 189 l 689 692 l 599 692 l 599 789 l 910 789 l 910 692 l 813 692 l 813 281 q 723 61 813 136 q 475 -14 633 -14 m 578 892 q 528 900 553 892 q 465 924 503 908 q 386 947 407 947 q 338 899 346 947 l 276 899 q 315 1011 282 975 q 399 1047 347 1047 q 439 1041 418 1047 q 479 1027 460 1035 q 506 1017 499 1019 q 583 992 558 992 q 619 1003 606 992 q 638 1043 632 1015 l 696 1043 q 660 931 690 971 q 578 892 631 892 m 515 1338 l 658 1338 l 529 1122 l 446 1122 l 515 1338 z "},"V":{"ha":913,"x_min":21,"x_max":889,"o":"m 111 692 l 21 692 l 21 789 l 371 789 l 371 692 l 271 692 l 472 169 l 668 692 l 571 692 l 571 789 l 889 789 l 889 692 l 801 692 l 522 0 l 401 0 l 111 692 z "},"W":{"ha":1276,"x_min":29,"x_max":1247,"o":"m 118 692 l 29 692 l 29 789 l 351 789 l 351 692 l 258 692 l 407 201 l 596 772 l 700 772 l 889 201 l 1036 692 l 940 692 l 940 789 l 1247 789 l 1247 692 l 1158 692 l 943 0 l 828 0 l 642 547 l 456 0 l 342 0 l 118 692 z "},"Ẃ":{"ha":1276,"x_min":29,"x_max":1247,"o":"m 118 692 l 29 692 l 29 789 l 351 789 l 351 692 l 258 692 l 407 201 l 596 772 l 700 772 l 889 201 l 1036 692 l 940 692 l 940 789 l 1247 789 l 1247 692 l 1158 692 l 943 0 l 828 0 l 642 547 l 456 0 l 342 0 l 118 692 m 676 1093 l 819 1093 l 690 878 l 607 878 l 676 1093 z "},"Ŵ":{"ha":1276,"x_min":29,"x_max":1247,"o":"m 118 692 l 29 692 l 29 789 l 351 789 l 351 692 l 258 692 l 407 201 l 596 772 l 700 772 l 889 201 l 1036 692 l 940 692 l 940 789 l 1247 789 l 1247 692 l 1158 692 l 943 0 l 828 0 l 642 547 l 456 0 l 342 0 l 118 692 m 578 1078 l 721 1078 l 836 851 l 742 851 l 649 1021 l 556 851 l 461 851 l 578 1078 z "},"Ẅ":{"ha":1276,"x_min":29,"x_max":1247,"o":"m 118 692 l 29 692 l 29 789 l 351 789 l 351 692 l 258 692 l 407 201 l 596 772 l 700 772 l 889 201 l 1036 692 l 940 692 l 940 789 l 1247 789 l 1247 692 l 1158 692 l 943 0 l 828 0 l 642 547 l 456 0 l 342 0 l 118 692 m 503 867 q 446 887 468 867 q 424 942 424 907 q 446 997 424 976 q 503 1017 468 1017 q 559 997 538 1017 q 581 942 581 976 q 559 887 581 907 q 503 867 538 867 m 794 867 q 738 887 760 867 q 717 942 717 907 q 738 997 717 976 q 794 1017 760 1017 q 851 997 829 1017 q 874 942 874 976 q 851 887 874 907 q 794 867 829 867 z "},"Ẁ":{"ha":1276,"x_min":29,"x_max":1247,"o":"m 118 692 l 29 692 l 29 789 l 351 789 l 351 692 l 258 692 l 407 201 l 596 772 l 700 772 l 889 201 l 1036 692 l 940 692 l 940 789 l 1247 789 l 1247 692 l 1158 692 l 943 0 l 828 0 l 642 547 l 456 0 l 342 0 l 118 692 m 478 1093 l 619 1093 l 689 878 l 606 878 l 478 1093 z "},"X":{"ha":907,"x_min":40,"x_max":867,"o":"m 40 94 l 135 94 l 360 401 l 144 694 l 51 694 l 51 789 l 393 789 l 393 694 l 310 694 l 461 479 l 611 694 l 526 694 l 526 789 l 849 789 l 849 694 l 756 694 l 542 406 l 771 94 l 867 94 l 867 0 l 519 0 l 519 94 l 604 94 l 443 328 l 281 94 l 368 94 l 368 0 l 40 0 l 40 94 z "},"Y":{"ha":897,"x_min":18,"x_max":879,"o":"m 268 97 l 375 97 l 375 322 l 114 692 l 18 692 l 18 789 l 376 789 l 376 692 l 282 692 l 468 419 l 647 692 l 553 692 l 553 789 l 879 789 l 879 692 l 782 692 l 529 324 l 529 97 l 636 97 l 636 0 l 268 0 l 268 97 z "},"Ý":{"ha":897,"x_min":18,"x_max":879,"o":"m 268 97 l 375 97 l 375 322 l 114 692 l 18 692 l 18 789 l 376 789 l 376 692 l 282 692 l 468 419 l 647 692 l 553 692 l 553 789 l 879 789 l 879 692 l 782 692 l 529 324 l 529 97 l 636 97 l 636 0 l 268 0 l 268 97 m 492 1110 l 635 1110 l 506 894 l 422 894 l 492 1110 z "},"Ŷ":{"ha":897,"x_min":18,"x_max":879,"o":"m 268 97 l 375 97 l 375 322 l 114 692 l 18 692 l 18 789 l 376 789 l 376 692 l 282 692 l 468 419 l 647 692 l 553 692 l 553 789 l 879 789 l 879 692 l 782 692 l 529 324 l 529 97 l 636 97 l 636 0 l 268 0 l 268 97 m 393 1094 l 536 1094 l 651 868 l 557 868 l 464 1038 l 371 868 l 276 868 l 393 1094 z "},"Ÿ":{"ha":897,"x_min":18,"x_max":879,"o":"m 268 97 l 375 97 l 375 322 l 114 692 l 18 692 l 18 789 l 376 789 l 376 692 l 282 692 l 468 419 l 647 692 l 553 692 l 553 789 l 879 789 l 879 692 l 782 692 l 529 324 l 529 97 l 636 97 l 636 0 l 268 0 l 268 97 m 318 883 q 261 903 283 883 q 239 958 239 924 q 261 1013 239 993 q 318 1033 283 1033 q 374 1013 353 1033 q 396 958 396 993 q 374 903 396 924 q 318 883 353 883 m 610 883 q 553 903 575 883 q 532 958 532 924 q 553 1013 532 993 q 610 1033 575 1033 q 667 1013 644 1033 q 689 958 689 993 q 667 903 689 924 q 610 883 644 883 z "},"Ẏ":{"ha":897,"x_min":18,"x_max":879,"o":"m 268 97 l 375 97 l 375 322 l 114 692 l 18 692 l 18 789 l 376 789 l 376 692 l 282 692 l 468 419 l 647 692 l 553 692 l 553 789 l 879 789 l 879 692 l 782 692 l 529 324 l 529 97 l 636 97 l 636 0 l 268 0 l 268 97 m 464 886 q 404 909 428 886 q 381 965 381 932 q 403 1022 381 1000 q 464 1044 426 1044 q 523 1023 500 1044 q 546 965 546 1001 q 524 909 547 932 q 464 886 501 886 z "},"Ỵ":{"ha":897,"x_min":18,"x_max":879,"o":"m 268 97 l 375 97 l 375 322 l 114 692 l 18 692 l 18 789 l 376 789 l 376 692 l 282 692 l 468 419 l 647 692 l 553 692 l 553 789 l 879 789 l 879 692 l 782 692 l 529 324 l 529 97 l 636 97 l 636 0 l 268 0 l 268 97 m 453 -219 q 396 -199 418 -219 q 374 -146 374 -178 q 396 -93 374 -114 q 453 -72 418 -72 q 510 -93 489 -72 q 532 -149 532 -114 q 510 -199 532 -178 q 453 -219 488 -219 z "},"Ỳ":{"ha":897,"x_min":18,"x_max":879,"o":"m 268 97 l 375 97 l 375 322 l 114 692 l 18 692 l 18 789 l 376 789 l 376 692 l 282 692 l 468 419 l 647 692 l 553 692 l 553 789 l 879 789 l 879 692 l 782 692 l 529 324 l 529 97 l 636 97 l 636 0 l 268 0 l 268 97 m 293 1110 l 435 1110 l 504 894 l 421 894 l 293 1110 z "},"Ỷ":{"ha":897,"x_min":18,"x_max":879,"o":"m 268 97 l 375 97 l 375 322 l 114 692 l 18 692 l 18 789 l 376 789 l 376 692 l 282 692 l 468 419 l 647 692 l 553 692 l 553 789 l 879 789 l 879 692 l 782 692 l 529 324 l 529 97 l 636 97 l 636 0 l 268 0 l 268 97 m 442 910 q 488 961 488 925 q 474 990 488 979 q 438 1000 461 1000 q 371 981 406 1000 l 350 1042 q 453 1074 394 1074 q 540 1044 507 1074 q 572 969 572 1015 q 461 849 572 876 l 442 910 z "},"Ȳ":{"ha":897,"x_min":18,"x_max":879,"o":"m 268 97 l 375 97 l 375 322 l 114 692 l 18 692 l 18 789 l 376 789 l 376 692 l 282 692 l 468 419 l 647 692 l 553 692 l 553 789 l 879 789 l 879 692 l 782 692 l 529 324 l 529 97 l 636 97 l 636 0 l 268 0 l 268 97 m 306 972 l 622 972 l 622 893 l 306 893 l 306 972 z "},"Ỹ":{"ha":897,"x_min":18,"x_max":879,"o":"m 268 97 l 375 97 l 375 322 l 114 692 l 18 692 l 18 789 l 376 789 l 376 692 l 282 692 l 468 419 l 647 692 l 553 692 l 553 789 l 879 789 l 879 692 l 782 692 l 529 324 l 529 97 l 636 97 l 636 0 l 268 0 l 268 97 m 556 892 q 506 900 531 892 q 443 924 481 908 q 364 947 385 947 q 315 899 324 947 l 254 899 q 292 1011 260 975 q 376 1047 325 1047 q 417 1041 396 1047 q 457 1027 438 1035 q 483 1017 476 1019 q 561 992 536 992 q 597 1003 583 992 q 615 1043 610 1015 l 674 1043 q 638 931 668 971 q 556 892 608 892 z "},"Z":{"ha":808,"x_min":75,"x_max":742,"o":"m 75 90 l 532 693 l 200 693 l 200 518 l 93 518 l 93 789 l 731 789 l 731 704 l 271 96 l 633 96 l 633 285 l 742 285 l 742 0 l 75 0 l 75 90 z "},"Ź":{"ha":808,"x_min":75,"x_max":742,"o":"m 75 90 l 532 693 l 200 693 l 200 518 l 93 518 l 93 789 l 731 789 l 731 704 l 271 96 l 633 96 l 633 285 l 742 285 l 742 0 l 75 0 l 75 90 m 444 1110 l 588 1110 l 458 894 l 375 894 l 444 1110 z "},"Ž":{"ha":808,"x_min":75,"x_max":742,"o":"m 75 90 l 532 693 l 200 693 l 200 518 l 93 518 l 93 789 l 731 789 l 731 704 l 271 96 l 633 96 l 633 285 l 742 285 l 742 0 l 75 0 l 75 90 m 238 1088 l 333 1088 l 419 935 l 504 1088 l 594 1088 l 489 867 l 349 867 l 238 1088 z "},"Ż":{"ha":808,"x_min":75,"x_max":742,"o":"m 75 90 l 532 693 l 200 693 l 200 518 l 93 518 l 93 789 l 731 789 l 731 704 l 271 96 l 633 96 l 633 285 l 742 285 l 742 0 l 75 0 l 75 90 m 417 886 q 357 909 381 886 q 333 965 333 932 q 356 1022 333 1000 q 417 1044 379 1044 q 476 1023 453 1044 q 499 965 499 1001 q 477 909 500 932 q 417 886 454 886 z "},"Ẓ":{"ha":808,"x_min":75,"x_max":742,"o":"m 75 90 l 532 693 l 200 693 l 200 518 l 93 518 l 93 789 l 731 789 l 731 704 l 271 96 l 633 96 l 633 285 l 742 285 l 742 0 l 75 0 l 75 90 m 410 -219 q 353 -199 375 -219 q 331 -146 331 -178 q 353 -93 331 -114 q 410 -72 375 -72 q 467 -93 446 -72 q 489 -149 489 -114 q 467 -199 489 -178 q 410 -219 444 -219 z "},"a":{"ha":646,"x_min":50,"x_max":626,"o":"m 626 90 l 626 0 l 431 0 l 421 50 q 334 1 378 17 q 236 -15 290 -15 q 101 31 153 -15 q 50 147 50 76 q 111 278 50 236 q 269 319 172 319 q 411 301 339 319 l 411 347 q 380 437 411 407 q 290 467 349 467 q 201 454 250 467 q 104 418 151 442 l 68 501 q 186 548 122 532 q 308 564 250 564 q 484 508 421 564 q 547 358 547 453 l 547 90 l 626 90 m 176 156 q 201 92 176 117 q 271 68 226 68 q 411 118 342 68 l 411 233 q 292 249 347 249 q 209 226 242 249 q 176 156 176 204 z "},"á":{"ha":646,"x_min":50,"x_max":626,"o":"m 626 90 l 626 0 l 431 0 l 421 50 q 334 1 378 17 q 236 -15 290 -15 q 101 31 153 -15 q 50 147 50 76 q 111 278 50 236 q 269 319 172 319 q 411 301 339 319 l 411 347 q 380 437 411 407 q 290 467 349 467 q 201 454 250 467 q 104 418 151 442 l 68 501 q 186 548 122 532 q 308 564 250 564 q 484 508 421 564 q 547 358 547 453 l 547 90 l 626 90 m 176 156 q 201 92 176 117 q 271 68 226 68 q 411 118 342 68 l 411 233 q 292 249 347 249 q 209 226 242 249 q 176 156 176 204 m 339 871 l 482 871 l 353 656 l 269 656 l 339 871 z "},"ă":{"ha":646,"x_min":50,"x_max":626,"o":"m 626 90 l 626 0 l 431 0 l 421 50 q 334 1 378 17 q 236 -15 290 -15 q 101 31 153 -15 q 50 147 50 76 q 111 278 50 236 q 269 319 172 319 q 411 301 339 319 l 411 347 q 380 437 411 407 q 290 467 349 467 q 201 454 250 467 q 104 418 151 442 l 68 501 q 186 548 122 532 q 308 564 250 564 q 484 508 421 564 q 547 358 547 453 l 547 90 l 626 90 m 176 156 q 201 92 176 117 q 271 68 226 68 q 411 118 342 68 l 411 233 q 292 249 347 249 q 209 226 242 249 q 176 156 176 204 m 307 635 q 186 676 232 635 q 135 793 140 718 l 225 793 q 311 713 240 713 q 368 733 346 713 q 396 793 390 754 l 488 793 q 433 676 481 717 q 307 635 386 635 z "},"ắ":{"ha":646,"x_min":50,"x_max":626,"o":"m 626 90 l 626 0 l 431 0 l 421 50 q 334 1 378 17 q 236 -15 290 -15 q 101 31 153 -15 q 50 147 50 76 q 111 278 50 236 q 269 319 172 319 q 411 301 339 319 l 411 347 q 380 437 411 407 q 290 467 349 467 q 201 454 250 467 q 104 418 151 442 l 68 501 q 186 548 122 532 q 308 564 250 564 q 484 508 421 564 q 547 358 547 453 l 547 90 l 626 90 m 176 156 q 201 92 176 117 q 271 68 226 68 q 411 118 342 68 l 411 233 q 292 249 347 249 q 209 226 242 249 q 176 156 176 204 m 321 967 l 454 967 l 342 808 l 264 808 l 321 967 m 311 632 q 187 672 233 632 q 135 785 140 713 l 222 785 q 311 706 235 706 q 371 726 347 706 q 400 785 394 746 l 488 785 q 434 673 481 713 q 311 632 388 633 z "},"ặ":{"ha":646,"x_min":50,"x_max":626,"o":"m 626 90 l 626 0 l 431 0 l 421 50 q 334 1 378 17 q 236 -15 290 -15 q 101 31 153 -15 q 50 147 50 76 q 111 278 50 236 q 269 319 172 319 q 411 301 339 319 l 411 347 q 380 437 411 407 q 290 467 349 467 q 201 454 250 467 q 104 418 151 442 l 68 501 q 186 548 122 532 q 308 564 250 564 q 484 508 421 564 q 547 358 547 453 l 547 90 l 626 90 m 176 156 q 201 92 176 117 q 271 68 226 68 q 411 118 342 68 l 411 233 q 292 249 347 249 q 209 226 242 249 q 176 156 176 204 m 343 -219 q 286 -199 308 -219 q 264 -146 264 -178 q 286 -93 264 -114 q 343 -72 308 -72 q 401 -93 379 -72 q 422 -149 422 -114 q 400 -199 422 -178 q 343 -219 378 -219 m 307 635 q 186 676 232 635 q 135 793 140 718 l 225 793 q 311 713 240 713 q 368 733 346 713 q 396 793 390 754 l 488 793 q 433 676 481 717 q 307 635 386 635 z "},"ằ":{"ha":646,"x_min":50,"x_max":626,"o":"m 626 90 l 626 0 l 431 0 l 421 50 q 334 1 378 17 q 236 -15 290 -15 q 101 31 153 -15 q 50 147 50 76 q 111 278 50 236 q 269 319 172 319 q 411 301 339 319 l 411 347 q 380 437 411 407 q 290 467 349 467 q 201 454 250 467 q 104 418 151 442 l 68 501 q 186 548 122 532 q 308 564 250 564 q 484 508 421 564 q 547 358 547 453 l 547 90 l 626 90 m 176 156 q 201 92 176 117 q 271 68 226 68 q 411 118 342 68 l 411 233 q 292 249 347 249 q 209 226 242 249 q 176 156 176 204 m 168 967 l 300 967 l 357 808 l 281 808 l 168 967 m 311 632 q 187 672 233 632 q 135 785 140 713 l 222 785 q 311 706 235 706 q 371 726 347 706 q 400 785 394 746 l 488 785 q 434 673 481 713 q 311 632 388 633 z "},"ẳ":{"ha":646,"x_min":50,"x_max":626,"o":"m 626 90 l 626 0 l 431 0 l 421 50 q 334 1 378 17 q 236 -15 290 -15 q 101 31 153 -15 q 50 147 50 76 q 111 278 50 236 q 269 319 172 319 q 411 301 339 319 l 411 347 q 380 437 411 407 q 290 467 349 467 q 201 454 250 467 q 104 418 151 442 l 68 501 q 186 548 122 532 q 308 564 250 564 q 484 508 421 564 q 547 358 547 453 l 547 90 l 626 90 m 176 156 q 201 92 176 117 q 271 68 226 68 q 411 118 342 68 l 411 233 q 292 249 347 249 q 209 226 242 249 q 176 156 176 204 m 282 844 q 328 896 328 863 q 314 924 328 914 q 278 935 300 935 q 211 914 246 935 l 190 976 q 293 1007 236 1007 q 379 978 346 1007 q 413 906 413 950 q 301 783 413 814 l 282 844 m 311 632 q 187 672 233 632 q 135 785 140 713 l 222 785 q 311 706 235 706 q 371 726 347 706 q 400 785 394 746 l 488 785 q 434 673 481 713 q 311 632 388 633 z "},"ẵ":{"ha":646,"x_min":50,"x_max":626,"o":"m 626 90 l 626 0 l 431 0 l 421 50 q 334 1 378 17 q 236 -15 290 -15 q 101 31 153 -15 q 50 147 50 76 q 111 278 50 236 q 269 319 172 319 q 411 301 339 319 l 411 347 q 380 437 411 407 q 290 467 349 467 q 201 454 250 467 q 104 418 151 442 l 68 501 q 186 548 122 532 q 308 564 250 564 q 484 508 421 564 q 547 358 547 453 l 547 90 l 626 90 m 176 156 q 201 92 176 117 q 271 68 226 68 q 411 118 342 68 l 411 233 q 292 249 347 249 q 209 226 242 249 q 176 156 176 204 m 404 838 q 353 846 379 838 q 290 869 326 854 q 211 893 235 893 q 163 844 171 893 l 101 844 q 140 951 107 917 q 222 986 172 986 q 325 956 258 986 q 359 942 329 954 q 408 931 389 931 q 444 942 431 931 q 463 982 457 954 l 521 982 q 486 876 515 914 q 404 838 457 838 m 311 632 q 187 672 233 632 q 135 785 140 713 l 222 785 q 311 706 235 706 q 371 726 347 706 q 400 785 394 746 l 488 785 q 434 673 481 713 q 311 632 388 633 z "},"ǎ":{"ha":646,"x_min":50,"x_max":626,"o":"m 626 90 l 626 0 l 431 0 l 421 50 q 334 1 378 17 q 236 -15 290 -15 q 101 31 153 -15 q 50 147 50 76 q 111 278 50 236 q 269 319 172 319 q 411 301 339 319 l 411 347 q 380 437 411 407 q 290 467 349 467 q 201 454 250 467 q 104 418 151 442 l 68 501 q 186 548 122 532 q 308 564 250 564 q 484 508 421 564 q 547 358 547 453 l 547 90 l 626 90 m 176 156 q 201 92 176 117 q 271 68 226 68 q 411 118 342 68 l 411 233 q 292 249 347 249 q 209 226 242 249 q 176 156 176 204 m 132 849 l 228 849 l 314 696 l 399 849 l 489 849 l 383 628 l 243 628 l 132 849 z "},"â":{"ha":646,"x_min":50,"x_max":626,"o":"m 626 90 l 626 0 l 431 0 l 421 50 q 334 1 378 17 q 236 -15 290 -15 q 101 31 153 -15 q 50 147 50 76 q 111 278 50 236 q 269 319 172 319 q 411 301 339 319 l 411 347 q 380 437 411 407 q 290 467 349 467 q 201 454 250 467 q 104 418 151 442 l 68 501 q 186 548 122 532 q 308 564 250 564 q 484 508 421 564 q 547 358 547 453 l 547 90 l 626 90 m 176 156 q 201 92 176 117 q 271 68 226 68 q 411 118 342 68 l 411 233 q 292 249 347 249 q 209 226 242 249 q 176 156 176 204 m 240 856 l 383 856 l 499 629 l 404 629 l 311 799 l 218 629 l 124 629 l 240 856 z "},"ấ":{"ha":646,"x_min":50,"x_max":636,"o":"m 626 90 l 626 0 l 431 0 l 421 50 q 334 1 378 17 q 236 -15 290 -15 q 101 31 153 -15 q 50 147 50 76 q 111 278 50 236 q 269 319 172 319 q 411 301 339 319 l 411 347 q 380 437 411 407 q 290 467 349 467 q 201 454 250 467 q 104 418 151 442 l 68 501 q 186 548 122 532 q 308 564 250 564 q 484 508 421 564 q 547 358 547 453 l 547 90 l 626 90 m 176 156 q 201 92 176 117 q 271 68 226 68 q 411 118 342 68 l 411 233 q 292 249 347 249 q 209 226 242 249 q 176 156 176 204 m 518 926 l 636 926 l 535 757 l 458 757 l 518 926 m 243 811 l 379 811 l 496 629 l 400 629 l 311 753 l 222 629 l 126 629 l 243 811 z "},"ậ":{"ha":646,"x_min":50,"x_max":626,"o":"m 626 90 l 626 0 l 431 0 l 421 50 q 334 1 378 17 q 236 -15 290 -15 q 101 31 153 -15 q 50 147 50 76 q 111 278 50 236 q 269 319 172 319 q 411 301 339 319 l 411 347 q 380 437 411 407 q 290 467 349 467 q 201 454 250 467 q 104 418 151 442 l 68 501 q 186 548 122 532 q 308 564 250 564 q 484 508 421 564 q 547 358 547 453 l 547 90 l 626 90 m 176 156 q 201 92 176 117 q 271 68 226 68 q 411 118 342 68 l 411 233 q 292 249 347 249 q 209 226 242 249 q 176 156 176 204 m 343 -219 q 286 -199 308 -219 q 264 -146 264 -178 q 286 -93 264 -114 q 343 -72 308 -72 q 401 -93 379 -72 q 422 -149 422 -114 q 400 -199 422 -178 q 343 -219 378 -219 m 240 856 l 383 856 l 499 629 l 404 629 l 311 799 l 218 629 l 124 629 l 240 856 z "},"ầ":{"ha":646,"x_min":50,"x_max":626,"o":"m 626 90 l 626 0 l 431 0 l 421 50 q 334 1 378 17 q 236 -15 290 -15 q 101 31 153 -15 q 50 147 50 76 q 111 278 50 236 q 269 319 172 319 q 411 301 339 319 l 411 347 q 380 437 411 407 q 290 467 349 467 q 201 454 250 467 q 104 418 151 442 l 68 501 q 186 548 122 532 q 308 564 250 564 q 484 508 421 564 q 547 358 547 453 l 547 90 l 626 90 m 176 156 q 201 92 176 117 q 271 68 226 68 q 411 118 342 68 l 411 233 q 292 249 347 249 q 209 226 242 249 q 176 156 176 204 m 492 757 l 389 926 l 507 926 l 567 757 l 492 757 m 243 811 l 379 811 l 496 629 l 400 629 l 311 753 l 222 629 l 126 629 l 243 811 z "},"ẩ":{"ha":646,"x_min":50,"x_max":626,"o":"m 626 90 l 626 0 l 431 0 l 421 50 q 334 1 378 17 q 236 -15 290 -15 q 101 31 153 -15 q 50 147 50 76 q 111 278 50 236 q 269 319 172 319 q 411 301 339 319 l 411 347 q 380 437 411 407 q 290 467 349 467 q 201 454 250 467 q 104 418 151 442 l 68 501 q 186 548 122 532 q 308 564 250 564 q 484 508 421 564 q 547 358 547 453 l 547 90 l 626 90 m 176 156 q 201 92 176 117 q 271 68 226 68 q 411 118 342 68 l 411 233 q 292 249 347 249 q 209 226 242 249 q 176 156 176 204 m 450 801 q 496 853 496 817 q 483 881 496 871 q 446 892 469 892 q 379 872 414 892 l 358 933 q 461 965 403 965 q 548 936 515 965 q 581 861 581 907 q 469 740 581 768 l 450 801 m 243 811 l 379 811 l 496 629 l 400 629 l 311 753 l 222 629 l 126 629 l 243 811 z "},"ẫ":{"ha":646,"x_min":50,"x_max":626,"o":"m 626 90 l 626 0 l 431 0 l 421 50 q 334 1 378 17 q 236 -15 290 -15 q 101 31 153 -15 q 50 147 50 76 q 111 278 50 236 q 269 319 172 319 q 411 301 339 319 l 411 347 q 380 437 411 407 q 290 467 349 467 q 201 454 250 467 q 104 418 151 442 l 68 501 q 186 548 122 532 q 308 564 250 564 q 484 508 421 564 q 547 358 547 453 l 547 90 l 626 90 m 176 156 q 201 92 176 117 q 271 68 226 68 q 411 118 342 68 l 411 233 q 292 249 347 249 q 209 226 242 249 q 176 156 176 204 m 404 853 q 359 860 382 853 q 299 882 336 867 q 218 907 246 907 q 169 857 178 907 l 108 857 q 144 963 114 929 q 222 997 175 997 q 263 990 242 997 q 321 968 285 983 q 353 955 325 967 q 401 943 382 943 q 456 993 446 943 l 514 993 q 404 853 503 853 m 243 811 l 379 811 l 496 629 l 400 629 l 311 753 l 222 629 l 126 629 l 243 811 z "},"ȁ":{"ha":646,"x_min":17,"x_max":626,"o":"m 626 90 l 626 0 l 431 0 l 421 50 q 334 1 378 17 q 236 -15 290 -15 q 101 31 153 -15 q 50 147 50 76 q 111 278 50 236 q 269 319 172 319 q 411 301 339 319 l 411 347 q 380 437 411 407 q 290 467 349 467 q 201 454 250 467 q 104 418 151 442 l 68 501 q 186 548 122 532 q 308 564 250 564 q 484 508 421 564 q 547 358 547 453 l 547 90 l 626 90 m 176 156 q 201 92 176 117 q 271 68 226 68 q 411 118 342 68 l 411 233 q 292 249 347 249 q 209 226 242 249 q 176 156 176 204 m 17 878 l 158 878 l 232 656 l 149 656 l 17 878 m 233 878 l 375 878 l 447 656 l 364 656 l 233 878 z "},"ä":{"ha":646,"x_min":50,"x_max":626,"o":"m 626 90 l 626 0 l 431 0 l 421 50 q 334 1 378 17 q 236 -15 290 -15 q 101 31 153 -15 q 50 147 50 76 q 111 278 50 236 q 269 319 172 319 q 411 301 339 319 l 411 347 q 380 437 411 407 q 290 467 349 467 q 201 454 250 467 q 104 418 151 442 l 68 501 q 186 548 122 532 q 308 564 250 564 q 484 508 421 564 q 547 358 547 453 l 547 90 l 626 90 m 176 156 q 201 92 176 117 q 271 68 226 68 q 411 118 342 68 l 411 233 q 292 249 347 249 q 209 226 242 249 q 176 156 176 204 m 165 644 q 108 665 131 644 q 86 719 86 685 q 108 774 86 754 q 165 794 131 794 q 222 774 200 794 q 243 719 243 754 q 222 665 243 685 q 165 644 200 644 m 457 644 q 401 665 422 644 q 379 719 379 685 q 401 774 379 754 q 457 794 422 794 q 514 774 492 794 q 536 719 536 754 q 514 665 536 685 q 457 644 492 644 z "},"ȧ":{"ha":646,"x_min":50,"x_max":626,"o":"m 626 90 l 626 0 l 431 0 l 421 50 q 334 1 378 17 q 236 -15 290 -15 q 101 31 153 -15 q 50 147 50 76 q 111 278 50 236 q 269 319 172 319 q 411 301 339 319 l 411 347 q 380 437 411 407 q 290 467 349 467 q 201 454 250 467 q 104 418 151 442 l 68 501 q 186 548 122 532 q 308 564 250 564 q 484 508 421 564 q 547 358 547 453 l 547 90 l 626 90 m 176 156 q 201 92 176 117 q 271 68 226 68 q 411 118 342 68 l 411 233 q 292 249 347 249 q 209 226 242 249 q 176 156 176 204 m 311 647 q 251 670 275 647 q 228 726 228 693 q 251 783 228 761 q 311 806 274 806 q 370 784 347 806 q 393 726 393 763 q 372 670 394 693 q 311 647 349 647 z "},"ạ":{"ha":646,"x_min":50,"x_max":626,"o":"m 626 90 l 626 0 l 431 0 l 421 50 q 334 1 378 17 q 236 -15 290 -15 q 101 31 153 -15 q 50 147 50 76 q 111 278 50 236 q 269 319 172 319 q 411 301 339 319 l 411 347 q 380 437 411 407 q 290 467 349 467 q 201 454 250 467 q 104 418 151 442 l 68 501 q 186 548 122 532 q 308 564 250 564 q 484 508 421 564 q 547 358 547 453 l 547 90 l 626 90 m 176 156 q 201 92 176 117 q 271 68 226 68 q 411 118 342 68 l 411 233 q 292 249 347 249 q 209 226 242 249 q 176 156 176 204 m 343 -219 q 286 -199 308 -219 q 264 -146 264 -178 q 286 -93 264 -114 q 343 -72 308 -72 q 401 -93 379 -72 q 422 -149 422 -114 q 400 -199 422 -178 q 343 -219 378 -219 z "},"à":{"ha":646,"x_min":50,"x_max":626,"o":"m 626 90 l 626 0 l 431 0 l 421 50 q 334 1 378 17 q 236 -15 290 -15 q 101 31 153 -15 q 50 147 50 76 q 111 278 50 236 q 269 319 172 319 q 411 301 339 319 l 411 347 q 380 437 411 407 q 290 467 349 467 q 201 454 250 467 q 104 418 151 442 l 68 501 q 186 548 122 532 q 308 564 250 564 q 484 508 421 564 q 547 358 547 453 l 547 90 l 626 90 m 176 156 q 201 92 176 117 q 271 68 226 68 q 411 118 342 68 l 411 233 q 292 249 347 249 q 209 226 242 249 q 176 156 176 204 m 140 871 l 282 871 l 351 656 l 268 656 l 140 871 z "},"ả":{"ha":646,"x_min":50,"x_max":626,"o":"m 626 90 l 626 0 l 431 0 l 421 50 q 334 1 378 17 q 236 -15 290 -15 q 101 31 153 -15 q 50 147 50 76 q 111 278 50 236 q 269 319 172 319 q 411 301 339 319 l 411 347 q 380 437 411 407 q 290 467 349 467 q 201 454 250 467 q 104 418 151 442 l 68 501 q 186 548 122 532 q 308 564 250 564 q 484 508 421 564 q 547 358 547 453 l 547 90 l 626 90 m 176 156 q 201 92 176 117 q 271 68 226 68 q 411 118 342 68 l 411 233 q 292 249 347 249 q 209 226 242 249 q 176 156 176 204 m 289 671 q 335 722 335 686 q 322 751 335 740 q 285 761 308 761 q 218 742 253 761 l 197 803 q 300 835 242 835 q 387 806 354 835 q 419 731 419 776 q 308 610 419 638 l 289 671 z "},"ȃ":{"ha":646,"x_min":50,"x_max":626,"o":"m 626 90 l 626 0 l 431 0 l 421 50 q 334 1 378 17 q 236 -15 290 -15 q 101 31 153 -15 q 50 147 50 76 q 111 278 50 236 q 269 319 172 319 q 411 301 339 319 l 411 347 q 380 437 411 407 q 290 467 349 467 q 201 454 250 467 q 104 418 151 442 l 68 501 q 186 548 122 532 q 308 564 250 564 q 484 508 421 564 q 547 358 547 453 l 547 90 l 626 90 m 176 156 q 201 92 176 117 q 271 68 226 68 q 411 118 342 68 l 411 233 q 292 249 347 249 q 209 226 242 249 q 176 156 176 204 m 131 624 q 185 749 136 704 q 311 794 233 794 q 437 749 389 794 q 490 624 485 704 l 394 624 q 311 700 382 700 q 226 624 239 700 l 131 624 z "},"ā":{"ha":646,"x_min":50,"x_max":626,"o":"m 626 90 l 626 0 l 431 0 l 421 50 q 334 1 378 17 q 236 -15 290 -15 q 101 31 153 -15 q 50 147 50 76 q 111 278 50 236 q 269 319 172 319 q 411 301 339 319 l 411 347 q 380 437 411 407 q 290 467 349 467 q 201 454 250 467 q 104 418 151 442 l 68 501 q 186 548 122 532 q 308 564 250 564 q 484 508 421 564 q 547 358 547 453 l 547 90 l 626 90 m 176 156 q 201 92 176 117 q 271 68 226 68 q 411 118 342 68 l 411 233 q 292 249 347 249 q 209 226 242 249 q 176 156 176 204 m 153 733 l 469 733 l 469 654 l 153 654 l 153 733 z "},"ą":{"ha":646,"x_min":50,"x_max":650,"o":"m 589 -169 q 650 -154 621 -169 l 650 -221 q 556 -246 601 -246 q 472 -216 504 -246 q 439 -140 439 -186 q 519 0 439 -72 l 431 0 l 421 50 q 334 1 378 17 q 236 -15 290 -15 q 101 31 153 -15 q 50 147 50 76 q 111 278 50 236 q 269 319 172 319 q 411 301 339 319 l 411 347 q 380 437 411 407 q 290 467 349 467 q 201 454 250 467 q 104 418 151 442 l 68 501 q 186 548 122 532 q 308 564 250 564 q 484 508 421 564 q 547 358 547 453 l 547 90 l 626 90 l 626 0 l 583 0 q 538 -60 553 -33 q 522 -111 522 -86 q 540 -154 522 -139 q 589 -169 558 -169 m 176 156 q 201 92 176 117 q 271 68 226 68 q 411 118 342 68 l 411 233 q 292 249 347 249 q 209 226 242 249 q 176 156 176 204 z "},"å":{"ha":646,"x_min":50,"x_max":626,"o":"m 626 90 l 626 0 l 431 0 l 421 50 q 334 1 378 17 q 236 -15 290 -15 q 101 31 153 -15 q 50 147 50 76 q 111 278 50 236 q 269 319 172 319 q 411 301 339 319 l 411 347 q 380 437 411 407 q 290 467 349 467 q 201 454 250 467 q 104 418 151 442 l 68 501 q 186 548 122 532 q 308 564 250 564 q 484 508 421 564 q 547 358 547 453 l 547 90 l 626 90 m 176 156 q 201 92 176 117 q 271 68 226 68 q 411 118 342 68 l 411 233 q 292 249 347 249 q 209 226 242 249 q 176 156 176 204 m 311 607 q 226 638 258 607 q 194 718 194 669 q 226 797 194 767 q 311 828 257 828 q 397 797 365 828 q 428 718 428 767 q 396 638 428 669 q 311 607 364 607 m 311 657 q 356 674 339 657 q 372 718 372 692 q 356 763 372 746 q 311 779 340 779 q 265 763 282 779 q 249 718 249 746 q 265 674 249 692 q 311 657 282 657 z "},"ǻ":{"ha":646,"x_min":50,"x_max":626,"o":"m 626 90 l 626 0 l 431 0 l 421 50 q 334 1 378 17 q 236 -15 290 -15 q 101 31 153 -15 q 50 147 50 76 q 111 278 50 236 q 269 319 172 319 q 411 301 339 319 l 411 347 q 380 437 411 407 q 290 467 349 467 q 201 454 250 467 q 104 418 151 442 l 68 501 q 186 548 122 532 q 308 564 250 564 q 484 508 421 564 q 547 358 547 453 l 547 90 l 626 90 m 176 156 q 201 92 176 117 q 271 68 226 68 q 411 118 342 68 l 411 233 q 292 249 347 249 q 209 226 242 249 q 176 156 176 204 m 311 607 q 226 638 258 607 q 194 718 194 669 q 226 797 194 767 q 311 828 257 828 q 397 797 365 828 q 428 718 428 767 q 396 638 428 669 q 311 607 364 607 m 311 657 q 356 674 339 657 q 372 718 372 692 q 356 763 372 746 q 311 779 340 779 q 265 763 282 779 q 249 718 249 746 q 265 674 249 692 q 311 657 282 657 m 339 1094 l 482 1094 l 353 879 l 269 879 l 339 1094 z "},"ã":{"ha":646,"x_min":50,"x_max":626,"o":"m 626 90 l 626 0 l 431 0 l 421 50 q 334 1 378 17 q 236 -15 290 -15 q 101 31 153 -15 q 50 147 50 76 q 111 278 50 236 q 269 319 172 319 q 411 301 339 319 l 411 347 q 380 437 411 407 q 290 467 349 467 q 201 454 250 467 q 104 418 151 442 l 68 501 q 186 548 122 532 q 308 564 250 564 q 484 508 421 564 q 547 358 547 453 l 547 90 l 626 90 m 176 156 q 201 92 176 117 q 271 68 226 68 q 411 118 342 68 l 411 233 q 292 249 347 249 q 209 226 242 249 q 176 156 176 204 m 403 653 q 353 661 378 653 q 290 685 328 669 q 211 708 232 708 q 163 660 171 708 l 101 660 q 140 772 107 736 q 224 808 172 808 q 264 802 243 808 q 304 788 285 796 q 331 778 324 781 q 408 753 383 753 q 444 765 431 753 q 463 804 457 776 l 521 804 q 485 692 515 732 q 403 653 456 653 z "},"æ":{"ha":1019,"x_min":50,"x_max":978,"o":"m 247 -15 q 104 30 158 -15 q 50 147 50 75 q 116 276 50 235 q 286 317 182 317 l 411 317 l 411 349 q 380 438 411 408 q 290 467 349 467 q 201 454 250 467 q 104 418 151 442 l 68 501 q 185 548 122 532 q 306 564 249 564 q 422 544 372 564 q 501 486 472 524 q 594 544 542 524 q 708 564 647 564 q 906 486 833 564 q 978 281 978 408 l 978 249 l 551 249 q 610 131 561 174 q 732 89 658 89 q 838 110 788 89 q 926 167 888 131 l 969 83 q 864 12 926 39 q 725 -15 801 -15 q 588 10 650 -15 q 483 81 526 35 q 373 8 431 32 q 247 -15 315 -15 m 846 322 q 807 430 846 390 q 704 469 768 469 q 600 430 642 469 q 550 322 558 390 l 846 322 m 279 68 q 360 85 321 68 q 444 138 400 101 q 414 244 418 189 l 304 244 q 213 224 249 244 q 176 156 176 203 q 204 92 176 117 q 279 68 232 68 z "},"ǽ":{"ha":1019,"x_min":50,"x_max":978,"o":"m 247 -15 q 104 30 158 -15 q 50 147 50 75 q 116 276 50 235 q 286 317 182 317 l 411 317 l 411 349 q 380 438 411 408 q 290 467 349 467 q 201 454 250 467 q 104 418 151 442 l 68 501 q 185 548 122 532 q 306 564 249 564 q 422 544 372 564 q 501 486 472 524 q 594 544 542 524 q 708 564 647 564 q 906 486 833 564 q 978 281 978 408 l 978 249 l 551 249 q 610 131 561 174 q 732 89 658 89 q 838 110 788 89 q 926 167 888 131 l 969 83 q 864 12 926 39 q 725 -15 801 -15 q 588 10 650 -15 q 483 81 526 35 q 373 8 431 32 q 247 -15 315 -15 m 846 322 q 807 430 846 390 q 704 469 768 469 q 600 430 642 469 q 550 322 558 390 l 846 322 m 279 68 q 360 85 321 68 q 444 138 400 101 q 414 244 418 189 l 304 244 q 213 224 249 244 q 176 156 176 203 q 204 92 176 117 q 279 68 232 68 m 529 871 l 672 871 l 543 656 l 460 656 l 529 871 z "},"ǣ":{"ha":1019,"x_min":50,"x_max":978,"o":"m 247 -15 q 104 30 158 -15 q 50 147 50 75 q 116 276 50 235 q 286 317 182 317 l 411 317 l 411 349 q 380 438 411 408 q 290 467 349 467 q 201 454 250 467 q 104 418 151 442 l 68 501 q 185 548 122 532 q 306 564 249 564 q 422 544 372 564 q 501 486 472 524 q 594 544 542 524 q 708 564 647 564 q 906 486 833 564 q 978 281 978 408 l 978 249 l 551 249 q 610 131 561 174 q 732 89 658 89 q 838 110 788 89 q 926 167 888 131 l 969 83 q 864 12 926 39 q 725 -15 801 -15 q 588 10 650 -15 q 483 81 526 35 q 373 8 431 32 q 247 -15 315 -15 m 846 322 q 807 430 846 390 q 704 469 768 469 q 600 430 642 469 q 550 322 558 390 l 846 322 m 279 68 q 360 85 321 68 q 444 138 400 101 q 414 244 418 189 l 304 244 q 213 224 249 244 q 176 156 176 203 q 204 92 176 117 q 279 68 232 68 m 343 733 l 660 733 l 660 654 l 343 654 l 343 733 z "},"b":{"ha":731,"x_min":29,"x_max":699,"o":"m 439 564 q 573 530 514 564 q 665 433 632 496 q 699 282 699 369 q 663 124 699 192 q 563 22 626 57 q 424 -14 500 -14 q 256 43 325 -14 l 254 0 l 29 0 l 29 90 l 121 90 l 121 714 l 32 714 l 32 803 l 258 803 l 258 501 q 344 548 297 532 q 439 564 390 564 m 386 89 q 508 138 461 89 q 556 274 556 186 q 510 410 556 361 q 392 458 465 458 q 258 407 319 458 l 258 135 q 386 89 319 89 z "},"ḃ":{"ha":731,"x_min":29,"x_max":699,"o":"m 439 564 q 573 530 514 564 q 665 433 632 496 q 699 282 699 369 q 663 124 699 192 q 563 22 626 57 q 424 -14 500 -14 q 256 43 325 -14 l 254 0 l 29 0 l 29 90 l 121 90 l 121 714 l 32 714 l 32 803 l 258 803 l 258 501 q 344 548 297 532 q 439 564 390 564 m 386 89 q 508 138 461 89 q 556 274 556 186 q 510 410 556 361 q 392 458 465 458 q 258 407 319 458 l 258 135 q 386 89 319 89 m 375 713 q 315 735 339 713 q 292 792 292 758 q 315 849 292 826 q 375 871 338 871 q 434 849 411 871 q 457 792 457 828 q 435 735 458 758 q 375 713 413 713 z "},"c":{"ha":646,"x_min":32,"x_max":593,"o":"m 593 96 q 336 -14 497 -14 q 178 24 247 -14 q 71 128 110 61 q 32 279 32 194 q 69 427 32 363 q 170 528 106 492 q 315 564 235 564 q 416 544 372 564 q 486 492 460 525 l 486 551 l 589 551 l 589 343 l 494 343 q 444 433 483 401 q 344 465 406 465 q 217 415 267 465 q 168 285 168 364 q 219 145 168 199 q 354 92 271 92 q 460 114 415 92 q 544 179 504 136 l 593 96 z "},"ć":{"ha":646,"x_min":32,"x_max":593,"o":"m 593 96 q 336 -14 497 -14 q 178 24 247 -14 q 71 128 110 61 q 32 279 32 194 q 69 427 32 363 q 170 528 106 492 q 315 564 235 564 q 416 544 372 564 q 486 492 460 525 l 486 551 l 589 551 l 589 343 l 494 343 q 444 433 483 401 q 344 465 406 465 q 217 415 267 465 q 168 285 168 364 q 219 145 168 199 q 354 92 271 92 q 460 114 415 92 q 544 179 504 136 l 593 96 m 365 871 l 508 871 l 379 656 l 296 656 l 365 871 z "},"č":{"ha":646,"x_min":32,"x_max":593,"o":"m 593 96 q 336 -14 497 -14 q 178 24 247 -14 q 71 128 110 61 q 32 279 32 194 q 69 427 32 363 q 170 528 106 492 q 315 564 235 564 q 416 544 372 564 q 486 492 460 525 l 486 551 l 589 551 l 589 343 l 494 343 q 444 433 483 401 q 344 465 406 465 q 217 415 267 465 q 168 285 168 364 q 219 145 168 199 q 354 92 271 92 q 460 114 415 92 q 544 179 504 136 l 593 96 m 158 849 l 254 849 l 340 696 l 425 849 l 515 849 l 410 628 l 269 628 l 158 849 z "},"ç":{"ha":646,"x_min":32,"x_max":593,"o":"m 593 96 q 364 -12 507 -4 l 346 -79 q 422 -110 397 -86 q 447 -169 447 -135 q 417 -235 447 -214 q 338 -257 386 -257 q 217 -228 278 -257 l 217 -182 q 294 -197 260 -197 q 347 -160 347 -197 q 267 -115 347 -119 l 307 -12 q 108 77 183 -3 q 32 279 32 157 q 69 427 32 363 q 170 528 106 492 q 315 564 235 564 q 416 544 372 564 q 486 492 460 525 l 486 551 l 589 551 l 589 343 l 494 343 q 444 433 483 401 q 344 465 406 465 q 217 415 267 465 q 168 285 168 364 q 219 145 168 199 q 354 92 271 92 q 460 114 415 92 q 544 179 504 136 l 593 96 z "},"ḉ":{"ha":646,"x_min":32,"x_max":593,"o":"m 379 656 l 296 656 l 365 871 l 508 871 l 379 656 m 593 96 q 364 -12 507 -4 l 346 -79 q 422 -110 397 -86 q 447 -169 447 -135 q 417 -235 447 -214 q 338 -257 386 -257 q 217 -228 278 -257 l 217 -182 q 294 -197 260 -197 q 347 -160 347 -197 q 267 -115 347 -119 l 307 -12 q 108 77 183 -3 q 32 279 32 157 q 69 427 32 363 q 170 528 106 492 q 315 564 235 564 q 416 544 372 564 q 486 492 460 525 l 486 551 l 589 551 l 589 343 l 494 343 q 444 433 483 401 q 344 465 406 465 q 217 415 267 465 q 168 285 168 364 q 219 145 168 199 q 354 92 271 92 q 460 114 415 92 q 544 179 504 136 l 593 96 z "},"ĉ":{"ha":646,"x_min":32,"x_max":593,"o":"m 593 96 q 336 -14 497 -14 q 178 24 247 -14 q 71 128 110 61 q 32 279 32 194 q 69 427 32 363 q 170 528 106 492 q 315 564 235 564 q 416 544 372 564 q 486 492 460 525 l 486 551 l 589 551 l 589 343 l 494 343 q 444 433 483 401 q 344 465 406 465 q 217 415 267 465 q 168 285 168 364 q 219 145 168 199 q 354 92 271 92 q 460 114 415 92 q 544 179 504 136 l 593 96 m 267 856 l 410 856 l 525 629 l 431 629 l 338 799 l 244 629 l 150 629 l 267 856 z "},"ċ":{"ha":646,"x_min":32,"x_max":593,"o":"m 593 96 q 336 -14 497 -14 q 178 24 247 -14 q 71 128 110 61 q 32 279 32 194 q 69 427 32 363 q 170 528 106 492 q 315 564 235 564 q 416 544 372 564 q 486 492 460 525 l 486 551 l 589 551 l 589 343 l 494 343 q 444 433 483 401 q 344 465 406 465 q 217 415 267 465 q 168 285 168 364 q 219 145 168 199 q 354 92 271 92 q 460 114 415 92 q 544 179 504 136 l 593 96 m 338 647 q 278 670 301 647 q 254 726 254 693 q 277 783 254 761 q 338 806 300 806 q 397 784 374 806 q 419 726 419 763 q 398 670 421 693 q 338 647 375 647 z "},"d":{"ha":721,"x_min":35,"x_max":694,"o":"m 694 90 l 694 0 l 481 0 l 479 39 q 307 -15 406 -15 q 169 20 231 -15 q 71 122 107 56 q 35 276 35 188 q 69 429 35 364 q 165 529 104 494 q 299 564 225 564 q 476 506 396 564 l 476 714 l 382 714 l 382 803 l 614 803 l 614 90 l 694 90 m 178 269 q 226 137 178 185 q 347 89 274 89 q 476 131 415 89 l 476 414 q 339 460 408 460 q 222 410 267 460 q 178 269 178 360 z "},"ð":{"ha":671,"x_min":49,"x_max":626,"o":"m 418 715 q 571 508 515 615 q 626 278 626 400 q 590 124 626 190 q 487 22 553 58 q 336 -14 421 -14 q 181 22 246 -14 q 83 119 117 57 q 49 260 49 181 q 81 401 49 339 q 175 499 114 464 q 319 535 236 535 q 399 522 365 535 q 451 496 433 510 q 315 669 410 575 l 144 593 l 108 668 l 250 731 q 99 853 175 797 l 163 933 q 354 778 296 829 l 524 853 l 561 779 l 418 715 m 336 93 q 456 144 415 93 q 496 268 496 194 q 453 389 496 344 q 336 433 411 433 q 221 386 263 433 q 179 260 179 339 q 221 141 179 189 q 336 93 263 93 z "},"ď":{"ha":808,"x_min":35,"x_max":825,"o":"m 694 90 l 694 0 l 481 0 l 479 39 q 307 -15 406 -15 q 169 20 231 -15 q 71 122 107 56 q 35 276 35 188 q 69 429 35 364 q 165 529 104 494 q 299 564 225 564 q 476 506 396 564 l 476 714 l 382 714 l 382 803 l 614 803 l 614 90 l 694 90 m 178 269 q 226 137 178 185 q 347 89 274 89 q 476 131 415 89 l 476 414 q 339 460 408 460 q 222 410 267 460 q 178 269 178 360 m 671 568 q 733 596 713 574 q 753 665 753 618 l 671 665 l 671 804 l 825 804 l 824 674 q 671 514 826 514 l 671 568 z "},"đ":{"ha":732,"x_min":35,"x_max":693,"o":"m 614 638 l 614 93 l 693 93 l 693 0 l 481 0 l 479 39 q 307 -15 406 -15 q 169 20 231 -15 q 71 122 107 56 q 35 276 35 188 q 69 429 35 364 q 165 529 104 494 q 299 564 225 564 q 476 506 396 564 l 476 638 l 321 638 l 321 710 l 476 710 l 476 800 l 614 800 l 614 710 l 693 710 l 693 638 l 614 638 m 178 269 q 226 137 178 185 q 347 89 274 89 q 476 131 415 89 l 476 414 q 339 460 408 460 q 222 410 267 460 q 178 269 178 360 z "},"ḋ":{"ha":721,"x_min":35,"x_max":694,"o":"m 694 90 l 694 0 l 481 0 l 479 39 q 307 -15 406 -15 q 169 20 231 -15 q 71 122 107 56 q 35 276 35 188 q 69 429 35 364 q 165 529 104 494 q 299 564 225 564 q 476 506 396 564 l 476 714 l 382 714 l 382 803 l 614 803 l 614 90 l 694 90 m 178 269 q 226 137 178 185 q 347 89 274 89 q 476 131 415 89 l 476 414 q 339 460 408 460 q 222 410 267 460 q 178 269 178 360 m 546 900 q 486 923 510 900 q 463 979 463 946 q 485 1036 463 1014 q 546 1058 508 1058 q 605 1037 582 1058 q 628 979 628 1015 q 606 923 629 946 q 546 900 583 900 z "},"ḍ":{"ha":721,"x_min":35,"x_max":694,"o":"m 694 90 l 694 0 l 481 0 l 479 39 q 307 -15 406 -15 q 169 20 231 -15 q 71 122 107 56 q 35 276 35 188 q 69 429 35 364 q 165 529 104 494 q 299 564 225 564 q 476 506 396 564 l 476 714 l 382 714 l 382 803 l 614 803 l 614 90 l 694 90 m 178 269 q 226 137 178 185 q 347 89 274 89 q 476 131 415 89 l 476 414 q 339 460 408 460 q 222 410 267 460 q 178 269 178 360 m 375 -219 q 318 -199 340 -219 q 296 -146 296 -178 q 318 -93 296 -114 q 375 -72 340 -72 q 433 -93 411 -72 q 454 -149 454 -114 q 432 -199 454 -178 q 375 -219 410 -219 z "},"ḏ":{"ha":721,"x_min":35,"x_max":694,"o":"m 694 90 l 694 0 l 481 0 l 479 39 q 307 -15 406 -15 q 169 20 231 -15 q 71 122 107 56 q 35 276 35 188 q 69 429 35 364 q 165 529 104 494 q 299 564 225 564 q 476 506 396 564 l 476 714 l 382 714 l 382 803 l 614 803 l 614 90 l 694 90 m 178 269 q 226 137 178 185 q 347 89 274 89 q 476 131 415 89 l 476 414 q 339 460 408 460 q 222 410 267 460 q 178 269 178 360 m 217 -69 l 533 -69 l 533 -149 l 217 -149 l 217 -69 z "},"ǳ":{"ha":1338,"x_min":35,"x_max":1285,"o":"m 694 90 l 694 0 l 481 0 l 479 39 q 307 -15 406 -15 q 169 20 231 -15 q 71 122 107 56 q 35 276 35 188 q 69 429 35 364 q 165 529 104 494 q 299 564 225 564 q 476 506 396 564 l 476 714 l 382 714 l 382 803 l 614 803 l 614 90 l 694 90 m 178 269 q 226 137 178 185 q 347 89 274 89 q 476 131 415 89 l 476 414 q 339 460 408 460 q 222 410 267 460 q 178 269 178 360 m 782 82 l 1115 463 l 881 463 l 881 354 l 788 354 l 788 550 l 1276 550 l 1276 464 l 940 85 l 1190 85 l 1190 207 l 1285 207 l 1285 0 l 782 0 l 782 82 z "},"ǆ":{"ha":1338,"x_min":35,"x_max":1285,"o":"m 694 90 l 694 0 l 481 0 l 479 39 q 307 -15 406 -15 q 169 20 231 -15 q 71 122 107 56 q 35 276 35 188 q 69 429 35 364 q 165 529 104 494 q 299 564 225 564 q 476 506 396 564 l 476 714 l 382 714 l 382 803 l 614 803 l 614 90 l 694 90 m 178 269 q 226 137 178 185 q 347 89 274 89 q 476 131 415 89 l 476 414 q 339 460 408 460 q 222 410 267 460 q 178 269 178 360 m 782 82 l 1115 463 l 881 463 l 881 354 l 788 354 l 788 550 l 1276 550 l 1276 464 l 940 85 l 1190 85 l 1190 207 l 1285 207 l 1285 0 l 782 0 l 782 82 m 861 849 l 957 849 l 1043 696 l 1128 849 l 1218 849 l 1113 628 l 972 628 l 861 849 z "},"e":{"ha":638,"x_min":32,"x_max":597,"o":"m 597 249 l 169 249 q 228 131 179 174 q 350 89 276 89 q 456 110 406 89 q 546 167 507 131 l 589 83 q 483 12 546 39 q 344 -15 421 -15 q 183 20 254 -15 q 72 122 113 56 q 32 275 32 188 q 70 426 32 361 q 175 528 108 492 q 325 564 242 564 q 524 486 451 564 q 597 281 597 408 l 597 249 m 465 322 q 426 430 465 390 q 324 469 388 469 q 219 430 261 469 q 169 322 178 390 l 465 322 z "},"é":{"ha":638,"x_min":32,"x_max":597,"o":"m 597 249 l 169 249 q 228 131 179 174 q 350 89 276 89 q 456 110 406 89 q 546 167 507 131 l 589 83 q 483 12 546 39 q 344 -15 421 -15 q 183 20 254 -15 q 72 122 113 56 q 32 275 32 188 q 70 426 32 361 q 175 528 108 492 q 325 564 242 564 q 524 486 451 564 q 597 281 597 408 l 597 249 m 465 322 q 426 430 465 390 q 324 469 388 469 q 219 430 261 469 q 169 322 178 390 l 465 322 m 361 871 l 504 871 l 375 656 l 292 656 l 361 871 z "},"ĕ":{"ha":638,"x_min":32,"x_max":597,"o":"m 597 249 l 169 249 q 228 131 179 174 q 350 89 276 89 q 456 110 406 89 q 546 167 507 131 l 589 83 q 483 12 546 39 q 344 -15 421 -15 q 183 20 254 -15 q 72 122 113 56 q 32 275 32 188 q 70 426 32 361 q 175 528 108 492 q 325 564 242 564 q 524 486 451 564 q 597 281 597 408 l 597 249 m 465 322 q 426 430 465 390 q 324 469 388 469 q 219 430 261 469 q 169 322 178 390 l 465 322 m 329 635 q 208 676 254 635 q 157 793 163 718 l 247 793 q 333 713 263 713 q 390 733 368 713 q 418 793 413 754 l 510 793 q 456 676 503 717 q 329 635 408 635 z "},"ě":{"ha":638,"x_min":32,"x_max":597,"o":"m 597 249 l 169 249 q 228 131 179 174 q 350 89 276 89 q 456 110 406 89 q 546 167 507 131 l 589 83 q 483 12 546 39 q 344 -15 421 -15 q 183 20 254 -15 q 72 122 113 56 q 32 275 32 188 q 70 426 32 361 q 175 528 108 492 q 325 564 242 564 q 524 486 451 564 q 597 281 597 408 l 597 249 m 465 322 q 426 430 465 390 q 324 469 388 469 q 219 430 261 469 q 169 322 178 390 l 465 322 m 154 849 l 250 849 l 336 696 l 421 849 l 511 849 l 406 628 l 265 628 l 154 849 z "},"ȩ":{"ha":638,"x_min":32,"x_max":597,"o":"m 597 249 l 169 249 q 228 131 179 174 q 350 89 276 89 q 456 110 406 89 q 546 167 507 131 l 589 83 q 491 15 549 42 q 364 -15 433 -11 l 346 -79 q 422 -110 397 -86 q 447 -169 447 -135 q 417 -235 447 -214 q 338 -257 386 -257 q 217 -228 278 -257 l 217 -182 q 294 -197 260 -197 q 347 -160 347 -197 q 267 -115 347 -119 l 307 -14 q 108 75 183 -3 q 32 275 32 153 q 70 426 32 361 q 175 528 108 492 q 325 564 242 564 q 524 486 451 564 q 597 281 597 408 l 597 249 m 465 322 q 426 430 465 390 q 324 469 388 469 q 219 430 261 469 q 169 322 178 390 l 465 322 z "},"ḝ":{"ha":638,"x_min":32,"x_max":597,"o":"m 329 635 q 208 676 254 635 q 157 793 163 718 l 247 793 q 333 713 263 713 q 390 733 368 713 q 418 793 413 754 l 510 793 q 456 676 503 717 q 329 635 408 635 m 597 249 l 169 249 q 228 131 179 174 q 350 89 276 89 q 456 110 406 89 q 546 167 507 131 l 589 83 q 491 15 549 42 q 364 -15 433 -11 l 346 -79 q 422 -110 397 -86 q 447 -169 447 -135 q 417 -235 447 -214 q 338 -257 386 -257 q 217 -228 278 -257 l 217 -182 q 294 -197 260 -197 q 347 -160 347 -197 q 267 -115 347 -119 l 307 -14 q 108 75 183 -3 q 32 275 32 153 q 70 426 32 361 q 175 528 108 492 q 325 564 242 564 q 524 486 451 564 q 597 281 597 408 l 597 249 m 465 322 q 426 430 465 390 q 324 469 388 469 q 219 430 261 469 q 169 322 178 390 l 465 322 z "},"ê":{"ha":638,"x_min":32,"x_max":597,"o":"m 597 249 l 169 249 q 228 131 179 174 q 350 89 276 89 q 456 110 406 89 q 546 167 507 131 l 589 83 q 483 12 546 39 q 344 -15 421 -15 q 183 20 254 -15 q 72 122 113 56 q 32 275 32 188 q 70 426 32 361 q 175 528 108 492 q 325 564 242 564 q 524 486 451 564 q 597 281 597 408 l 597 249 m 465 322 q 426 430 465 390 q 324 469 388 469 q 219 430 261 469 q 169 322 178 390 l 465 322 m 263 856 l 406 856 l 521 629 l 426 629 l 333 799 l 240 629 l 146 629 l 263 856 z "},"ế":{"ha":638,"x_min":32,"x_max":658,"o":"m 597 249 l 169 249 q 228 131 179 174 q 350 89 276 89 q 456 110 406 89 q 546 167 507 131 l 589 83 q 483 12 546 39 q 344 -15 421 -15 q 183 20 254 -15 q 72 122 113 56 q 32 275 32 188 q 70 426 32 361 q 175 528 108 492 q 325 564 242 564 q 524 486 451 564 q 597 281 597 408 l 597 249 m 465 322 q 426 430 465 390 q 324 469 388 469 q 219 430 261 469 q 169 322 178 390 l 465 322 m 540 926 l 658 926 l 557 757 l 481 757 l 540 926 m 265 811 l 401 811 l 518 629 l 422 629 l 333 753 l 244 629 l 149 629 l 265 811 z "},"ệ":{"ha":638,"x_min":32,"x_max":597,"o":"m 597 249 l 169 249 q 228 131 179 174 q 350 89 276 89 q 456 110 406 89 q 546 167 507 131 l 589 83 q 483 12 546 39 q 344 -15 421 -15 q 183 20 254 -15 q 72 122 113 56 q 32 275 32 188 q 70 426 32 361 q 175 528 108 492 q 325 564 242 564 q 524 486 451 564 q 597 281 597 408 l 597 249 m 465 322 q 426 430 465 390 q 324 469 388 469 q 219 430 261 469 q 169 322 178 390 l 465 322 m 339 -219 q 282 -199 304 -219 q 260 -146 260 -178 q 282 -93 260 -114 q 339 -72 304 -72 q 397 -93 375 -72 q 418 -149 418 -114 q 396 -199 418 -178 q 339 -219 374 -219 m 263 856 l 406 856 l 521 629 l 426 629 l 333 799 l 240 629 l 146 629 l 263 856 z "},"ề":{"ha":638,"x_min":32,"x_max":597,"o":"m 597 249 l 169 249 q 228 131 179 174 q 350 89 276 89 q 456 110 406 89 q 546 167 507 131 l 589 83 q 483 12 546 39 q 344 -15 421 -15 q 183 20 254 -15 q 72 122 113 56 q 32 275 32 188 q 70 426 32 361 q 175 528 108 492 q 325 564 242 564 q 524 486 451 564 q 597 281 597 408 l 597 249 m 465 322 q 426 430 465 390 q 324 469 388 469 q 219 430 261 469 q 169 322 178 390 l 465 322 m 514 757 l 411 926 l 529 926 l 589 757 l 514 757 m 265 811 l 401 811 l 518 629 l 422 629 l 333 753 l 244 629 l 149 629 l 265 811 z "},"ể":{"ha":638,"x_min":32,"x_max":603,"o":"m 597 249 l 169 249 q 228 131 179 174 q 350 89 276 89 q 456 110 406 89 q 546 167 507 131 l 589 83 q 483 12 546 39 q 344 -15 421 -15 q 183 20 254 -15 q 72 122 113 56 q 32 275 32 188 q 70 426 32 361 q 175 528 108 492 q 325 564 242 564 q 524 486 451 564 q 597 281 597 408 l 597 249 m 465 322 q 426 430 465 390 q 324 469 388 469 q 219 430 261 469 q 169 322 178 390 l 465 322 m 472 801 q 518 853 518 817 q 505 881 518 871 q 468 892 492 892 q 401 872 436 892 l 381 933 q 483 965 425 965 q 570 936 538 965 q 603 861 603 907 q 492 740 603 768 l 472 801 m 265 811 l 401 811 l 518 629 l 422 629 l 333 753 l 244 629 l 149 629 l 265 811 z "},"ễ":{"ha":638,"x_min":32,"x_max":597,"o":"m 597 249 l 169 249 q 228 131 179 174 q 350 89 276 89 q 456 110 406 89 q 546 167 507 131 l 589 83 q 483 12 546 39 q 344 -15 421 -15 q 183 20 254 -15 q 72 122 113 56 q 32 275 32 188 q 70 426 32 361 q 175 528 108 492 q 325 564 242 564 q 524 486 451 564 q 597 281 597 408 l 597 249 m 465 322 q 426 430 465 390 q 324 469 388 469 q 219 430 261 469 q 169 322 178 390 l 465 322 m 426 853 q 381 860 404 853 q 321 882 358 867 q 240 907 268 907 q 192 857 200 907 l 131 857 q 167 963 136 929 q 244 997 197 997 q 285 990 264 997 q 343 968 307 983 q 376 955 347 967 q 424 943 404 943 q 478 993 468 943 l 536 993 q 426 853 525 853 m 265 811 l 401 811 l 518 629 l 422 629 l 333 753 l 244 629 l 149 629 l 265 811 z "},"ȅ":{"ha":638,"x_min":32,"x_max":597,"o":"m 597 249 l 169 249 q 228 131 179 174 q 350 89 276 89 q 456 110 406 89 q 546 167 507 131 l 589 83 q 483 12 546 39 q 344 -15 421 -15 q 183 20 254 -15 q 72 122 113 56 q 32 275 32 188 q 70 426 32 361 q 175 528 108 492 q 325 564 242 564 q 524 486 451 564 q 597 281 597 408 l 597 249 m 465 322 q 426 430 465 390 q 324 469 388 469 q 219 430 261 469 q 169 322 178 390 l 465 322 m 39 878 l 181 878 l 254 656 l 171 656 l 39 878 m 256 878 l 397 878 l 469 656 l 386 656 l 256 878 z "},"ë":{"ha":638,"x_min":32,"x_max":597,"o":"m 597 249 l 169 249 q 228 131 179 174 q 350 89 276 89 q 456 110 406 89 q 546 167 507 131 l 589 83 q 483 12 546 39 q 344 -15 421 -15 q 183 20 254 -15 q 72 122 113 56 q 32 275 32 188 q 70 426 32 361 q 175 528 108 492 q 325 564 242 564 q 524 486 451 564 q 597 281 597 408 l 597 249 m 465 322 q 426 430 465 390 q 324 469 388 469 q 219 430 261 469 q 169 322 178 390 l 465 322 m 188 644 q 131 665 153 644 q 108 719 108 685 q 131 774 108 754 q 188 794 153 794 q 244 774 222 794 q 265 719 265 754 q 244 665 265 685 q 188 644 222 644 m 479 644 q 423 665 444 644 q 401 719 401 685 q 423 774 401 754 q 479 794 444 794 q 536 774 514 794 q 558 719 558 754 q 536 665 558 685 q 479 644 514 644 z "},"ė":{"ha":638,"x_min":32,"x_max":597,"o":"m 597 249 l 169 249 q 228 131 179 174 q 350 89 276 89 q 456 110 406 89 q 546 167 507 131 l 589 83 q 483 12 546 39 q 344 -15 421 -15 q 183 20 254 -15 q 72 122 113 56 q 32 275 32 188 q 70 426 32 361 q 175 528 108 492 q 325 564 242 564 q 524 486 451 564 q 597 281 597 408 l 597 249 m 465 322 q 426 430 465 390 q 324 469 388 469 q 219 430 261 469 q 169 322 178 390 l 465 322 m 333 647 q 274 670 297 647 q 250 726 250 693 q 273 783 250 761 q 333 806 296 806 q 392 784 369 806 q 415 726 415 763 q 394 670 417 693 q 333 647 371 647 z "},"ẹ":{"ha":638,"x_min":32,"x_max":597,"o":"m 597 249 l 169 249 q 228 131 179 174 q 350 89 276 89 q 456 110 406 89 q 546 167 507 131 l 589 83 q 483 12 546 39 q 344 -15 421 -15 q 183 20 254 -15 q 72 122 113 56 q 32 275 32 188 q 70 426 32 361 q 175 528 108 492 q 325 564 242 564 q 524 486 451 564 q 597 281 597 408 l 597 249 m 465 322 q 426 430 465 390 q 324 469 388 469 q 219 430 261 469 q 169 322 178 390 l 465 322 m 339 -219 q 282 -199 304 -219 q 260 -146 260 -178 q 282 -93 260 -114 q 339 -72 304 -72 q 397 -93 375 -72 q 418 -149 418 -114 q 396 -199 418 -178 q 339 -219 374 -219 z "},"è":{"ha":638,"x_min":32,"x_max":597,"o":"m 597 249 l 169 249 q 228 131 179 174 q 350 89 276 89 q 456 110 406 89 q 546 167 507 131 l 589 83 q 483 12 546 39 q 344 -15 421 -15 q 183 20 254 -15 q 72 122 113 56 q 32 275 32 188 q 70 426 32 361 q 175 528 108 492 q 325 564 242 564 q 524 486 451 564 q 597 281 597 408 l 597 249 m 465 322 q 426 430 465 390 q 324 469 388 469 q 219 430 261 469 q 169 322 178 390 l 465 322 m 163 871 l 304 871 l 374 656 l 290 656 l 163 871 z "},"ẻ":{"ha":638,"x_min":32,"x_max":597,"o":"m 597 249 l 169 249 q 228 131 179 174 q 350 89 276 89 q 456 110 406 89 q 546 167 507 131 l 589 83 q 483 12 546 39 q 344 -15 421 -15 q 183 20 254 -15 q 72 122 113 56 q 32 275 32 188 q 70 426 32 361 q 175 528 108 492 q 325 564 242 564 q 524 486 451 564 q 597 281 597 408 l 597 249 m 465 322 q 426 430 465 390 q 324 469 388 469 q 219 430 261 469 q 169 322 178 390 l 465 322 m 311 671 q 357 722 357 686 q 344 751 357 740 q 307 761 331 761 q 240 742 275 761 l 219 803 q 322 835 264 835 q 409 806 376 835 q 442 731 442 776 q 331 610 442 638 l 311 671 z "},"ȇ":{"ha":638,"x_min":32,"x_max":597,"o":"m 597 249 l 169 249 q 228 131 179 174 q 350 89 276 89 q 456 110 406 89 q 546 167 507 131 l 589 83 q 483 12 546 39 q 344 -15 421 -15 q 183 20 254 -15 q 72 122 113 56 q 32 275 32 188 q 70 426 32 361 q 175 528 108 492 q 325 564 242 564 q 524 486 451 564 q 597 281 597 408 l 597 249 m 465 322 q 426 430 465 390 q 324 469 388 469 q 219 430 261 469 q 169 322 178 390 l 465 322 m 153 624 q 207 749 158 704 q 333 794 256 794 q 459 749 411 794 q 513 624 507 704 l 417 624 q 333 700 404 700 q 249 624 261 700 l 153 624 z "},"ē":{"ha":638,"x_min":32,"x_max":597,"o":"m 597 249 l 169 249 q 228 131 179 174 q 350 89 276 89 q 456 110 406 89 q 546 167 507 131 l 589 83 q 483 12 546 39 q 344 -15 421 -15 q 183 20 254 -15 q 72 122 113 56 q 32 275 32 188 q 70 426 32 361 q 175 528 108 492 q 325 564 242 564 q 524 486 451 564 q 597 281 597 408 l 597 249 m 465 322 q 426 430 465 390 q 324 469 388 469 q 219 430 261 469 q 169 322 178 390 l 465 322 m 175 733 l 492 733 l 492 654 l 175 654 l 175 733 z "},"ḗ":{"ha":638,"x_min":32,"x_max":597,"o":"m 597 249 l 169 249 q 228 131 179 174 q 350 89 276 89 q 456 110 406 89 q 546 167 507 131 l 589 83 q 483 12 546 39 q 344 -15 421 -15 q 183 20 254 -15 q 72 122 113 56 q 32 275 32 188 q 70 426 32 361 q 175 528 108 492 q 325 564 242 564 q 524 486 451 564 q 597 281 597 408 l 597 249 m 465 322 q 426 430 465 390 q 324 469 388 469 q 219 430 261 469 q 169 322 178 390 l 465 322 m 175 733 l 492 733 l 492 654 l 175 654 l 175 733 m 361 1044 l 504 1044 l 375 829 l 292 829 l 361 1044 z "},"ḕ":{"ha":638,"x_min":32,"x_max":597,"o":"m 597 249 l 169 249 q 228 131 179 174 q 350 89 276 89 q 456 110 406 89 q 546 167 507 131 l 589 83 q 483 12 546 39 q 344 -15 421 -15 q 183 20 254 -15 q 72 122 113 56 q 32 275 32 188 q 70 426 32 361 q 175 528 108 492 q 325 564 242 564 q 524 486 451 564 q 597 281 597 408 l 597 249 m 465 322 q 426 430 465 390 q 324 469 388 469 q 219 430 261 469 q 169 322 178 390 l 465 322 m 175 733 l 492 733 l 492 654 l 175 654 l 175 733 m 163 1044 l 304 1044 l 374 829 l 290 829 l 163 1044 z "},"ę":{"ha":638,"x_min":32,"x_max":597,"o":"m 597 249 l 169 249 q 228 131 179 174 q 350 89 276 89 q 456 110 406 89 q 546 167 507 131 l 589 83 q 499 19 551 44 q 383 -14 447 -7 q 339 -106 339 -65 q 357 -149 339 -133 q 406 -164 375 -164 q 467 -149 438 -164 l 467 -215 q 372 -240 418 -240 q 288 -210 321 -240 q 256 -135 256 -181 q 315 -14 256 -76 q 110 72 189 -6 q 32 275 32 150 q 70 426 32 361 q 175 528 108 492 q 325 564 242 564 q 524 486 451 564 q 597 281 597 408 l 597 249 m 465 322 q 426 430 465 390 q 324 469 388 469 q 219 430 261 469 q 169 322 178 390 l 465 322 z "},"ẽ":{"ha":638,"x_min":32,"x_max":597,"o":"m 597 249 l 169 249 q 228 131 179 174 q 350 89 276 89 q 456 110 406 89 q 546 167 507 131 l 589 83 q 483 12 546 39 q 344 -15 421 -15 q 183 20 254 -15 q 72 122 113 56 q 32 275 32 188 q 70 426 32 361 q 175 528 108 492 q 325 564 242 564 q 524 486 451 564 q 597 281 597 408 l 597 249 m 465 322 q 426 430 465 390 q 324 469 388 469 q 219 430 261 469 q 169 322 178 390 l 465 322 m 425 653 q 375 661 400 653 q 313 685 350 669 q 233 708 254 708 q 185 660 193 708 l 124 660 q 162 772 129 736 q 246 808 194 808 q 286 802 265 808 q 326 788 307 796 q 353 778 346 781 q 431 753 406 753 q 466 765 453 753 q 485 804 479 776 l 543 804 q 508 692 538 732 q 425 653 478 653 z "},"ə":{"ha":638,"x_min":42,"x_max":607,"o":"m 307 565 q 462 530 393 565 q 569 429 531 494 q 607 278 607 364 q 569 124 607 190 q 466 21 532 57 q 318 -15 400 -15 q 115 63 189 -15 q 42 269 42 140 l 42 300 l 469 300 q 414 419 460 376 q 297 461 368 461 q 92 382 186 461 l 49 465 q 162 538 96 510 q 307 565 228 565 m 322 81 q 421 119 382 81 q 468 228 460 158 l 174 228 q 215 120 174 160 q 322 81 256 81 z "},"f":{"ha":440,"x_min":46,"x_max":517,"o":"m 46 90 l 143 90 l 143 460 l 47 460 l 47 550 l 143 550 l 143 650 q 192 787 143 736 q 338 838 240 838 q 463 802 415 838 q 517 694 510 767 l 411 669 q 391 728 406 708 q 346 749 376 749 q 281 650 281 749 l 281 550 l 438 550 l 438 460 l 281 460 l 281 90 l 407 90 l 407 0 l 46 0 l 46 90 z "},"ḟ":{"ha":440,"x_min":46,"x_max":517,"o":"m 46 90 l 143 90 l 143 460 l 47 460 l 47 550 l 143 550 l 143 650 q 192 787 143 736 q 338 838 240 838 q 463 802 415 838 q 517 694 510 767 l 411 669 q 391 728 406 708 q 346 749 376 749 q 281 650 281 749 l 281 550 l 438 550 l 438 460 l 281 460 l 281 90 l 407 90 l 407 0 l 46 0 l 46 90 m 339 921 q 279 944 303 921 q 256 1000 256 967 q 278 1057 256 1035 q 339 1079 301 1079 q 398 1058 375 1079 q 421 1000 421 1036 q 399 944 422 967 q 339 921 376 921 z "},"g":{"ha":724,"x_min":39,"x_max":708,"o":"m 708 550 l 708 460 l 624 460 l 624 1 q 546 -198 624 -132 q 335 -264 468 -264 q 115 -226 231 -264 l 139 -131 q 319 -162 243 -162 q 443 -125 400 -162 q 486 -12 486 -87 l 486 50 q 313 -7 410 -7 q 172 28 233 -7 q 74 126 110 63 q 39 278 39 190 q 74 430 39 365 q 169 528 108 494 q 310 563 231 563 q 406 545 357 563 q 489 500 454 528 l 489 550 l 708 550 m 182 274 q 229 142 182 189 q 350 94 276 94 q 486 139 422 94 l 485 414 q 342 463 414 463 q 226 413 269 463 q 182 274 182 363 z "},"ǵ":{"ha":724,"x_min":39,"x_max":708,"o":"m 708 550 l 708 460 l 624 460 l 624 1 q 546 -198 624 -132 q 335 -264 468 -264 q 115 -226 231 -264 l 139 -131 q 319 -162 243 -162 q 443 -125 400 -162 q 486 -12 486 -87 l 486 50 q 313 -7 410 -7 q 172 28 233 -7 q 74 126 110 63 q 39 278 39 190 q 74 430 39 365 q 169 528 108 494 q 310 563 231 563 q 406 545 357 563 q 489 500 454 528 l 489 550 l 708 550 m 182 274 q 229 142 182 189 q 350 94 276 94 q 486 139 422 94 l 485 414 q 342 463 414 463 q 226 413 269 463 q 182 274 182 363 m 383 871 l 526 871 l 397 656 l 314 656 l 383 871 z "},"ğ":{"ha":724,"x_min":39,"x_max":708,"o":"m 708 550 l 708 460 l 624 460 l 624 1 q 546 -198 624 -132 q 335 -264 468 -264 q 115 -226 231 -264 l 139 -131 q 319 -162 243 -162 q 443 -125 400 -162 q 486 -12 486 -87 l 486 50 q 313 -7 410 -7 q 172 28 233 -7 q 74 126 110 63 q 39 278 39 190 q 74 430 39 365 q 169 528 108 494 q 310 563 231 563 q 406 545 357 563 q 489 500 454 528 l 489 550 l 708 550 m 182 274 q 229 142 182 189 q 350 94 276 94 q 486 139 422 94 l 485 414 q 342 463 414 463 q 226 413 269 463 q 182 274 182 363 m 351 635 q 231 676 276 635 q 179 793 185 718 l 269 793 q 356 713 285 713 q 413 733 390 713 q 440 793 435 754 l 532 793 q 478 676 525 717 q 351 635 431 635 z "},"ǧ":{"ha":724,"x_min":39,"x_max":708,"o":"m 708 550 l 708 460 l 624 460 l 624 1 q 546 -198 624 -132 q 335 -264 468 -264 q 115 -226 231 -264 l 139 -131 q 319 -162 243 -162 q 443 -125 400 -162 q 486 -12 486 -87 l 486 50 q 313 -7 410 -7 q 172 28 233 -7 q 74 126 110 63 q 39 278 39 190 q 74 430 39 365 q 169 528 108 494 q 310 563 231 563 q 406 545 357 563 q 489 500 454 528 l 489 550 l 708 550 m 182 274 q 229 142 182 189 q 350 94 276 94 q 486 139 422 94 l 485 414 q 342 463 414 463 q 226 413 269 463 q 182 274 182 363 m 176 849 l 272 849 l 358 696 l 443 849 l 533 849 l 428 628 l 288 628 l 176 849 z "},"ĝ":{"ha":724,"x_min":39,"x_max":708,"o":"m 708 550 l 708 460 l 624 460 l 624 1 q 546 -198 624 -132 q 335 -264 468 -264 q 115 -226 231 -264 l 139 -131 q 319 -162 243 -162 q 443 -125 400 -162 q 486 -12 486 -87 l 486 50 q 313 -7 410 -7 q 172 28 233 -7 q 74 126 110 63 q 39 278 39 190 q 74 430 39 365 q 169 528 108 494 q 310 563 231 563 q 406 545 357 563 q 489 500 454 528 l 489 550 l 708 550 m 182 274 q 229 142 182 189 q 350 94 276 94 q 486 139 422 94 l 485 414 q 342 463 414 463 q 226 413 269 463 q 182 274 182 363 m 285 856 l 428 856 l 543 629 l 449 629 l 356 799 l 263 629 l 168 629 l 285 856 z "},"ģ":{"ha":724,"x_min":39,"x_max":708,"o":"m 708 550 l 708 460 l 624 460 l 624 1 q 546 -198 624 -132 q 335 -264 468 -264 q 115 -226 231 -264 l 139 -131 q 319 -162 243 -162 q 443 -125 400 -162 q 486 -12 486 -87 l 486 50 q 313 -7 410 -7 q 172 28 233 -7 q 74 126 110 63 q 39 278 39 190 q 74 430 39 365 q 169 528 108 494 q 310 563 231 563 q 406 545 357 563 q 489 500 454 528 l 489 550 l 708 550 m 182 274 q 229 142 182 189 q 350 94 276 94 q 486 139 422 94 l 485 414 q 342 463 414 463 q 226 413 269 463 q 182 274 182 363 m 429 893 q 368 863 388 886 q 349 794 349 840 l 431 794 l 431 660 l 276 660 l 276 788 q 313 906 276 865 q 429 946 350 946 l 429 893 z "},"ġ":{"ha":724,"x_min":39,"x_max":708,"o":"m 708 550 l 708 460 l 624 460 l 624 1 q 546 -198 624 -132 q 335 -264 468 -264 q 115 -226 231 -264 l 139 -131 q 319 -162 243 -162 q 443 -125 400 -162 q 486 -12 486 -87 l 486 50 q 313 -7 410 -7 q 172 28 233 -7 q 74 126 110 63 q 39 278 39 190 q 74 430 39 365 q 169 528 108 494 q 310 563 231 563 q 406 545 357 563 q 489 500 454 528 l 489 550 l 708 550 m 182 274 q 229 142 182 189 q 350 94 276 94 q 486 139 422 94 l 485 414 q 342 463 414 463 q 226 413 269 463 q 182 274 182 363 m 356 647 q 296 670 319 647 q 272 726 272 693 q 295 783 272 761 q 356 806 318 806 q 415 784 392 806 q 438 726 438 763 q 416 670 439 693 q 356 647 393 647 z "},"ḡ":{"ha":724,"x_min":39,"x_max":708,"o":"m 708 550 l 708 460 l 624 460 l 624 1 q 546 -198 624 -132 q 335 -264 468 -264 q 115 -226 231 -264 l 139 -131 q 319 -162 243 -162 q 443 -125 400 -162 q 486 -12 486 -87 l 486 50 q 313 -7 410 -7 q 172 28 233 -7 q 74 126 110 63 q 39 278 39 190 q 74 430 39 365 q 169 528 108 494 q 310 563 231 563 q 406 545 357 563 q 489 500 454 528 l 489 550 l 708 550 m 182 274 q 229 142 182 189 q 350 94 276 94 q 486 139 422 94 l 485 414 q 342 463 414 463 q 226 413 269 463 q 182 274 182 363 m 197 733 l 514 733 l 514 654 l 197 654 l 197 733 z "},"h":{"ha":733,"x_min":15,"x_max":717,"o":"m 717 90 l 717 0 l 408 0 l 408 90 l 489 90 l 489 353 q 464 433 489 404 q 396 463 439 463 q 246 411 325 463 l 246 90 l 324 90 l 324 0 l 15 0 l 15 90 l 107 90 l 107 714 l 17 714 l 17 803 l 246 803 l 246 494 q 443 564 350 564 q 576 513 525 564 q 626 376 626 463 l 626 90 l 717 90 z "},"ħ":{"ha":733,"x_min":15,"x_max":717,"o":"m 717 90 l 717 0 l 408 0 l 408 90 l 489 90 l 489 353 q 464 433 489 404 q 396 463 439 463 q 246 411 325 463 l 246 90 l 324 90 l 324 0 l 15 0 l 15 90 l 107 90 l 107 714 l 17 714 l 17 803 l 246 803 l 246 494 q 443 564 350 564 q 576 513 525 564 q 626 376 626 463 l 626 90 l 717 90 m 18 988 l 335 988 l 335 908 l 18 908 l 18 988 z "},"ḫ":{"ha":733,"x_min":15,"x_max":717,"o":"m 717 90 l 717 0 l 408 0 l 408 90 l 489 90 l 489 353 q 464 433 489 404 q 396 463 439 463 q 246 411 325 463 l 246 90 l 324 90 l 324 0 l 15 0 l 15 90 l 107 90 l 107 714 l 17 714 l 17 803 l 246 803 l 246 494 q 443 564 350 564 q 576 513 525 564 q 626 376 626 463 l 626 90 l 717 90 m 363 -231 q 242 -189 288 -231 q 190 -72 196 -147 l 281 -72 q 367 -153 296 -153 q 424 -132 401 -153 q 451 -72 446 -111 l 543 -72 q 489 -190 536 -149 q 363 -231 442 -231 z "},"ȟ":{"ha":733,"x_min":-3,"x_max":717,"o":"m 717 90 l 717 0 l 408 0 l 408 90 l 489 90 l 489 353 q 464 433 489 404 q 396 463 439 463 q 246 411 325 463 l 246 90 l 324 90 l 324 0 l 15 0 l 15 90 l 107 90 l 107 714 l 17 714 l 17 803 l 246 803 l 246 494 q 443 564 350 564 q 576 513 525 564 q 626 376 626 463 l 626 90 l 717 90 m -3 1103 l 93 1103 l 179 950 l 264 1103 l 354 1103 l 249 882 l 108 882 l -3 1103 z "},"ĥ":{"ha":733,"x_min":-11,"x_max":717,"o":"m 717 90 l 717 0 l 408 0 l 408 90 l 489 90 l 489 353 q 464 433 489 404 q 396 463 439 463 q 246 411 325 463 l 246 90 l 324 90 l 324 0 l 15 0 l 15 90 l 107 90 l 107 714 l 17 714 l 17 803 l 246 803 l 246 494 q 443 564 350 564 q 576 513 525 564 q 626 376 626 463 l 626 90 l 717 90 m 106 1110 l 249 1110 l 364 883 l 269 883 l 176 1053 l 83 883 l -11 883 l 106 1110 z "},"ḥ":{"ha":733,"x_min":15,"x_max":717,"o":"m 717 90 l 717 0 l 408 0 l 408 90 l 489 90 l 489 353 q 464 433 489 404 q 396 463 439 463 q 246 411 325 463 l 246 90 l 324 90 l 324 0 l 15 0 l 15 90 l 107 90 l 107 714 l 17 714 l 17 803 l 246 803 l 246 494 q 443 564 350 564 q 576 513 525 564 q 626 376 626 463 l 626 90 l 717 90 m 367 -219 q 310 -199 332 -219 q 288 -146 288 -178 q 310 -93 288 -114 q 367 -72 332 -72 q 424 -93 403 -72 q 446 -149 446 -114 q 424 -199 446 -178 q 367 -219 401 -219 z "},"i":{"ha":378,"x_min":28,"x_max":349,"o":"m 176 663 q 112 687 138 663 q 86 749 86 711 q 112 810 86 786 q 176 835 138 835 q 241 810 215 835 q 267 749 267 786 q 241 687 267 711 q 176 663 215 663 m 28 90 l 122 90 l 122 460 l 29 460 l 29 550 l 260 550 l 260 90 l 349 90 l 349 0 l 28 0 l 28 90 z "},"ı":{"ha":382,"x_min":28,"x_max":353,"o":"m 28 93 l 126 93 l 126 456 l 31 456 l 31 550 l 263 550 l 263 93 l 353 93 l 353 0 l 28 0 l 28 93 z "},"í":{"ha":382,"x_min":28,"x_max":356,"o":"m 28 93 l 126 93 l 126 456 l 31 456 l 31 550 l 263 550 l 263 93 l 353 93 l 353 0 l 28 0 l 28 93 m 213 869 l 356 869 l 226 654 l 143 654 l 213 869 z "},"ĭ":{"ha":382,"x_min":8,"x_max":361,"o":"m 28 93 l 126 93 l 126 456 l 31 456 l 31 550 l 263 550 l 263 93 l 353 93 l 353 0 l 28 0 l 28 93 m 181 633 q 60 675 106 633 q 8 792 14 717 l 99 792 q 185 711 114 711 q 242 732 219 711 q 269 792 264 753 l 361 792 q 307 674 354 715 q 181 633 260 633 z "},"ǐ":{"ha":382,"x_min":6,"x_max":363,"o":"m 28 93 l 126 93 l 126 456 l 31 456 l 31 550 l 263 550 l 263 93 l 353 93 l 353 0 l 28 0 l 28 93 m 6 847 l 101 847 l 188 694 l 272 847 l 363 847 l 257 626 l 117 626 l 6 847 z "},"î":{"ha":382,"x_min":-3,"x_max":372,"o":"m 28 93 l 126 93 l 126 456 l 31 456 l 31 550 l 263 550 l 263 93 l 353 93 l 353 0 l 28 0 l 28 93 m 114 854 l 257 854 l 372 628 l 278 628 l 185 797 l 92 628 l -3 628 l 114 854 z "},"ȉ":{"ha":382,"x_min":-110,"x_max":353,"o":"m 28 93 l 126 93 l 126 456 l 31 456 l 31 550 l 263 550 l 263 93 l 353 93 l 353 0 l 28 0 l 28 93 m -110 876 l 32 876 l 106 654 l 22 654 l -110 876 m 107 876 l 249 876 l 321 654 l 238 654 l 107 876 z "},"ï":{"ha":382,"x_min":-40,"x_max":410,"o":"m 28 93 l 126 93 l 126 456 l 31 456 l 31 550 l 263 550 l 263 93 l 353 93 l 353 0 l 28 0 l 28 93 m 39 643 q -18 663 4 643 q -40 718 -40 683 q -18 773 -40 753 q 39 793 4 793 q 95 773 74 793 q 117 718 117 753 q 95 663 117 683 q 39 643 74 643 m 331 643 q 274 663 296 643 q 253 718 253 683 q 274 773 253 753 q 331 793 296 793 q 388 773 365 793 q 410 718 410 753 q 388 663 410 683 q 331 643 365 643 z "},"ḯ":{"ha":382,"x_min":-40,"x_max":410,"o":"m 28 93 l 126 93 l 126 456 l 31 456 l 31 550 l 263 550 l 263 93 l 353 93 l 353 0 l 28 0 l 28 93 m 39 643 q -18 663 4 643 q -40 718 -40 683 q -18 773 -40 753 q 39 793 4 793 q 95 773 74 793 q 117 718 117 753 q 95 663 117 683 q 39 643 74 643 m 331 643 q 274 663 296 643 q 253 718 253 683 q 274 773 253 753 q 331 793 296 793 q 388 773 365 793 q 410 718 410 753 q 388 663 410 683 q 331 643 365 643 m 213 1106 l 356 1106 l 226 890 l 143 890 l 213 1106 z "},"ị":{"ha":378,"x_min":28,"x_max":349,"o":"m 176 663 q 112 687 138 663 q 86 749 86 711 q 112 810 86 786 q 176 835 138 835 q 241 810 215 835 q 267 749 267 786 q 241 687 267 711 q 176 663 215 663 m 28 90 l 122 90 l 122 460 l 29 460 l 29 550 l 260 550 l 260 90 l 349 90 l 349 0 l 28 0 l 28 90 m 192 -219 q 135 -199 157 -219 q 113 -146 113 -178 q 135 -93 113 -114 q 192 -72 157 -72 q 249 -93 228 -72 q 271 -149 271 -114 q 249 -199 271 -178 q 192 -219 226 -219 z "},"ì":{"ha":382,"x_min":14,"x_max":353,"o":"m 28 93 l 126 93 l 126 456 l 31 456 l 31 550 l 263 550 l 263 93 l 353 93 l 353 0 l 28 0 l 28 93 m 14 869 l 156 869 l 225 654 l 142 654 l 14 869 z "},"ỉ":{"ha":382,"x_min":28,"x_max":353,"o":"m 28 93 l 126 93 l 126 456 l 31 456 l 31 550 l 263 550 l 263 93 l 353 93 l 353 0 l 28 0 l 28 93 m 163 669 q 208 721 208 685 q 195 749 208 739 q 158 760 182 760 q 92 740 126 760 l 71 801 q 174 833 115 833 q 260 804 228 833 q 293 729 293 775 q 182 608 293 636 l 163 669 z "},"ȋ":{"ha":382,"x_min":4,"x_max":364,"o":"m 28 93 l 126 93 l 126 456 l 31 456 l 31 550 l 263 550 l 263 93 l 353 93 l 353 0 l 28 0 l 28 93 m 4 622 q 58 748 10 703 q 185 793 107 793 q 310 748 263 793 q 364 622 358 703 l 268 622 q 185 699 256 699 q 100 622 113 699 l 4 622 z "},"ĳ":{"ha":747,"x_min":28,"x_max":671,"o":"m 176 663 q 112 687 138 663 q 86 749 86 711 q 112 810 86 786 q 176 835 138 835 q 241 810 215 835 q 267 749 267 786 q 241 687 267 711 q 176 663 215 663 m 28 90 l 122 90 l 122 460 l 29 460 l 29 550 l 260 550 l 260 90 l 349 90 l 349 0 l 28 0 l 28 90 m 579 663 q 515 687 540 663 q 489 750 489 711 q 515 811 489 788 q 579 835 540 835 q 644 811 619 835 q 669 750 669 788 q 645 687 671 711 q 579 663 619 663 m 379 -112 l 436 -112 q 511 -87 490 -112 q 532 -1 532 -61 l 532 456 l 424 456 l 424 550 l 671 550 l 671 25 q 622 -158 671 -99 q 443 -217 574 -217 l 379 -217 l 379 -112 z "},"ī":{"ha":382,"x_min":26,"x_max":353,"o":"m 28 93 l 126 93 l 126 456 l 31 456 l 31 550 l 263 550 l 263 93 l 353 93 l 353 0 l 28 0 l 28 93 m 26 732 l 343 732 l 343 653 l 26 653 l 26 732 z "},"į":{"ha":382,"x_min":28,"x_max":353,"o":"m 28 93 l 126 93 l 126 456 l 31 456 l 31 550 l 263 550 l 263 93 l 353 93 l 353 0 l 28 0 l 28 93 m 172 -246 q 88 -216 121 -246 q 56 -140 56 -186 q 136 0 56 -72 l 200 0 q 154 -60 169 -33 q 139 -111 139 -86 q 157 -154 139 -139 q 206 -169 175 -169 q 267 -154 238 -169 l 267 -221 q 172 -246 218 -246 m 185 646 q 125 669 149 646 q 101 725 101 692 q 124 782 101 760 q 185 804 147 804 q 244 783 221 804 q 267 725 267 761 q 245 669 268 692 q 185 646 222 646 z "},"ĩ":{"ha":382,"x_min":-25,"x_max":394,"o":"m 28 93 l 126 93 l 126 456 l 31 456 l 31 550 l 263 550 l 263 93 l 353 93 l 353 0 l 28 0 l 28 93 m 276 651 q 226 660 251 651 q 164 683 201 668 q 85 707 106 707 q 36 658 44 707 l -25 658 q 13 771 -19 735 q 97 807 46 807 q 138 801 117 807 q 178 787 158 794 q 204 776 197 779 q 282 751 257 751 q 317 763 304 751 q 336 803 331 775 l 394 803 q 359 691 389 731 q 276 651 329 651 z "},"j":{"ha":369,"x_min":1,"x_max":293,"o":"m 201 663 q 137 687 163 663 q 111 750 111 711 q 137 811 111 788 q 201 835 163 835 q 267 811 242 835 q 292 750 292 788 q 267 687 293 711 q 201 663 242 663 m 1 -112 l 58 -112 q 133 -87 113 -112 q 154 -1 154 -61 l 154 456 l 46 456 l 46 550 l 293 550 l 293 25 q 244 -158 293 -99 q 65 -217 196 -217 l 1 -217 l 1 -112 z "},"ȷ":{"ha":368,"x_min":1,"x_max":293,"o":"m 1 -112 l 58 -112 q 135 -86 115 -112 q 154 3 154 -60 l 154 456 l 43 456 l 43 550 l 293 550 l 293 32 q 275 -105 293 -51 q 207 -187 257 -158 q 65 -217 157 -217 l 1 -217 l 1 -112 z "},"ǰ":{"ha":368,"x_min":1,"x_max":364,"o":"m 1 -112 l 58 -112 q 135 -86 115 -112 q 154 3 154 -60 l 154 456 l 43 456 l 43 550 l 293 550 l 293 32 q 275 -105 293 -51 q 207 -187 257 -158 q 65 -217 157 -217 l 1 -217 l 1 -112 m 7 849 l 103 849 l 189 696 l 274 849 l 364 849 l 258 628 l 118 628 l 7 849 z "},"ĵ":{"ha":368,"x_min":-1,"x_max":374,"o":"m 1 -112 l 58 -112 q 135 -86 115 -112 q 154 3 154 -60 l 154 456 l 43 456 l 43 550 l 293 550 l 293 32 q 275 -105 293 -51 q 207 -187 257 -158 q 65 -217 157 -217 l 1 -217 l 1 -112 m 115 856 l 258 856 l 374 629 l 279 629 l 186 799 l 93 629 l -1 629 l 115 856 z "},"k":{"ha":710,"x_min":31,"x_max":689,"o":"m 31 90 l 124 90 l 124 714 l 33 714 l 33 803 l 260 803 l 260 293 l 478 460 l 386 460 l 386 550 l 685 550 l 685 460 l 611 460 l 399 292 l 597 90 l 689 90 l 689 0 l 518 0 l 260 269 l 260 90 l 342 90 l 342 0 l 31 0 l 31 90 z "},"ǩ":{"ha":710,"x_min":13,"x_max":689,"o":"m 31 90 l 124 90 l 124 714 l 33 714 l 33 803 l 260 803 l 260 293 l 478 460 l 386 460 l 386 550 l 685 550 l 685 460 l 611 460 l 399 292 l 597 90 l 689 90 l 689 0 l 518 0 l 260 269 l 260 90 l 342 90 l 342 0 l 31 0 l 31 90 m 13 1101 l 108 1101 l 194 949 l 279 1101 l 369 1101 l 264 881 l 124 881 l 13 1101 z "},"ķ":{"ha":710,"x_min":31,"x_max":689,"o":"m 31 90 l 124 90 l 124 714 l 33 714 l 33 803 l 260 803 l 260 293 l 478 460 l 386 460 l 386 550 l 685 550 l 685 460 l 611 460 l 399 292 l 597 90 l 689 90 l 689 0 l 518 0 l 260 269 l 260 90 l 342 90 l 342 0 l 31 0 l 31 90 m 311 -306 q 372 -276 353 -299 q 392 -207 392 -253 l 310 -207 l 310 -72 l 464 -72 l 464 -200 q 427 -318 464 -278 q 311 -358 390 -358 l 311 -306 z "},"ĸ":{"ha":775,"x_min":65,"x_max":764,"o":"m 764 93 l 764 0 l 608 0 l 301 263 l 301 93 l 375 93 l 375 0 l 65 0 l 65 93 l 164 93 l 164 453 l 65 453 l 65 546 l 301 546 l 301 276 l 514 453 l 424 453 l 424 546 l 756 546 l 756 453 l 658 453 l 439 276 l 660 93 l 764 93 z "},"l":{"ha":369,"x_min":32,"x_max":343,"o":"m 32 90 l 124 90 l 124 714 l 35 714 l 35 803 l 261 803 l 261 90 l 343 90 l 343 0 l 32 0 l 32 90 z "},"ĺ":{"ha":369,"x_min":32,"x_max":363,"o":"m 32 90 l 124 90 l 124 714 l 35 714 l 35 803 l 261 803 l 261 90 l 343 90 l 343 0 l 32 0 l 32 90 m 219 1125 l 363 1125 l 233 910 l 150 910 l 219 1125 z "},"ľ":{"ha":481,"x_min":32,"x_max":472,"o":"m 32 90 l 124 90 l 124 714 l 35 714 l 35 803 l 261 803 l 261 90 l 343 90 l 343 0 l 32 0 l 32 90 m 318 568 q 380 596 360 574 q 400 665 400 618 l 318 665 l 318 804 l 472 804 l 471 674 q 318 514 474 514 l 318 568 z "},"ļ":{"ha":369,"x_min":32,"x_max":343,"o":"m 32 90 l 124 90 l 124 714 l 35 714 l 35 803 l 261 803 l 261 90 l 343 90 l 343 0 l 32 0 l 32 90 m 117 -306 q 178 -276 158 -299 q 197 -207 197 -253 l 115 -207 l 115 -72 l 269 -72 l 269 -200 q 233 -318 269 -278 q 117 -358 196 -358 l 117 -306 z "},"ŀ":{"ha":399,"x_min":32,"x_max":475,"o":"m 32 90 l 124 90 l 124 714 l 35 714 l 35 803 l 261 803 l 261 90 l 343 90 l 343 0 l 32 0 l 32 90 m 394 378 q 336 400 360 378 q 313 454 313 422 q 336 508 313 486 q 394 531 360 531 q 452 508 429 531 q 475 454 475 486 q 452 400 475 422 q 394 378 429 378 z "},"ḷ":{"ha":369,"x_min":32,"x_max":343,"o":"m 32 90 l 124 90 l 124 714 l 35 714 l 35 803 l 261 803 l 261 90 l 343 90 l 343 0 l 32 0 l 32 90 m 190 -219 q 133 -199 156 -219 q 111 -146 111 -178 q 133 -93 111 -114 q 190 -72 156 -72 q 248 -93 226 -72 q 269 -149 269 -114 q 247 -199 269 -178 q 190 -219 225 -219 z "},"ǉ":{"ha":739,"x_min":32,"x_max":663,"o":"m 32 90 l 124 90 l 124 714 l 35 714 l 35 803 l 261 803 l 261 90 l 343 90 l 343 0 l 32 0 l 32 90 m 571 663 q 506 687 532 663 q 481 750 481 711 q 506 811 481 788 q 571 835 532 835 q 636 811 611 835 q 661 750 661 788 q 637 687 663 711 q 571 663 611 663 m 371 -112 l 428 -112 q 503 -87 482 -112 q 524 -1 524 -61 l 524 456 l 415 456 l 415 550 l 663 550 l 663 25 q 614 -158 663 -99 q 435 -217 565 -217 l 371 -217 l 371 -112 z "},"ḻ":{"ha":369,"x_min":32,"x_max":349,"o":"m 32 90 l 124 90 l 124 714 l 35 714 l 35 803 l 261 803 l 261 90 l 343 90 l 343 0 l 32 0 l 32 90 m 32 -69 l 349 -69 l 349 -149 l 32 -149 l 32 -69 z "},"ł":{"ha":363,"x_min":26,"x_max":365,"o":"m 261 386 l 261 90 l 343 90 l 343 0 l 32 0 l 32 90 l 124 90 l 124 314 l 26 263 l 26 371 l 124 424 l 124 714 l 35 714 l 35 803 l 261 803 l 261 497 l 365 554 l 365 442 l 261 386 z "},"m":{"ha":1107,"x_min":28,"x_max":1101,"o":"m 1101 90 l 1101 0 l 793 0 l 793 90 l 874 90 l 874 353 q 849 433 874 404 q 779 463 824 463 q 628 410 708 463 q 631 375 631 388 l 631 90 l 721 90 l 721 0 l 414 0 l 414 90 l 494 90 l 494 353 q 469 433 494 404 q 400 463 444 463 q 260 418 342 463 l 260 90 l 344 90 l 344 0 l 28 0 l 28 90 l 122 90 l 122 460 l 28 460 l 28 550 l 254 550 l 256 497 q 449 564 358 564 q 544 541 504 564 q 606 478 585 518 q 717 542 664 519 q 828 564 769 564 q 960 513 908 564 q 1011 376 1011 463 l 1011 90 l 1101 90 z "},"ṁ":{"ha":1107,"x_min":28,"x_max":1101,"o":"m 1101 90 l 1101 0 l 793 0 l 793 90 l 874 90 l 874 353 q 849 433 874 404 q 779 463 824 463 q 628 410 708 463 q 631 375 631 388 l 631 90 l 721 90 l 721 0 l 414 0 l 414 90 l 494 90 l 494 353 q 469 433 494 404 q 400 463 444 463 q 260 418 342 463 l 260 90 l 344 90 l 344 0 l 28 0 l 28 90 l 122 90 l 122 460 l 28 460 l 28 550 l 254 550 l 256 497 q 449 564 358 564 q 544 541 504 564 q 606 478 585 518 q 717 542 664 519 q 828 564 769 564 q 960 513 908 564 q 1011 376 1011 463 l 1011 90 l 1101 90 m 583 647 q 524 670 547 647 q 500 726 500 693 q 523 783 500 761 q 583 806 546 806 q 642 784 619 806 q 665 726 665 763 q 644 670 667 693 q 583 647 621 647 z "},"ṃ":{"ha":1107,"x_min":28,"x_max":1101,"o":"m 1101 90 l 1101 0 l 793 0 l 793 90 l 874 90 l 874 353 q 849 433 874 404 q 779 463 824 463 q 628 410 708 463 q 631 375 631 388 l 631 90 l 721 90 l 721 0 l 414 0 l 414 90 l 494 90 l 494 353 q 469 433 494 404 q 400 463 444 463 q 260 418 342 463 l 260 90 l 344 90 l 344 0 l 28 0 l 28 90 l 122 90 l 122 460 l 28 460 l 28 550 l 254 550 l 256 497 q 449 564 358 564 q 544 541 504 564 q 606 478 585 518 q 717 542 664 519 q 828 564 769 564 q 960 513 908 564 q 1011 376 1011 463 l 1011 90 l 1101 90 m 564 -219 q 507 -199 529 -219 q 485 -146 485 -178 q 507 -93 485 -114 q 564 -72 529 -72 q 622 -93 600 -72 q 643 -149 643 -114 q 621 -199 643 -178 q 564 -219 599 -219 z "},"n":{"ha":731,"x_min":28,"x_max":725,"o":"m 725 90 l 725 0 l 417 0 l 417 90 l 496 90 l 496 353 q 471 433 496 404 q 401 463 446 463 q 260 415 338 463 l 260 90 l 344 90 l 344 0 l 28 0 l 28 90 l 122 90 l 122 460 l 28 460 l 28 550 l 254 550 l 256 497 q 450 564 358 564 q 583 513 532 564 q 633 376 633 463 l 633 90 l 725 90 z "},"ń":{"ha":731,"x_min":28,"x_max":725,"o":"m 725 90 l 725 0 l 417 0 l 417 90 l 496 90 l 496 353 q 471 433 496 404 q 401 463 446 463 q 260 415 338 463 l 260 90 l 344 90 l 344 0 l 28 0 l 28 90 l 122 90 l 122 460 l 28 460 l 28 550 l 254 550 l 256 497 q 450 564 358 564 q 583 513 532 564 q 633 376 633 463 l 633 90 l 725 90 m 413 871 l 556 871 l 426 656 l 343 656 l 413 871 z "},"ŉ":{"ha":1046,"x_min":140,"x_max":1042,"o":"m 140 661 q 202 689 182 667 q 222 758 222 711 l 140 758 l 140 897 l 294 897 l 293 767 q 140 607 296 607 l 140 661 m 1042 90 l 1042 0 l 733 0 l 733 90 l 813 90 l 813 353 q 788 433 813 404 q 718 463 763 463 q 576 415 654 463 l 576 90 l 661 90 l 661 0 l 344 0 l 344 90 l 439 90 l 439 460 l 344 460 l 344 550 l 571 550 l 572 497 q 767 564 675 564 q 899 513 849 564 q 950 376 950 463 l 950 90 l 1042 90 z "},"ň":{"ha":731,"x_min":28,"x_max":725,"o":"m 725 90 l 725 0 l 417 0 l 417 90 l 496 90 l 496 353 q 471 433 496 404 q 401 463 446 463 q 260 415 338 463 l 260 90 l 344 90 l 344 0 l 28 0 l 28 90 l 122 90 l 122 460 l 28 460 l 28 550 l 254 550 l 256 497 q 450 564 358 564 q 583 513 532 564 q 633 376 633 463 l 633 90 l 725 90 m 206 849 l 301 849 l 388 696 l 472 849 l 563 849 l 457 628 l 317 628 l 206 849 z "},"ņ":{"ha":731,"x_min":28,"x_max":725,"o":"m 725 90 l 725 0 l 417 0 l 417 90 l 496 90 l 496 353 q 471 433 496 404 q 401 463 446 463 q 260 415 338 463 l 260 90 l 344 90 l 344 0 l 28 0 l 28 90 l 122 90 l 122 460 l 28 460 l 28 550 l 254 550 l 256 497 q 450 564 358 564 q 583 513 532 564 q 633 376 633 463 l 633 90 l 725 90 m 314 -306 q 375 -276 356 -299 q 394 -207 394 -253 l 313 -207 l 313 -72 l 467 -72 l 467 -200 q 430 -318 467 -278 q 314 -358 393 -358 l 314 -306 z "},"ṅ":{"ha":731,"x_min":28,"x_max":725,"o":"m 725 90 l 725 0 l 417 0 l 417 90 l 496 90 l 496 353 q 471 433 496 404 q 401 463 446 463 q 260 415 338 463 l 260 90 l 344 90 l 344 0 l 28 0 l 28 90 l 122 90 l 122 460 l 28 460 l 28 550 l 254 550 l 256 497 q 450 564 358 564 q 583 513 532 564 q 633 376 633 463 l 633 90 l 725 90 m 385 647 q 325 670 349 647 q 301 726 301 693 q 324 783 301 761 q 385 806 347 806 q 444 784 421 806 q 467 726 467 763 q 445 670 468 693 q 385 647 422 647 z "},"ṇ":{"ha":731,"x_min":28,"x_max":725,"o":"m 725 90 l 725 0 l 417 0 l 417 90 l 496 90 l 496 353 q 471 433 496 404 q 401 463 446 463 q 260 415 338 463 l 260 90 l 344 90 l 344 0 l 28 0 l 28 90 l 122 90 l 122 460 l 28 460 l 28 550 l 254 550 l 256 497 q 450 564 358 564 q 583 513 532 564 q 633 376 633 463 l 633 90 l 725 90 m 388 -219 q 331 -199 353 -219 q 308 -146 308 -178 q 331 -93 308 -114 q 388 -72 353 -72 q 445 -93 424 -72 q 467 -149 467 -114 q 444 -199 467 -178 q 388 -219 422 -219 z "},"ǹ":{"ha":731,"x_min":28,"x_max":725,"o":"m 725 90 l 725 0 l 417 0 l 417 90 l 496 90 l 496 353 q 471 433 496 404 q 401 463 446 463 q 260 415 338 463 l 260 90 l 344 90 l 344 0 l 28 0 l 28 90 l 122 90 l 122 460 l 28 460 l 28 550 l 254 550 l 256 497 q 450 564 358 564 q 583 513 532 564 q 633 376 633 463 l 633 90 l 725 90 m 214 871 l 356 871 l 425 656 l 342 656 l 214 871 z "},"ŋ":{"ha":733,"x_min":28,"x_max":639,"o":"m 333 -128 q 462 -89 422 -128 q 501 39 501 -50 l 501 353 q 476 433 501 404 q 404 463 450 463 q 260 417 342 463 l 260 90 l 344 90 l 344 0 l 28 0 l 28 90 l 122 90 l 122 460 l 28 460 l 28 550 l 254 550 l 256 497 q 453 564 361 564 q 587 513 535 564 q 639 376 639 463 l 639 46 q 556 -162 639 -100 q 333 -225 472 -225 l 333 -128 z "},"ǌ":{"ha":1100,"x_min":28,"x_max":1024,"o":"m 725 90 l 725 0 l 417 0 l 417 90 l 496 90 l 496 353 q 471 433 496 404 q 401 463 446 463 q 260 415 338 463 l 260 90 l 344 90 l 344 0 l 28 0 l 28 90 l 122 90 l 122 460 l 28 460 l 28 550 l 254 550 l 256 497 q 450 564 358 564 q 583 513 532 564 q 633 376 633 463 l 633 90 l 725 90 m 932 663 q 867 687 893 663 q 842 750 842 711 q 867 811 842 788 q 932 835 893 835 q 997 811 972 835 q 1022 750 1022 788 q 998 687 1024 711 q 932 663 972 663 m 732 -112 l 789 -112 q 864 -87 843 -112 q 885 -1 885 -61 l 885 456 l 776 456 l 776 550 l 1024 550 l 1024 25 q 975 -158 1024 -99 q 796 -217 926 -217 l 732 -217 l 732 -112 z "},"ṉ":{"ha":731,"x_min":28,"x_max":725,"o":"m 725 90 l 725 0 l 417 0 l 417 90 l 496 90 l 496 353 q 471 433 496 404 q 401 463 446 463 q 260 415 338 463 l 260 90 l 344 90 l 344 0 l 28 0 l 28 90 l 122 90 l 122 460 l 28 460 l 28 550 l 254 550 l 256 497 q 450 564 358 564 q 583 513 532 564 q 633 376 633 463 l 633 90 l 725 90 m 229 -69 l 546 -69 l 546 -149 l 229 -149 l 229 -69 z "},"ñ":{"ha":731,"x_min":28,"x_max":725,"o":"m 725 90 l 725 0 l 417 0 l 417 90 l 496 90 l 496 353 q 471 433 496 404 q 401 463 446 463 q 260 415 338 463 l 260 90 l 344 90 l 344 0 l 28 0 l 28 90 l 122 90 l 122 460 l 28 460 l 28 550 l 254 550 l 256 497 q 450 564 358 564 q 583 513 532 564 q 633 376 633 463 l 633 90 l 725 90 m 476 653 q 426 661 451 653 q 364 685 401 669 q 285 708 306 708 q 236 660 244 708 l 175 660 q 213 772 181 736 q 297 808 246 808 q 338 802 317 808 q 378 788 358 796 q 404 778 397 781 q 482 753 457 753 q 517 765 504 753 q 536 804 531 776 l 594 804 q 559 692 589 732 q 476 653 529 653 z "},"o":{"ha":664,"x_min":32,"x_max":632,"o":"m 331 -15 q 174 21 242 -15 q 69 123 107 57 q 32 275 32 189 q 69 427 32 361 q 174 528 107 493 q 331 564 242 564 q 488 528 419 564 q 594 428 557 493 q 632 276 632 363 q 594 124 632 190 q 488 21 557 57 q 331 -15 419 -15 m 333 90 q 453 141 408 90 q 497 276 497 192 q 452 409 497 360 q 331 458 407 458 q 211 409 256 458 q 167 275 167 360 q 212 140 167 190 q 333 90 257 90 z "},"ó":{"ha":664,"x_min":32,"x_max":632,"o":"m 331 -15 q 174 21 242 -15 q 69 123 107 57 q 32 275 32 189 q 69 427 32 361 q 174 528 107 493 q 331 564 242 564 q 488 528 419 564 q 594 428 557 493 q 632 276 632 363 q 594 124 632 190 q 488 21 557 57 q 331 -15 419 -15 m 333 90 q 453 141 408 90 q 497 276 497 192 q 452 409 497 360 q 331 458 407 458 q 211 409 256 458 q 167 275 167 360 q 212 140 167 190 q 333 90 257 90 m 358 871 l 501 871 l 372 656 l 289 656 l 358 871 z "},"ŏ":{"ha":664,"x_min":32,"x_max":632,"o":"m 331 -15 q 174 21 242 -15 q 69 123 107 57 q 32 275 32 189 q 69 427 32 361 q 174 528 107 493 q 331 564 242 564 q 488 528 419 564 q 594 428 557 493 q 632 276 632 363 q 594 124 632 190 q 488 21 557 57 q 331 -15 419 -15 m 333 90 q 453 141 408 90 q 497 276 497 192 q 452 409 497 360 q 331 458 407 458 q 211 409 256 458 q 167 275 167 360 q 212 140 167 190 q 333 90 257 90 m 326 635 q 206 676 251 635 q 154 793 160 718 l 244 793 q 331 713 260 713 q 388 733 365 713 q 415 793 410 754 l 507 793 q 453 676 500 717 q 326 635 406 635 z "},"ǒ":{"ha":664,"x_min":32,"x_max":632,"o":"m 331 -15 q 174 21 242 -15 q 69 123 107 57 q 32 275 32 189 q 69 427 32 361 q 174 528 107 493 q 331 564 242 564 q 488 528 419 564 q 594 428 557 493 q 632 276 632 363 q 594 124 632 190 q 488 21 557 57 q 331 -15 419 -15 m 333 90 q 453 141 408 90 q 497 276 497 192 q 452 409 497 360 q 331 458 407 458 q 211 409 256 458 q 167 275 167 360 q 212 140 167 190 q 333 90 257 90 m 151 849 l 247 849 l 333 696 l 418 849 l 508 849 l 403 628 l 263 628 l 151 849 z "},"ô":{"ha":664,"x_min":32,"x_max":632,"o":"m 331 -15 q 174 21 242 -15 q 69 123 107 57 q 32 275 32 189 q 69 427 32 361 q 174 528 107 493 q 331 564 242 564 q 488 528 419 564 q 594 428 557 493 q 632 276 632 363 q 594 124 632 190 q 488 21 557 57 q 331 -15 419 -15 m 333 90 q 453 141 408 90 q 497 276 497 192 q 452 409 497 360 q 331 458 407 458 q 211 409 256 458 q 167 275 167 360 q 212 140 167 190 q 333 90 257 90 m 260 856 l 403 856 l 518 629 l 424 629 l 331 799 l 238 629 l 143 629 l 260 856 z "},"ố":{"ha":664,"x_min":32,"x_max":656,"o":"m 331 -15 q 174 21 242 -15 q 69 123 107 57 q 32 275 32 189 q 69 427 32 361 q 174 528 107 493 q 331 564 242 564 q 488 528 419 564 q 594 428 557 493 q 632 276 632 363 q 594 124 632 190 q 488 21 557 57 q 331 -15 419 -15 m 333 90 q 453 141 408 90 q 497 276 497 192 q 452 409 497 360 q 331 458 407 458 q 211 409 256 458 q 167 275 167 360 q 212 140 167 190 q 333 90 257 90 m 538 926 l 656 926 l 554 757 l 478 757 l 538 926 m 263 811 l 399 811 l 515 629 l 419 629 l 331 753 l 242 629 l 146 629 l 263 811 z "},"ộ":{"ha":664,"x_min":32,"x_max":632,"o":"m 331 -15 q 174 21 242 -15 q 69 123 107 57 q 32 275 32 189 q 69 427 32 361 q 174 528 107 493 q 331 564 242 564 q 488 528 419 564 q 594 428 557 493 q 632 276 632 363 q 594 124 632 190 q 488 21 557 57 q 331 -15 419 -15 m 333 90 q 453 141 408 90 q 497 276 497 192 q 452 409 497 360 q 331 458 407 458 q 211 409 256 458 q 167 275 167 360 q 212 140 167 190 q 333 90 257 90 m 332 -219 q 275 -199 297 -219 q 253 -146 253 -178 q 275 -93 253 -114 q 332 -72 297 -72 q 390 -93 368 -72 q 411 -149 411 -114 q 389 -199 411 -178 q 332 -219 367 -219 m 260 856 l 403 856 l 518 629 l 424 629 l 331 799 l 238 629 l 143 629 l 260 856 z "},"ồ":{"ha":664,"x_min":32,"x_max":632,"o":"m 331 -15 q 174 21 242 -15 q 69 123 107 57 q 32 275 32 189 q 69 427 32 361 q 174 528 107 493 q 331 564 242 564 q 488 528 419 564 q 594 428 557 493 q 632 276 632 363 q 594 124 632 190 q 488 21 557 57 q 331 -15 419 -15 m 333 90 q 453 141 408 90 q 497 276 497 192 q 452 409 497 360 q 331 458 407 458 q 211 409 256 458 q 167 275 167 360 q 212 140 167 190 q 333 90 257 90 m 511 757 l 408 926 l 526 926 l 586 757 l 511 757 m 263 811 l 399 811 l 515 629 l 419 629 l 331 753 l 242 629 l 146 629 l 263 811 z "},"ổ":{"ha":664,"x_min":32,"x_max":632,"o":"m 331 -15 q 174 21 242 -15 q 69 123 107 57 q 32 275 32 189 q 69 427 32 361 q 174 528 107 493 q 331 564 242 564 q 488 528 419 564 q 594 428 557 493 q 632 276 632 363 q 594 124 632 190 q 488 21 557 57 q 331 -15 419 -15 m 333 90 q 453 141 408 90 q 497 276 497 192 q 452 409 497 360 q 331 458 407 458 q 211 409 256 458 q 167 275 167 360 q 212 140 167 190 q 333 90 257 90 m 469 801 q 515 853 515 817 q 502 881 515 871 q 465 892 489 892 q 399 872 433 892 l 378 933 q 481 965 422 965 q 567 936 535 965 q 600 861 600 907 q 489 740 600 768 l 469 801 m 263 811 l 399 811 l 515 629 l 419 629 l 331 753 l 242 629 l 146 629 l 263 811 z "}}}
